G04 #@! TF.GenerationSoftware,KiCad,Pcbnew,5.1.5-52549c5~84~ubuntu18.04.1*
G04 #@! TF.CreationDate,2020-02-11T14:22:43+01:00*
G04 #@! TF.ProjectId,project,70726f6a-6563-4742-9e6b-696361645f70,rev?*
G04 #@! TF.SameCoordinates,Original*
G04 #@! TF.FileFunction,Soldermask,Top*
G04 #@! TF.FilePolarity,Negative*
%FSLAX46Y46*%
G04 Gerber Fmt 4.6, Leading zero omitted, Abs format (unit mm)*
G04 Created by KiCad (PCBNEW 5.1.5-52549c5~84~ubuntu18.04.1) date 2020-02-11 14:22:43*
%MOMM*%
%LPD*%
G04 APERTURE LIST*
%ADD10C,0.100000*%
G04 APERTURE END LIST*
D10*
G36*
X99001000Y-79001000D02*
G01*
X97199000Y-79001000D01*
X97199000Y-77199000D01*
X99001000Y-77199000D01*
X99001000Y-79001000D01*
G37*
G36*
X94401000Y-78801000D02*
G01*
X92599000Y-78801000D01*
X92599000Y-76999000D01*
X94401000Y-76999000D01*
X94401000Y-78801000D01*
G37*
G36*
X91054508Y-77000147D02*
G01*
X91222812Y-77033624D01*
X91386784Y-77101544D01*
X91534354Y-77200147D01*
X91659853Y-77325646D01*
X91758456Y-77473216D01*
X91826376Y-77637188D01*
X91861000Y-77811259D01*
X91861000Y-77988741D01*
X91826376Y-78162812D01*
X91758456Y-78326784D01*
X91659853Y-78474354D01*
X91534354Y-78599853D01*
X91386784Y-78698456D01*
X91222812Y-78766376D01*
X91073512Y-78796073D01*
X91048742Y-78801000D01*
X90871258Y-78801000D01*
X90846488Y-78796073D01*
X90697188Y-78766376D01*
X90533216Y-78698456D01*
X90385646Y-78599853D01*
X90260147Y-78474354D01*
X90161544Y-78326784D01*
X90093624Y-78162812D01*
X90059000Y-77988741D01*
X90059000Y-77811259D01*
X90093624Y-77637188D01*
X90161544Y-77473216D01*
X90260147Y-77325646D01*
X90385646Y-77200147D01*
X90533216Y-77101544D01*
X90697188Y-77033624D01*
X90865492Y-77000147D01*
X90871258Y-76999000D01*
X91048742Y-76999000D01*
X91054508Y-77000147D01*
G37*
G36*
X67373512Y-76803927D02*
G01*
X67522812Y-76833624D01*
X67686784Y-76901544D01*
X67834354Y-77000147D01*
X67959853Y-77125646D01*
X68058456Y-77273216D01*
X68126376Y-77437188D01*
X68161000Y-77611259D01*
X68161000Y-77788741D01*
X68126376Y-77962812D01*
X68058456Y-78126784D01*
X67959853Y-78274354D01*
X67834354Y-78399853D01*
X67686784Y-78498456D01*
X67522812Y-78566376D01*
X67373512Y-78596073D01*
X67348742Y-78601000D01*
X67171258Y-78601000D01*
X67146488Y-78596073D01*
X66997188Y-78566376D01*
X66833216Y-78498456D01*
X66685646Y-78399853D01*
X66560147Y-78274354D01*
X66461544Y-78126784D01*
X66393624Y-77962812D01*
X66359000Y-77788741D01*
X66359000Y-77611259D01*
X66393624Y-77437188D01*
X66461544Y-77273216D01*
X66560147Y-77125646D01*
X66685646Y-77000147D01*
X66833216Y-76901544D01*
X66997188Y-76833624D01*
X67146488Y-76803927D01*
X67171258Y-76799000D01*
X67348742Y-76799000D01*
X67373512Y-76803927D01*
G37*
G36*
X72453512Y-76803927D02*
G01*
X72602812Y-76833624D01*
X72766784Y-76901544D01*
X72914354Y-77000147D01*
X73039853Y-77125646D01*
X73138456Y-77273216D01*
X73206376Y-77437188D01*
X73241000Y-77611259D01*
X73241000Y-77788741D01*
X73206376Y-77962812D01*
X73138456Y-78126784D01*
X73039853Y-78274354D01*
X72914354Y-78399853D01*
X72766784Y-78498456D01*
X72602812Y-78566376D01*
X72453512Y-78596073D01*
X72428742Y-78601000D01*
X72251258Y-78601000D01*
X72226488Y-78596073D01*
X72077188Y-78566376D01*
X71913216Y-78498456D01*
X71765646Y-78399853D01*
X71640147Y-78274354D01*
X71541544Y-78126784D01*
X71473624Y-77962812D01*
X71439000Y-77788741D01*
X71439000Y-77611259D01*
X71473624Y-77437188D01*
X71541544Y-77273216D01*
X71640147Y-77125646D01*
X71765646Y-77000147D01*
X71913216Y-76901544D01*
X72077188Y-76833624D01*
X72226488Y-76803927D01*
X72251258Y-76799000D01*
X72428742Y-76799000D01*
X72453512Y-76803927D01*
G37*
G36*
X69913512Y-76803927D02*
G01*
X70062812Y-76833624D01*
X70226784Y-76901544D01*
X70374354Y-77000147D01*
X70499853Y-77125646D01*
X70598456Y-77273216D01*
X70666376Y-77437188D01*
X70701000Y-77611259D01*
X70701000Y-77788741D01*
X70666376Y-77962812D01*
X70598456Y-78126784D01*
X70499853Y-78274354D01*
X70374354Y-78399853D01*
X70226784Y-78498456D01*
X70062812Y-78566376D01*
X69913512Y-78596073D01*
X69888742Y-78601000D01*
X69711258Y-78601000D01*
X69686488Y-78596073D01*
X69537188Y-78566376D01*
X69373216Y-78498456D01*
X69225646Y-78399853D01*
X69100147Y-78274354D01*
X69001544Y-78126784D01*
X68933624Y-77962812D01*
X68899000Y-77788741D01*
X68899000Y-77611259D01*
X68933624Y-77437188D01*
X69001544Y-77273216D01*
X69100147Y-77125646D01*
X69225646Y-77000147D01*
X69373216Y-76901544D01*
X69537188Y-76833624D01*
X69686488Y-76803927D01*
X69711258Y-76799000D01*
X69888742Y-76799000D01*
X69913512Y-76803927D01*
G37*
G36*
X64833512Y-76803927D02*
G01*
X64982812Y-76833624D01*
X65146784Y-76901544D01*
X65294354Y-77000147D01*
X65419853Y-77125646D01*
X65518456Y-77273216D01*
X65586376Y-77437188D01*
X65621000Y-77611259D01*
X65621000Y-77788741D01*
X65586376Y-77962812D01*
X65518456Y-78126784D01*
X65419853Y-78274354D01*
X65294354Y-78399853D01*
X65146784Y-78498456D01*
X64982812Y-78566376D01*
X64833512Y-78596073D01*
X64808742Y-78601000D01*
X64631258Y-78601000D01*
X64606488Y-78596073D01*
X64457188Y-78566376D01*
X64293216Y-78498456D01*
X64145646Y-78399853D01*
X64020147Y-78274354D01*
X63921544Y-78126784D01*
X63853624Y-77962812D01*
X63819000Y-77788741D01*
X63819000Y-77611259D01*
X63853624Y-77437188D01*
X63921544Y-77273216D01*
X64020147Y-77125646D01*
X64145646Y-77000147D01*
X64293216Y-76901544D01*
X64457188Y-76833624D01*
X64606488Y-76803927D01*
X64631258Y-76799000D01*
X64808742Y-76799000D01*
X64833512Y-76803927D01*
G37*
G36*
X60541000Y-78601000D02*
G01*
X58739000Y-78601000D01*
X58739000Y-76799000D01*
X60541000Y-76799000D01*
X60541000Y-78601000D01*
G37*
G36*
X74993512Y-76803927D02*
G01*
X75142812Y-76833624D01*
X75306784Y-76901544D01*
X75454354Y-77000147D01*
X75579853Y-77125646D01*
X75678456Y-77273216D01*
X75746376Y-77437188D01*
X75781000Y-77611259D01*
X75781000Y-77788741D01*
X75746376Y-77962812D01*
X75678456Y-78126784D01*
X75579853Y-78274354D01*
X75454354Y-78399853D01*
X75306784Y-78498456D01*
X75142812Y-78566376D01*
X74993512Y-78596073D01*
X74968742Y-78601000D01*
X74791258Y-78601000D01*
X74766488Y-78596073D01*
X74617188Y-78566376D01*
X74453216Y-78498456D01*
X74305646Y-78399853D01*
X74180147Y-78274354D01*
X74081544Y-78126784D01*
X74013624Y-77962812D01*
X73979000Y-77788741D01*
X73979000Y-77611259D01*
X74013624Y-77437188D01*
X74081544Y-77273216D01*
X74180147Y-77125646D01*
X74305646Y-77000147D01*
X74453216Y-76901544D01*
X74617188Y-76833624D01*
X74766488Y-76803927D01*
X74791258Y-76799000D01*
X74968742Y-76799000D01*
X74993512Y-76803927D01*
G37*
G36*
X62293512Y-76803927D02*
G01*
X62442812Y-76833624D01*
X62606784Y-76901544D01*
X62754354Y-77000147D01*
X62879853Y-77125646D01*
X62978456Y-77273216D01*
X63046376Y-77437188D01*
X63081000Y-77611259D01*
X63081000Y-77788741D01*
X63046376Y-77962812D01*
X62978456Y-78126784D01*
X62879853Y-78274354D01*
X62754354Y-78399853D01*
X62606784Y-78498456D01*
X62442812Y-78566376D01*
X62293512Y-78596073D01*
X62268742Y-78601000D01*
X62091258Y-78601000D01*
X62066488Y-78596073D01*
X61917188Y-78566376D01*
X61753216Y-78498456D01*
X61605646Y-78399853D01*
X61480147Y-78274354D01*
X61381544Y-78126784D01*
X61313624Y-77962812D01*
X61279000Y-77788741D01*
X61279000Y-77611259D01*
X61313624Y-77437188D01*
X61381544Y-77273216D01*
X61480147Y-77125646D01*
X61605646Y-77000147D01*
X61753216Y-76901544D01*
X61917188Y-76833624D01*
X62066488Y-76803927D01*
X62091258Y-76799000D01*
X62268742Y-76799000D01*
X62293512Y-76803927D01*
G37*
G36*
X55105997Y-75253051D02*
G01*
X55139652Y-75263261D01*
X55170665Y-75279838D01*
X55197851Y-75302149D01*
X55220162Y-75329335D01*
X55236739Y-75360348D01*
X55246949Y-75394003D01*
X55251000Y-75435138D01*
X55251000Y-78164862D01*
X55246949Y-78205997D01*
X55236739Y-78239652D01*
X55220162Y-78270665D01*
X55197851Y-78297851D01*
X55170665Y-78320162D01*
X55139652Y-78336739D01*
X55105997Y-78346949D01*
X55064862Y-78351000D01*
X53735138Y-78351000D01*
X53694003Y-78346949D01*
X53660348Y-78336739D01*
X53629335Y-78320162D01*
X53602149Y-78297851D01*
X53579838Y-78270665D01*
X53563261Y-78239652D01*
X53553051Y-78205997D01*
X53549000Y-78164862D01*
X53549000Y-75435138D01*
X53553051Y-75394003D01*
X53563261Y-75360348D01*
X53579838Y-75329335D01*
X53602149Y-75302149D01*
X53629335Y-75279838D01*
X53660348Y-75263261D01*
X53694003Y-75253051D01*
X53735138Y-75249000D01*
X55064862Y-75249000D01*
X55105997Y-75253051D01*
G37*
G36*
X98213512Y-74663927D02*
G01*
X98362812Y-74693624D01*
X98526784Y-74761544D01*
X98674354Y-74860147D01*
X98799853Y-74985646D01*
X98898456Y-75133216D01*
X98966376Y-75297188D01*
X99001000Y-75471259D01*
X99001000Y-75648741D01*
X98966376Y-75822812D01*
X98898456Y-75986784D01*
X98799853Y-76134354D01*
X98674354Y-76259853D01*
X98526784Y-76358456D01*
X98362812Y-76426376D01*
X98213512Y-76456073D01*
X98188742Y-76461000D01*
X98011258Y-76461000D01*
X97986488Y-76456073D01*
X97837188Y-76426376D01*
X97673216Y-76358456D01*
X97525646Y-76259853D01*
X97400147Y-76134354D01*
X97301544Y-75986784D01*
X97233624Y-75822812D01*
X97199000Y-75648741D01*
X97199000Y-75471259D01*
X97233624Y-75297188D01*
X97301544Y-75133216D01*
X97400147Y-74985646D01*
X97525646Y-74860147D01*
X97673216Y-74761544D01*
X97837188Y-74693624D01*
X97986488Y-74663927D01*
X98011258Y-74659000D01*
X98188742Y-74659000D01*
X98213512Y-74663927D01*
G37*
G36*
X49188674Y-73678465D02*
G01*
X49226367Y-73689899D01*
X49261103Y-73708466D01*
X49291548Y-73733452D01*
X49316534Y-73763897D01*
X49335101Y-73798633D01*
X49346535Y-73836326D01*
X49351000Y-73881661D01*
X49351000Y-74718339D01*
X49346535Y-74763674D01*
X49335101Y-74801367D01*
X49316534Y-74836103D01*
X49291548Y-74866548D01*
X49261103Y-74891534D01*
X49226367Y-74910101D01*
X49188674Y-74921535D01*
X49143339Y-74926000D01*
X48056661Y-74926000D01*
X48011326Y-74921535D01*
X47973633Y-74910101D01*
X47938897Y-74891534D01*
X47908452Y-74866548D01*
X47883466Y-74836103D01*
X47864899Y-74801367D01*
X47853465Y-74763674D01*
X47849000Y-74718339D01*
X47849000Y-73881661D01*
X47853465Y-73836326D01*
X47864899Y-73798633D01*
X47883466Y-73763897D01*
X47908452Y-73733452D01*
X47938897Y-73708466D01*
X47973633Y-73689899D01*
X48011326Y-73678465D01*
X48056661Y-73674000D01*
X49143339Y-73674000D01*
X49188674Y-73678465D01*
G37*
G36*
X60088674Y-72903465D02*
G01*
X60126367Y-72914899D01*
X60161103Y-72933466D01*
X60191548Y-72958452D01*
X60216534Y-72988897D01*
X60235101Y-73023633D01*
X60246535Y-73061326D01*
X60251000Y-73106661D01*
X60251000Y-73943339D01*
X60246535Y-73988674D01*
X60235101Y-74026367D01*
X60216534Y-74061103D01*
X60191548Y-74091548D01*
X60161103Y-74116534D01*
X60126367Y-74135101D01*
X60088674Y-74146535D01*
X60043339Y-74151000D01*
X58956661Y-74151000D01*
X58911326Y-74146535D01*
X58873633Y-74135101D01*
X58838897Y-74116534D01*
X58808452Y-74091548D01*
X58783466Y-74061103D01*
X58764899Y-74026367D01*
X58753465Y-73988674D01*
X58749000Y-73943339D01*
X58749000Y-73106661D01*
X58753465Y-73061326D01*
X58764899Y-73023633D01*
X58783466Y-72988897D01*
X58808452Y-72958452D01*
X58838897Y-72933466D01*
X58873633Y-72914899D01*
X58911326Y-72903465D01*
X58956661Y-72899000D01*
X60043339Y-72899000D01*
X60088674Y-72903465D01*
G37*
G36*
X63188674Y-72903465D02*
G01*
X63226367Y-72914899D01*
X63261103Y-72933466D01*
X63291548Y-72958452D01*
X63316534Y-72988897D01*
X63335101Y-73023633D01*
X63346535Y-73061326D01*
X63351000Y-73106661D01*
X63351000Y-73943339D01*
X63346535Y-73988674D01*
X63335101Y-74026367D01*
X63316534Y-74061103D01*
X63291548Y-74091548D01*
X63261103Y-74116534D01*
X63226367Y-74135101D01*
X63188674Y-74146535D01*
X63143339Y-74151000D01*
X62056661Y-74151000D01*
X62011326Y-74146535D01*
X61973633Y-74135101D01*
X61938897Y-74116534D01*
X61908452Y-74091548D01*
X61883466Y-74061103D01*
X61864899Y-74026367D01*
X61853465Y-73988674D01*
X61849000Y-73943339D01*
X61849000Y-73106661D01*
X61853465Y-73061326D01*
X61864899Y-73023633D01*
X61883466Y-72988897D01*
X61908452Y-72958452D01*
X61938897Y-72933466D01*
X61973633Y-72914899D01*
X62011326Y-72903465D01*
X62056661Y-72899000D01*
X63143339Y-72899000D01*
X63188674Y-72903465D01*
G37*
G36*
X55105997Y-70853051D02*
G01*
X55139652Y-70863261D01*
X55170665Y-70879838D01*
X55197851Y-70902149D01*
X55220162Y-70929335D01*
X55236739Y-70960348D01*
X55246949Y-70994003D01*
X55251000Y-71035138D01*
X55251000Y-73764862D01*
X55246949Y-73805997D01*
X55236739Y-73839652D01*
X55220162Y-73870665D01*
X55197851Y-73897851D01*
X55170665Y-73920162D01*
X55139652Y-73936739D01*
X55105997Y-73946949D01*
X55064862Y-73951000D01*
X53735138Y-73951000D01*
X53694003Y-73946949D01*
X53660348Y-73936739D01*
X53629335Y-73920162D01*
X53602149Y-73897851D01*
X53579838Y-73870665D01*
X53563261Y-73839652D01*
X53553051Y-73805997D01*
X53549000Y-73764862D01*
X53549000Y-71035138D01*
X53553051Y-70994003D01*
X53563261Y-70960348D01*
X53579838Y-70929335D01*
X53602149Y-70902149D01*
X53629335Y-70879838D01*
X53660348Y-70863261D01*
X53694003Y-70853051D01*
X53735138Y-70849000D01*
X55064862Y-70849000D01*
X55105997Y-70853051D01*
G37*
G36*
X98213512Y-72123927D02*
G01*
X98362812Y-72153624D01*
X98526784Y-72221544D01*
X98674354Y-72320147D01*
X98799853Y-72445646D01*
X98898456Y-72593216D01*
X98966376Y-72757188D01*
X98994583Y-72899000D01*
X99001000Y-72931258D01*
X99001000Y-73108742D01*
X98996073Y-73133512D01*
X98966376Y-73282812D01*
X98898456Y-73446784D01*
X98799853Y-73594354D01*
X98674354Y-73719853D01*
X98526784Y-73818456D01*
X98362812Y-73886376D01*
X98213512Y-73916073D01*
X98188742Y-73921000D01*
X98011258Y-73921000D01*
X97986488Y-73916073D01*
X97837188Y-73886376D01*
X97673216Y-73818456D01*
X97525646Y-73719853D01*
X97400147Y-73594354D01*
X97301544Y-73446784D01*
X97233624Y-73282812D01*
X97203927Y-73133512D01*
X97199000Y-73108742D01*
X97199000Y-72931258D01*
X97205417Y-72899000D01*
X97233624Y-72757188D01*
X97301544Y-72593216D01*
X97400147Y-72445646D01*
X97525646Y-72320147D01*
X97673216Y-72221544D01*
X97837188Y-72153624D01*
X97986488Y-72123927D01*
X98011258Y-72119000D01*
X98188742Y-72119000D01*
X98213512Y-72123927D01*
G37*
G36*
X49188674Y-71628465D02*
G01*
X49226367Y-71639899D01*
X49261103Y-71658466D01*
X49291548Y-71683452D01*
X49316534Y-71713897D01*
X49335101Y-71748633D01*
X49346535Y-71786326D01*
X49351000Y-71831661D01*
X49351000Y-72668339D01*
X49346535Y-72713674D01*
X49335101Y-72751367D01*
X49316534Y-72786103D01*
X49291548Y-72816548D01*
X49261103Y-72841534D01*
X49226367Y-72860101D01*
X49188674Y-72871535D01*
X49143339Y-72876000D01*
X48056661Y-72876000D01*
X48011326Y-72871535D01*
X47973633Y-72860101D01*
X47938897Y-72841534D01*
X47908452Y-72816548D01*
X47883466Y-72786103D01*
X47864899Y-72751367D01*
X47853465Y-72713674D01*
X47849000Y-72668339D01*
X47849000Y-71831661D01*
X47853465Y-71786326D01*
X47864899Y-71748633D01*
X47883466Y-71713897D01*
X47908452Y-71683452D01*
X47938897Y-71658466D01*
X47973633Y-71639899D01*
X48011326Y-71628465D01*
X48056661Y-71624000D01*
X49143339Y-71624000D01*
X49188674Y-71628465D01*
G37*
G36*
X63188674Y-70853465D02*
G01*
X63226367Y-70864899D01*
X63261103Y-70883466D01*
X63291548Y-70908452D01*
X63316534Y-70938897D01*
X63335101Y-70973633D01*
X63346535Y-71011326D01*
X63351000Y-71056661D01*
X63351000Y-71893339D01*
X63346535Y-71938674D01*
X63335101Y-71976367D01*
X63316534Y-72011103D01*
X63291548Y-72041548D01*
X63261103Y-72066534D01*
X63226367Y-72085101D01*
X63188674Y-72096535D01*
X63143339Y-72101000D01*
X62056661Y-72101000D01*
X62011326Y-72096535D01*
X61973633Y-72085101D01*
X61938897Y-72066534D01*
X61908452Y-72041548D01*
X61883466Y-72011103D01*
X61864899Y-71976367D01*
X61853465Y-71938674D01*
X61849000Y-71893339D01*
X61849000Y-71056661D01*
X61853465Y-71011326D01*
X61864899Y-70973633D01*
X61883466Y-70938897D01*
X61908452Y-70908452D01*
X61938897Y-70883466D01*
X61973633Y-70864899D01*
X62011326Y-70853465D01*
X62056661Y-70849000D01*
X63143339Y-70849000D01*
X63188674Y-70853465D01*
G37*
G36*
X60088674Y-70853465D02*
G01*
X60126367Y-70864899D01*
X60161103Y-70883466D01*
X60191548Y-70908452D01*
X60216534Y-70938897D01*
X60235101Y-70973633D01*
X60246535Y-71011326D01*
X60251000Y-71056661D01*
X60251000Y-71893339D01*
X60246535Y-71938674D01*
X60235101Y-71976367D01*
X60216534Y-72011103D01*
X60191548Y-72041548D01*
X60161103Y-72066534D01*
X60126367Y-72085101D01*
X60088674Y-72096535D01*
X60043339Y-72101000D01*
X58956661Y-72101000D01*
X58911326Y-72096535D01*
X58873633Y-72085101D01*
X58838897Y-72066534D01*
X58808452Y-72041548D01*
X58783466Y-72011103D01*
X58764899Y-71976367D01*
X58753465Y-71938674D01*
X58749000Y-71893339D01*
X58749000Y-71056661D01*
X58753465Y-71011326D01*
X58764899Y-70973633D01*
X58783466Y-70938897D01*
X58808452Y-70908452D01*
X58838897Y-70883466D01*
X58873633Y-70864899D01*
X58911326Y-70853465D01*
X58956661Y-70849000D01*
X60043339Y-70849000D01*
X60088674Y-70853465D01*
G37*
G36*
X98213512Y-69583927D02*
G01*
X98362812Y-69613624D01*
X98526784Y-69681544D01*
X98674354Y-69780147D01*
X98799853Y-69905646D01*
X98898456Y-70053216D01*
X98966376Y-70217188D01*
X99001000Y-70391259D01*
X99001000Y-70568741D01*
X98966376Y-70742812D01*
X98898456Y-70906784D01*
X98799853Y-71054354D01*
X98674354Y-71179853D01*
X98526784Y-71278456D01*
X98362812Y-71346376D01*
X98213512Y-71376073D01*
X98188742Y-71381000D01*
X98011258Y-71381000D01*
X97986488Y-71376073D01*
X97837188Y-71346376D01*
X97673216Y-71278456D01*
X97525646Y-71179853D01*
X97400147Y-71054354D01*
X97301544Y-70906784D01*
X97233624Y-70742812D01*
X97199000Y-70568741D01*
X97199000Y-70391259D01*
X97233624Y-70217188D01*
X97301544Y-70053216D01*
X97400147Y-69905646D01*
X97525646Y-69780147D01*
X97673216Y-69681544D01*
X97837188Y-69613624D01*
X97986488Y-69583927D01*
X98011258Y-69579000D01*
X98188742Y-69579000D01*
X98213512Y-69583927D01*
G37*
G36*
X88701000Y-69601000D02*
G01*
X79299000Y-69601000D01*
X79299000Y-68699000D01*
X88701000Y-68699000D01*
X88701000Y-69601000D01*
G37*
G36*
X62988674Y-67953465D02*
G01*
X63026367Y-67964899D01*
X63061103Y-67983466D01*
X63091548Y-68008452D01*
X63116534Y-68038897D01*
X63135101Y-68073633D01*
X63146535Y-68111326D01*
X63151000Y-68156661D01*
X63151000Y-69243339D01*
X63146535Y-69288674D01*
X63135101Y-69326367D01*
X63116534Y-69361103D01*
X63091548Y-69391548D01*
X63061103Y-69416534D01*
X63026367Y-69435101D01*
X62988674Y-69446535D01*
X62943339Y-69451000D01*
X62106661Y-69451000D01*
X62061326Y-69446535D01*
X62023633Y-69435101D01*
X61988897Y-69416534D01*
X61958452Y-69391548D01*
X61933466Y-69361103D01*
X61914899Y-69326367D01*
X61903465Y-69288674D01*
X61899000Y-69243339D01*
X61899000Y-68156661D01*
X61903465Y-68111326D01*
X61914899Y-68073633D01*
X61933466Y-68038897D01*
X61958452Y-68008452D01*
X61988897Y-67983466D01*
X62023633Y-67964899D01*
X62061326Y-67953465D01*
X62106661Y-67949000D01*
X62943339Y-67949000D01*
X62988674Y-67953465D01*
G37*
G36*
X60938674Y-67953465D02*
G01*
X60976367Y-67964899D01*
X61011103Y-67983466D01*
X61041548Y-68008452D01*
X61066534Y-68038897D01*
X61085101Y-68073633D01*
X61096535Y-68111326D01*
X61101000Y-68156661D01*
X61101000Y-69243339D01*
X61096535Y-69288674D01*
X61085101Y-69326367D01*
X61066534Y-69361103D01*
X61041548Y-69391548D01*
X61011103Y-69416534D01*
X60976367Y-69435101D01*
X60938674Y-69446535D01*
X60893339Y-69451000D01*
X60056661Y-69451000D01*
X60011326Y-69446535D01*
X59973633Y-69435101D01*
X59938897Y-69416534D01*
X59908452Y-69391548D01*
X59883466Y-69361103D01*
X59864899Y-69326367D01*
X59853465Y-69288674D01*
X59849000Y-69243339D01*
X59849000Y-68156661D01*
X59853465Y-68111326D01*
X59864899Y-68073633D01*
X59883466Y-68038897D01*
X59908452Y-68008452D01*
X59938897Y-67983466D01*
X59973633Y-67964899D01*
X60011326Y-67953465D01*
X60056661Y-67949000D01*
X60893339Y-67949000D01*
X60938674Y-67953465D01*
G37*
G36*
X71838674Y-67853465D02*
G01*
X71876367Y-67864899D01*
X71911103Y-67883466D01*
X71941548Y-67908452D01*
X71966534Y-67938897D01*
X71985101Y-67973633D01*
X71996535Y-68011326D01*
X72001000Y-68056661D01*
X72001000Y-69143339D01*
X71996535Y-69188674D01*
X71985101Y-69226367D01*
X71966534Y-69261103D01*
X71941548Y-69291548D01*
X71911103Y-69316534D01*
X71876367Y-69335101D01*
X71838674Y-69346535D01*
X71793339Y-69351000D01*
X70956661Y-69351000D01*
X70911326Y-69346535D01*
X70873633Y-69335101D01*
X70838897Y-69316534D01*
X70808452Y-69291548D01*
X70783466Y-69261103D01*
X70764899Y-69226367D01*
X70753465Y-69188674D01*
X70749000Y-69143339D01*
X70749000Y-68056661D01*
X70753465Y-68011326D01*
X70764899Y-67973633D01*
X70783466Y-67938897D01*
X70808452Y-67908452D01*
X70838897Y-67883466D01*
X70873633Y-67864899D01*
X70911326Y-67853465D01*
X70956661Y-67849000D01*
X71793339Y-67849000D01*
X71838674Y-67853465D01*
G37*
G36*
X73888674Y-67853465D02*
G01*
X73926367Y-67864899D01*
X73961103Y-67883466D01*
X73991548Y-67908452D01*
X74016534Y-67938897D01*
X74035101Y-67973633D01*
X74046535Y-68011326D01*
X74051000Y-68056661D01*
X74051000Y-69143339D01*
X74046535Y-69188674D01*
X74035101Y-69226367D01*
X74016534Y-69261103D01*
X73991548Y-69291548D01*
X73961103Y-69316534D01*
X73926367Y-69335101D01*
X73888674Y-69346535D01*
X73843339Y-69351000D01*
X73006661Y-69351000D01*
X72961326Y-69346535D01*
X72923633Y-69335101D01*
X72888897Y-69316534D01*
X72858452Y-69291548D01*
X72833466Y-69261103D01*
X72814899Y-69226367D01*
X72803465Y-69188674D01*
X72799000Y-69143339D01*
X72799000Y-68056661D01*
X72803465Y-68011326D01*
X72814899Y-67973633D01*
X72833466Y-67938897D01*
X72858452Y-67908452D01*
X72888897Y-67883466D01*
X72923633Y-67864899D01*
X72961326Y-67853465D01*
X73006661Y-67849000D01*
X73843339Y-67849000D01*
X73888674Y-67853465D01*
G37*
G36*
X67563674Y-67753465D02*
G01*
X67601367Y-67764899D01*
X67636103Y-67783466D01*
X67666548Y-67808452D01*
X67691534Y-67838897D01*
X67710101Y-67873633D01*
X67721535Y-67911326D01*
X67726000Y-67956661D01*
X67726000Y-69043339D01*
X67721535Y-69088674D01*
X67710101Y-69126367D01*
X67691534Y-69161103D01*
X67666548Y-69191548D01*
X67636103Y-69216534D01*
X67601367Y-69235101D01*
X67563674Y-69246535D01*
X67518339Y-69251000D01*
X66681661Y-69251000D01*
X66636326Y-69246535D01*
X66598633Y-69235101D01*
X66563897Y-69216534D01*
X66533452Y-69191548D01*
X66508466Y-69161103D01*
X66489899Y-69126367D01*
X66478465Y-69088674D01*
X66474000Y-69043339D01*
X66474000Y-67956661D01*
X66478465Y-67911326D01*
X66489899Y-67873633D01*
X66508466Y-67838897D01*
X66533452Y-67808452D01*
X66563897Y-67783466D01*
X66598633Y-67764899D01*
X66636326Y-67753465D01*
X66681661Y-67749000D01*
X67518339Y-67749000D01*
X67563674Y-67753465D01*
G37*
G36*
X69613674Y-67753465D02*
G01*
X69651367Y-67764899D01*
X69686103Y-67783466D01*
X69716548Y-67808452D01*
X69741534Y-67838897D01*
X69760101Y-67873633D01*
X69771535Y-67911326D01*
X69776000Y-67956661D01*
X69776000Y-69043339D01*
X69771535Y-69088674D01*
X69760101Y-69126367D01*
X69741534Y-69161103D01*
X69716548Y-69191548D01*
X69686103Y-69216534D01*
X69651367Y-69235101D01*
X69613674Y-69246535D01*
X69568339Y-69251000D01*
X68731661Y-69251000D01*
X68686326Y-69246535D01*
X68648633Y-69235101D01*
X68613897Y-69216534D01*
X68583452Y-69191548D01*
X68558466Y-69161103D01*
X68539899Y-69126367D01*
X68528465Y-69088674D01*
X68524000Y-69043339D01*
X68524000Y-67956661D01*
X68528465Y-67911326D01*
X68539899Y-67873633D01*
X68558466Y-67838897D01*
X68583452Y-67808452D01*
X68613897Y-67783466D01*
X68648633Y-67764899D01*
X68686326Y-67753465D01*
X68731661Y-67749000D01*
X69568339Y-67749000D01*
X69613674Y-67753465D01*
G37*
G36*
X98213512Y-67043927D02*
G01*
X98362812Y-67073624D01*
X98526784Y-67141544D01*
X98674354Y-67240147D01*
X98799853Y-67365646D01*
X98898456Y-67513216D01*
X98966376Y-67677188D01*
X98992485Y-67808452D01*
X99000949Y-67851000D01*
X99001000Y-67851259D01*
X99001000Y-68028741D01*
X98966376Y-68202812D01*
X98898456Y-68366784D01*
X98799853Y-68514354D01*
X98674354Y-68639853D01*
X98526784Y-68738456D01*
X98362812Y-68806376D01*
X98213512Y-68836073D01*
X98188742Y-68841000D01*
X98011258Y-68841000D01*
X97986488Y-68836073D01*
X97837188Y-68806376D01*
X97673216Y-68738456D01*
X97525646Y-68639853D01*
X97400147Y-68514354D01*
X97301544Y-68366784D01*
X97233624Y-68202812D01*
X97199000Y-68028741D01*
X97199000Y-67851259D01*
X97199052Y-67851000D01*
X97207515Y-67808452D01*
X97233624Y-67677188D01*
X97301544Y-67513216D01*
X97400147Y-67365646D01*
X97525646Y-67240147D01*
X97673216Y-67141544D01*
X97837188Y-67073624D01*
X97986488Y-67043927D01*
X98011258Y-67039000D01*
X98188742Y-67039000D01*
X98213512Y-67043927D01*
G37*
G36*
X56201000Y-68501000D02*
G01*
X54099000Y-68501000D01*
X54099000Y-66899000D01*
X56201000Y-66899000D01*
X56201000Y-68501000D01*
G37*
G36*
X88701000Y-67851000D02*
G01*
X79299000Y-67851000D01*
X79299000Y-66949000D01*
X88701000Y-66949000D01*
X88701000Y-67851000D01*
G37*
G36*
X49901000Y-67351000D02*
G01*
X47799000Y-67351000D01*
X47799000Y-63449000D01*
X49901000Y-63449000D01*
X49901000Y-67351000D01*
G37*
G36*
X91801000Y-66901000D02*
G01*
X90899000Y-66901000D01*
X90899000Y-57499000D01*
X91801000Y-57499000D01*
X91801000Y-66901000D01*
G37*
G36*
X90101000Y-66901000D02*
G01*
X89199000Y-66901000D01*
X89199000Y-57499000D01*
X90101000Y-57499000D01*
X90101000Y-66901000D01*
G37*
G36*
X78801000Y-66901000D02*
G01*
X77899000Y-66901000D01*
X77899000Y-57499000D01*
X78801000Y-57499000D01*
X78801000Y-66901000D01*
G37*
G36*
X77101000Y-66901000D02*
G01*
X76199000Y-66901000D01*
X76199000Y-57499000D01*
X77101000Y-57499000D01*
X77101000Y-66901000D01*
G37*
G36*
X61188674Y-64978465D02*
G01*
X61226367Y-64989899D01*
X61261103Y-65008466D01*
X61291548Y-65033452D01*
X61316534Y-65063897D01*
X61335101Y-65098633D01*
X61346535Y-65136326D01*
X61351000Y-65181661D01*
X61351000Y-66018339D01*
X61346535Y-66063674D01*
X61335101Y-66101367D01*
X61316534Y-66136103D01*
X61291548Y-66166548D01*
X61261103Y-66191534D01*
X61226367Y-66210101D01*
X61188674Y-66221535D01*
X61143339Y-66226000D01*
X60056661Y-66226000D01*
X60011326Y-66221535D01*
X59973633Y-66210101D01*
X59938897Y-66191534D01*
X59908452Y-66166548D01*
X59883466Y-66136103D01*
X59864899Y-66101367D01*
X59853465Y-66063674D01*
X59849000Y-66018339D01*
X59849000Y-65181661D01*
X59853465Y-65136326D01*
X59864899Y-65098633D01*
X59883466Y-65063897D01*
X59908452Y-65033452D01*
X59938897Y-65008466D01*
X59973633Y-64989899D01*
X60011326Y-64978465D01*
X60056661Y-64974000D01*
X61143339Y-64974000D01*
X61188674Y-64978465D01*
G37*
G36*
X56201000Y-66201000D02*
G01*
X54099000Y-66201000D01*
X54099000Y-64599000D01*
X56201000Y-64599000D01*
X56201000Y-66201000D01*
G37*
G36*
X87351000Y-65551000D02*
G01*
X85649000Y-65551000D01*
X85649000Y-63849000D01*
X87351000Y-63849000D01*
X87351000Y-65551000D01*
G37*
G36*
X84851000Y-65551000D02*
G01*
X83149000Y-65551000D01*
X83149000Y-63849000D01*
X84851000Y-63849000D01*
X84851000Y-65551000D01*
G37*
G36*
X82351000Y-65551000D02*
G01*
X80649000Y-65551000D01*
X80649000Y-63849000D01*
X82351000Y-63849000D01*
X82351000Y-65551000D01*
G37*
G36*
X73963674Y-63453465D02*
G01*
X74001367Y-63464899D01*
X74036103Y-63483466D01*
X74066548Y-63508452D01*
X74091534Y-63538897D01*
X74110101Y-63573633D01*
X74121535Y-63611326D01*
X74126000Y-63656661D01*
X74126000Y-64743339D01*
X74121535Y-64788674D01*
X74110101Y-64826367D01*
X74091534Y-64861103D01*
X74066548Y-64891548D01*
X74036103Y-64916534D01*
X74001367Y-64935101D01*
X73963674Y-64946535D01*
X73918339Y-64951000D01*
X73081661Y-64951000D01*
X73036326Y-64946535D01*
X72998633Y-64935101D01*
X72963897Y-64916534D01*
X72933452Y-64891548D01*
X72908466Y-64861103D01*
X72889899Y-64826367D01*
X72878465Y-64788674D01*
X72874000Y-64743339D01*
X72874000Y-63656661D01*
X72878465Y-63611326D01*
X72889899Y-63573633D01*
X72908466Y-63538897D01*
X72933452Y-63508452D01*
X72963897Y-63483466D01*
X72998633Y-63464899D01*
X73036326Y-63453465D01*
X73081661Y-63449000D01*
X73918339Y-63449000D01*
X73963674Y-63453465D01*
G37*
G36*
X71913674Y-63453465D02*
G01*
X71951367Y-63464899D01*
X71986103Y-63483466D01*
X72016548Y-63508452D01*
X72041534Y-63538897D01*
X72060101Y-63573633D01*
X72071535Y-63611326D01*
X72076000Y-63656661D01*
X72076000Y-64743339D01*
X72071535Y-64788674D01*
X72060101Y-64826367D01*
X72041534Y-64861103D01*
X72016548Y-64891548D01*
X71986103Y-64916534D01*
X71951367Y-64935101D01*
X71913674Y-64946535D01*
X71868339Y-64951000D01*
X71031661Y-64951000D01*
X70986326Y-64946535D01*
X70948633Y-64935101D01*
X70913897Y-64916534D01*
X70883452Y-64891548D01*
X70858466Y-64861103D01*
X70839899Y-64826367D01*
X70828465Y-64788674D01*
X70824000Y-64743339D01*
X70824000Y-63656661D01*
X70828465Y-63611326D01*
X70839899Y-63573633D01*
X70858466Y-63538897D01*
X70883452Y-63508452D01*
X70913897Y-63483466D01*
X70948633Y-63464899D01*
X70986326Y-63453465D01*
X71031661Y-63449000D01*
X71868339Y-63449000D01*
X71913674Y-63453465D01*
G37*
G36*
X69588674Y-63353465D02*
G01*
X69626367Y-63364899D01*
X69661103Y-63383466D01*
X69691548Y-63408452D01*
X69716534Y-63438897D01*
X69735101Y-63473633D01*
X69746535Y-63511326D01*
X69751000Y-63556661D01*
X69751000Y-64643339D01*
X69746535Y-64688674D01*
X69735101Y-64726367D01*
X69716534Y-64761103D01*
X69691548Y-64791548D01*
X69661103Y-64816534D01*
X69626367Y-64835101D01*
X69588674Y-64846535D01*
X69543339Y-64851000D01*
X68706661Y-64851000D01*
X68661326Y-64846535D01*
X68623633Y-64835101D01*
X68588897Y-64816534D01*
X68558452Y-64791548D01*
X68533466Y-64761103D01*
X68514899Y-64726367D01*
X68503465Y-64688674D01*
X68499000Y-64643339D01*
X68499000Y-63556661D01*
X68503465Y-63511326D01*
X68514899Y-63473633D01*
X68533466Y-63438897D01*
X68558452Y-63408452D01*
X68588897Y-63383466D01*
X68623633Y-63364899D01*
X68661326Y-63353465D01*
X68706661Y-63349000D01*
X69543339Y-63349000D01*
X69588674Y-63353465D01*
G37*
G36*
X67538674Y-63353465D02*
G01*
X67576367Y-63364899D01*
X67611103Y-63383466D01*
X67641548Y-63408452D01*
X67666534Y-63438897D01*
X67685101Y-63473633D01*
X67696535Y-63511326D01*
X67701000Y-63556661D01*
X67701000Y-64643339D01*
X67696535Y-64688674D01*
X67685101Y-64726367D01*
X67666534Y-64761103D01*
X67641548Y-64791548D01*
X67611103Y-64816534D01*
X67576367Y-64835101D01*
X67538674Y-64846535D01*
X67493339Y-64851000D01*
X66656661Y-64851000D01*
X66611326Y-64846535D01*
X66573633Y-64835101D01*
X66538897Y-64816534D01*
X66508452Y-64791548D01*
X66483466Y-64761103D01*
X66464899Y-64726367D01*
X66453465Y-64688674D01*
X66449000Y-64643339D01*
X66449000Y-63556661D01*
X66453465Y-63511326D01*
X66464899Y-63473633D01*
X66483466Y-63438897D01*
X66508452Y-63408452D01*
X66538897Y-63383466D01*
X66573633Y-63364899D01*
X66611326Y-63353465D01*
X66656661Y-63349000D01*
X67493339Y-63349000D01*
X67538674Y-63353465D01*
G37*
G36*
X99288674Y-63278465D02*
G01*
X99326367Y-63289899D01*
X99361103Y-63308466D01*
X99391548Y-63333452D01*
X99416534Y-63363897D01*
X99435101Y-63398633D01*
X99446535Y-63436326D01*
X99451000Y-63481661D01*
X99451000Y-64318339D01*
X99446535Y-64363674D01*
X99435101Y-64401367D01*
X99416534Y-64436103D01*
X99391548Y-64466548D01*
X99361103Y-64491534D01*
X99326367Y-64510101D01*
X99288674Y-64521535D01*
X99243339Y-64526000D01*
X98156661Y-64526000D01*
X98111326Y-64521535D01*
X98073633Y-64510101D01*
X98038897Y-64491534D01*
X98008452Y-64466548D01*
X97983466Y-64436103D01*
X97964899Y-64401367D01*
X97953465Y-64363674D01*
X97949000Y-64318339D01*
X97949000Y-63481661D01*
X97953465Y-63436326D01*
X97964899Y-63398633D01*
X97983466Y-63363897D01*
X98008452Y-63333452D01*
X98038897Y-63308466D01*
X98073633Y-63289899D01*
X98111326Y-63278465D01*
X98156661Y-63274000D01*
X99243339Y-63274000D01*
X99288674Y-63278465D01*
G37*
G36*
X95388674Y-63203465D02*
G01*
X95426367Y-63214899D01*
X95461103Y-63233466D01*
X95491548Y-63258452D01*
X95516534Y-63288897D01*
X95535101Y-63323633D01*
X95546535Y-63361326D01*
X95551000Y-63406661D01*
X95551000Y-64243339D01*
X95546535Y-64288674D01*
X95535101Y-64326367D01*
X95516534Y-64361103D01*
X95491548Y-64391548D01*
X95461103Y-64416534D01*
X95426367Y-64435101D01*
X95388674Y-64446535D01*
X95343339Y-64451000D01*
X94256661Y-64451000D01*
X94211326Y-64446535D01*
X94173633Y-64435101D01*
X94138897Y-64416534D01*
X94108452Y-64391548D01*
X94083466Y-64361103D01*
X94064899Y-64326367D01*
X94053465Y-64288674D01*
X94049000Y-64243339D01*
X94049000Y-63406661D01*
X94053465Y-63361326D01*
X94064899Y-63323633D01*
X94083466Y-63288897D01*
X94108452Y-63258452D01*
X94138897Y-63233466D01*
X94173633Y-63214899D01*
X94211326Y-63203465D01*
X94256661Y-63199000D01*
X95343339Y-63199000D01*
X95388674Y-63203465D01*
G37*
G36*
X61188674Y-62928465D02*
G01*
X61226367Y-62939899D01*
X61261103Y-62958466D01*
X61291548Y-62983452D01*
X61316534Y-63013897D01*
X61335101Y-63048633D01*
X61346535Y-63086326D01*
X61351000Y-63131661D01*
X61351000Y-63968339D01*
X61346535Y-64013674D01*
X61335101Y-64051367D01*
X61316534Y-64086103D01*
X61291548Y-64116548D01*
X61261103Y-64141534D01*
X61226367Y-64160101D01*
X61188674Y-64171535D01*
X61143339Y-64176000D01*
X60056661Y-64176000D01*
X60011326Y-64171535D01*
X59973633Y-64160101D01*
X59938897Y-64141534D01*
X59908452Y-64116548D01*
X59883466Y-64086103D01*
X59864899Y-64051367D01*
X59853465Y-64013674D01*
X59849000Y-63968339D01*
X59849000Y-63131661D01*
X59853465Y-63086326D01*
X59864899Y-63048633D01*
X59883466Y-63013897D01*
X59908452Y-62983452D01*
X59938897Y-62958466D01*
X59973633Y-62939899D01*
X60011326Y-62928465D01*
X60056661Y-62924000D01*
X61143339Y-62924000D01*
X61188674Y-62928465D01*
G37*
G36*
X56201000Y-63901000D02*
G01*
X54099000Y-63901000D01*
X54099000Y-62299000D01*
X56201000Y-62299000D01*
X56201000Y-63901000D01*
G37*
G36*
X84851000Y-63051000D02*
G01*
X83149000Y-63051000D01*
X83149000Y-61349000D01*
X84851000Y-61349000D01*
X84851000Y-63051000D01*
G37*
G36*
X87351000Y-63051000D02*
G01*
X85649000Y-63051000D01*
X85649000Y-61349000D01*
X87351000Y-61349000D01*
X87351000Y-63051000D01*
G37*
G36*
X82351000Y-63051000D02*
G01*
X80649000Y-63051000D01*
X80649000Y-61349000D01*
X82351000Y-61349000D01*
X82351000Y-63051000D01*
G37*
G36*
X99288674Y-61228465D02*
G01*
X99326367Y-61239899D01*
X99361103Y-61258466D01*
X99391548Y-61283452D01*
X99416534Y-61313897D01*
X99435101Y-61348633D01*
X99446535Y-61386326D01*
X99451000Y-61431661D01*
X99451000Y-62268339D01*
X99446535Y-62313674D01*
X99435101Y-62351367D01*
X99416534Y-62386103D01*
X99391548Y-62416548D01*
X99361103Y-62441534D01*
X99326367Y-62460101D01*
X99288674Y-62471535D01*
X99243339Y-62476000D01*
X98156661Y-62476000D01*
X98111326Y-62471535D01*
X98073633Y-62460101D01*
X98038897Y-62441534D01*
X98008452Y-62416548D01*
X97983466Y-62386103D01*
X97964899Y-62351367D01*
X97953465Y-62313674D01*
X97949000Y-62268339D01*
X97949000Y-61431661D01*
X97953465Y-61386326D01*
X97964899Y-61348633D01*
X97983466Y-61313897D01*
X98008452Y-61283452D01*
X98038897Y-61258466D01*
X98073633Y-61239899D01*
X98111326Y-61228465D01*
X98156661Y-61224000D01*
X99243339Y-61224000D01*
X99288674Y-61228465D01*
G37*
G36*
X95388674Y-61153465D02*
G01*
X95426367Y-61164899D01*
X95461103Y-61183466D01*
X95491548Y-61208452D01*
X95516534Y-61238897D01*
X95535101Y-61273633D01*
X95546535Y-61311326D01*
X95551000Y-61356661D01*
X95551000Y-62193339D01*
X95546535Y-62238674D01*
X95535101Y-62276367D01*
X95516534Y-62311103D01*
X95491548Y-62341548D01*
X95461103Y-62366534D01*
X95426367Y-62385101D01*
X95388674Y-62396535D01*
X95343339Y-62401000D01*
X94256661Y-62401000D01*
X94211326Y-62396535D01*
X94173633Y-62385101D01*
X94138897Y-62366534D01*
X94108452Y-62341548D01*
X94083466Y-62311103D01*
X94064899Y-62276367D01*
X94053465Y-62238674D01*
X94049000Y-62193339D01*
X94049000Y-61356661D01*
X94053465Y-61311326D01*
X94064899Y-61273633D01*
X94083466Y-61238897D01*
X94108452Y-61208452D01*
X94138897Y-61183466D01*
X94173633Y-61164899D01*
X94211326Y-61153465D01*
X94256661Y-61149000D01*
X95343339Y-61149000D01*
X95388674Y-61153465D01*
G37*
G36*
X69388674Y-59453465D02*
G01*
X69426367Y-59464899D01*
X69461103Y-59483466D01*
X69491548Y-59508452D01*
X69516534Y-59538897D01*
X69535101Y-59573633D01*
X69546535Y-59611326D01*
X69551000Y-59656661D01*
X69551000Y-60743339D01*
X69546535Y-60788674D01*
X69535101Y-60826367D01*
X69516534Y-60861103D01*
X69491548Y-60891548D01*
X69461103Y-60916534D01*
X69426367Y-60935101D01*
X69388674Y-60946535D01*
X69343339Y-60951000D01*
X68506661Y-60951000D01*
X68461326Y-60946535D01*
X68423633Y-60935101D01*
X68388897Y-60916534D01*
X68358452Y-60891548D01*
X68333466Y-60861103D01*
X68314899Y-60826367D01*
X68303465Y-60788674D01*
X68299000Y-60743339D01*
X68299000Y-59656661D01*
X68303465Y-59611326D01*
X68314899Y-59573633D01*
X68333466Y-59538897D01*
X68358452Y-59508452D01*
X68388897Y-59483466D01*
X68423633Y-59464899D01*
X68461326Y-59453465D01*
X68506661Y-59449000D01*
X69343339Y-59449000D01*
X69388674Y-59453465D01*
G37*
G36*
X71938674Y-59453465D02*
G01*
X71976367Y-59464899D01*
X72011103Y-59483466D01*
X72041548Y-59508452D01*
X72066534Y-59538897D01*
X72085101Y-59573633D01*
X72096535Y-59611326D01*
X72101000Y-59656661D01*
X72101000Y-60743339D01*
X72096535Y-60788674D01*
X72085101Y-60826367D01*
X72066534Y-60861103D01*
X72041548Y-60891548D01*
X72011103Y-60916534D01*
X71976367Y-60935101D01*
X71938674Y-60946535D01*
X71893339Y-60951000D01*
X71056661Y-60951000D01*
X71011326Y-60946535D01*
X70973633Y-60935101D01*
X70938897Y-60916534D01*
X70908452Y-60891548D01*
X70883466Y-60861103D01*
X70864899Y-60826367D01*
X70853465Y-60788674D01*
X70849000Y-60743339D01*
X70849000Y-59656661D01*
X70853465Y-59611326D01*
X70864899Y-59573633D01*
X70883466Y-59538897D01*
X70908452Y-59508452D01*
X70938897Y-59483466D01*
X70973633Y-59464899D01*
X71011326Y-59453465D01*
X71056661Y-59449000D01*
X71893339Y-59449000D01*
X71938674Y-59453465D01*
G37*
G36*
X67338674Y-59453465D02*
G01*
X67376367Y-59464899D01*
X67411103Y-59483466D01*
X67441548Y-59508452D01*
X67466534Y-59538897D01*
X67485101Y-59573633D01*
X67496535Y-59611326D01*
X67501000Y-59656661D01*
X67501000Y-60743339D01*
X67496535Y-60788674D01*
X67485101Y-60826367D01*
X67466534Y-60861103D01*
X67441548Y-60891548D01*
X67411103Y-60916534D01*
X67376367Y-60935101D01*
X67338674Y-60946535D01*
X67293339Y-60951000D01*
X66456661Y-60951000D01*
X66411326Y-60946535D01*
X66373633Y-60935101D01*
X66338897Y-60916534D01*
X66308452Y-60891548D01*
X66283466Y-60861103D01*
X66264899Y-60826367D01*
X66253465Y-60788674D01*
X66249000Y-60743339D01*
X66249000Y-59656661D01*
X66253465Y-59611326D01*
X66264899Y-59573633D01*
X66283466Y-59538897D01*
X66308452Y-59508452D01*
X66338897Y-59483466D01*
X66373633Y-59464899D01*
X66411326Y-59453465D01*
X66456661Y-59449000D01*
X67293339Y-59449000D01*
X67338674Y-59453465D01*
G37*
G36*
X73988674Y-59453465D02*
G01*
X74026367Y-59464899D01*
X74061103Y-59483466D01*
X74091548Y-59508452D01*
X74116534Y-59538897D01*
X74135101Y-59573633D01*
X74146535Y-59611326D01*
X74151000Y-59656661D01*
X74151000Y-60743339D01*
X74146535Y-60788674D01*
X74135101Y-60826367D01*
X74116534Y-60861103D01*
X74091548Y-60891548D01*
X74061103Y-60916534D01*
X74026367Y-60935101D01*
X73988674Y-60946535D01*
X73943339Y-60951000D01*
X73106661Y-60951000D01*
X73061326Y-60946535D01*
X73023633Y-60935101D01*
X72988897Y-60916534D01*
X72958452Y-60891548D01*
X72933466Y-60861103D01*
X72914899Y-60826367D01*
X72903465Y-60788674D01*
X72899000Y-60743339D01*
X72899000Y-59656661D01*
X72903465Y-59611326D01*
X72914899Y-59573633D01*
X72933466Y-59538897D01*
X72958452Y-59508452D01*
X72988897Y-59483466D01*
X73023633Y-59464899D01*
X73061326Y-59453465D01*
X73106661Y-59449000D01*
X73943339Y-59449000D01*
X73988674Y-59453465D01*
G37*
G36*
X87351000Y-60551000D02*
G01*
X85649000Y-60551000D01*
X85649000Y-58849000D01*
X87351000Y-58849000D01*
X87351000Y-60551000D01*
G37*
G36*
X84851000Y-60551000D02*
G01*
X83149000Y-60551000D01*
X83149000Y-58849000D01*
X84851000Y-58849000D01*
X84851000Y-60551000D01*
G37*
G36*
X82351000Y-60551000D02*
G01*
X80649000Y-60551000D01*
X80649000Y-58849000D01*
X82351000Y-58849000D01*
X82351000Y-60551000D01*
G37*
G36*
X97213674Y-58853465D02*
G01*
X97251367Y-58864899D01*
X97286103Y-58883466D01*
X97316548Y-58908452D01*
X97341534Y-58938897D01*
X97360101Y-58973633D01*
X97371535Y-59011326D01*
X97376000Y-59056661D01*
X97376000Y-60143339D01*
X97371535Y-60188674D01*
X97360101Y-60226367D01*
X97341534Y-60261103D01*
X97316548Y-60291548D01*
X97286103Y-60316534D01*
X97251367Y-60335101D01*
X97213674Y-60346535D01*
X97168339Y-60351000D01*
X96331661Y-60351000D01*
X96286326Y-60346535D01*
X96248633Y-60335101D01*
X96213897Y-60316534D01*
X96183452Y-60291548D01*
X96158466Y-60261103D01*
X96139899Y-60226367D01*
X96128465Y-60188674D01*
X96124000Y-60143339D01*
X96124000Y-59056661D01*
X96128465Y-59011326D01*
X96139899Y-58973633D01*
X96158466Y-58938897D01*
X96183452Y-58908452D01*
X96213897Y-58883466D01*
X96248633Y-58864899D01*
X96286326Y-58853465D01*
X96331661Y-58849000D01*
X97168339Y-58849000D01*
X97213674Y-58853465D01*
G37*
G36*
X95163674Y-58853465D02*
G01*
X95201367Y-58864899D01*
X95236103Y-58883466D01*
X95266548Y-58908452D01*
X95291534Y-58938897D01*
X95310101Y-58973633D01*
X95321535Y-59011326D01*
X95326000Y-59056661D01*
X95326000Y-60143339D01*
X95321535Y-60188674D01*
X95310101Y-60226367D01*
X95291534Y-60261103D01*
X95266548Y-60291548D01*
X95236103Y-60316534D01*
X95201367Y-60335101D01*
X95163674Y-60346535D01*
X95118339Y-60351000D01*
X94281661Y-60351000D01*
X94236326Y-60346535D01*
X94198633Y-60335101D01*
X94163897Y-60316534D01*
X94133452Y-60291548D01*
X94108466Y-60261103D01*
X94089899Y-60226367D01*
X94078465Y-60188674D01*
X94074000Y-60143339D01*
X94074000Y-59056661D01*
X94078465Y-59011326D01*
X94089899Y-58973633D01*
X94108466Y-58938897D01*
X94133452Y-58908452D01*
X94163897Y-58883466D01*
X94198633Y-58864899D01*
X94236326Y-58853465D01*
X94281661Y-58849000D01*
X95118339Y-58849000D01*
X95163674Y-58853465D01*
G37*
G36*
X54505997Y-55053051D02*
G01*
X54539652Y-55063261D01*
X54570665Y-55079838D01*
X54597851Y-55102149D01*
X54620162Y-55129335D01*
X54636739Y-55160348D01*
X54646949Y-55194003D01*
X54651000Y-55235138D01*
X54651000Y-57964862D01*
X54646949Y-58005997D01*
X54636739Y-58039652D01*
X54620162Y-58070665D01*
X54597851Y-58097851D01*
X54570665Y-58120162D01*
X54539652Y-58136739D01*
X54505997Y-58146949D01*
X54464862Y-58151000D01*
X53135138Y-58151000D01*
X53094003Y-58146949D01*
X53060348Y-58136739D01*
X53029335Y-58120162D01*
X53002149Y-58097851D01*
X52979838Y-58070665D01*
X52963261Y-58039652D01*
X52953051Y-58005997D01*
X52949000Y-57964862D01*
X52949000Y-55235138D01*
X52953051Y-55194003D01*
X52963261Y-55160348D01*
X52979838Y-55129335D01*
X53002149Y-55102149D01*
X53029335Y-55079838D01*
X53060348Y-55063261D01*
X53094003Y-55053051D01*
X53135138Y-55049000D01*
X54464862Y-55049000D01*
X54505997Y-55053051D01*
G37*
G36*
X97751000Y-57751000D02*
G01*
X96649000Y-57751000D01*
X96649000Y-56649000D01*
X97751000Y-56649000D01*
X97751000Y-57751000D01*
G37*
G36*
X88701000Y-57451000D02*
G01*
X79299000Y-57451000D01*
X79299000Y-56549000D01*
X88701000Y-56549000D01*
X88701000Y-57451000D01*
G37*
G36*
X46238674Y-55353465D02*
G01*
X46276367Y-55364899D01*
X46311103Y-55383466D01*
X46341548Y-55408452D01*
X46366534Y-55438897D01*
X46385101Y-55473633D01*
X46396535Y-55511326D01*
X46401000Y-55556661D01*
X46401000Y-56643339D01*
X46396535Y-56688674D01*
X46385101Y-56726367D01*
X46366534Y-56761103D01*
X46341548Y-56791548D01*
X46311103Y-56816534D01*
X46276367Y-56835101D01*
X46238674Y-56846535D01*
X46193339Y-56851000D01*
X45356661Y-56851000D01*
X45311326Y-56846535D01*
X45273633Y-56835101D01*
X45238897Y-56816534D01*
X45208452Y-56791548D01*
X45183466Y-56761103D01*
X45164899Y-56726367D01*
X45153465Y-56688674D01*
X45149000Y-56643339D01*
X45149000Y-55556661D01*
X45153465Y-55511326D01*
X45164899Y-55473633D01*
X45183466Y-55438897D01*
X45208452Y-55408452D01*
X45238897Y-55383466D01*
X45273633Y-55364899D01*
X45311326Y-55353465D01*
X45356661Y-55349000D01*
X46193339Y-55349000D01*
X46238674Y-55353465D01*
G37*
G36*
X99251000Y-56851000D02*
G01*
X98099000Y-56851000D01*
X98099000Y-54549000D01*
X99251000Y-54549000D01*
X99251000Y-56851000D01*
G37*
G36*
X96301000Y-56851000D02*
G01*
X95149000Y-56851000D01*
X95149000Y-54549000D01*
X96301000Y-54549000D01*
X96301000Y-56851000D01*
G37*
G36*
X48288674Y-55353465D02*
G01*
X48326367Y-55364899D01*
X48361103Y-55383466D01*
X48391548Y-55408452D01*
X48416534Y-55438897D01*
X48435101Y-55473633D01*
X48446535Y-55511326D01*
X48451000Y-55556661D01*
X48451000Y-56643339D01*
X48446535Y-56688674D01*
X48435101Y-56726367D01*
X48416534Y-56761103D01*
X48391548Y-56791548D01*
X48361103Y-56816534D01*
X48326367Y-56835101D01*
X48288674Y-56846535D01*
X48243339Y-56851000D01*
X47406661Y-56851000D01*
X47361326Y-56846535D01*
X47323633Y-56835101D01*
X47288897Y-56816534D01*
X47258452Y-56791548D01*
X47233466Y-56761103D01*
X47214899Y-56726367D01*
X47203465Y-56688674D01*
X47199000Y-56643339D01*
X47199000Y-55556661D01*
X47203465Y-55511326D01*
X47214899Y-55473633D01*
X47233466Y-55438897D01*
X47258452Y-55408452D01*
X47288897Y-55383466D01*
X47323633Y-55364899D01*
X47361326Y-55353465D01*
X47406661Y-55349000D01*
X48243339Y-55349000D01*
X48288674Y-55353465D01*
G37*
G36*
X88701000Y-55701000D02*
G01*
X79299000Y-55701000D01*
X79299000Y-54799000D01*
X88701000Y-54799000D01*
X88701000Y-55701000D01*
G37*
G36*
X97751000Y-54751000D02*
G01*
X96649000Y-54751000D01*
X96649000Y-53649000D01*
X97751000Y-53649000D01*
X97751000Y-54751000D01*
G37*
G36*
X77413674Y-52653465D02*
G01*
X77451367Y-52664899D01*
X77486103Y-52683466D01*
X77516548Y-52708452D01*
X77541534Y-52738897D01*
X77560101Y-52773633D01*
X77571535Y-52811326D01*
X77576000Y-52856661D01*
X77576000Y-53943339D01*
X77571535Y-53988674D01*
X77560101Y-54026367D01*
X77541534Y-54061103D01*
X77516548Y-54091548D01*
X77486103Y-54116534D01*
X77451367Y-54135101D01*
X77413674Y-54146535D01*
X77368339Y-54151000D01*
X76531661Y-54151000D01*
X76486326Y-54146535D01*
X76448633Y-54135101D01*
X76413897Y-54116534D01*
X76383452Y-54091548D01*
X76358466Y-54061103D01*
X76339899Y-54026367D01*
X76328465Y-53988674D01*
X76324000Y-53943339D01*
X76324000Y-52856661D01*
X76328465Y-52811326D01*
X76339899Y-52773633D01*
X76358466Y-52738897D01*
X76383452Y-52708452D01*
X76413897Y-52683466D01*
X76448633Y-52664899D01*
X76486326Y-52653465D01*
X76531661Y-52649000D01*
X77368339Y-52649000D01*
X77413674Y-52653465D01*
G37*
G36*
X75363674Y-52653465D02*
G01*
X75401367Y-52664899D01*
X75436103Y-52683466D01*
X75466548Y-52708452D01*
X75491534Y-52738897D01*
X75510101Y-52773633D01*
X75521535Y-52811326D01*
X75526000Y-52856661D01*
X75526000Y-53943339D01*
X75521535Y-53988674D01*
X75510101Y-54026367D01*
X75491534Y-54061103D01*
X75466548Y-54091548D01*
X75436103Y-54116534D01*
X75401367Y-54135101D01*
X75363674Y-54146535D01*
X75318339Y-54151000D01*
X74481661Y-54151000D01*
X74436326Y-54146535D01*
X74398633Y-54135101D01*
X74363897Y-54116534D01*
X74333452Y-54091548D01*
X74308466Y-54061103D01*
X74289899Y-54026367D01*
X74278465Y-53988674D01*
X74274000Y-53943339D01*
X74274000Y-52856661D01*
X74278465Y-52811326D01*
X74289899Y-52773633D01*
X74308466Y-52738897D01*
X74333452Y-52708452D01*
X74363897Y-52683466D01*
X74398633Y-52664899D01*
X74436326Y-52653465D01*
X74481661Y-52649000D01*
X75318339Y-52649000D01*
X75363674Y-52653465D01*
G37*
G36*
X54505997Y-50653051D02*
G01*
X54539652Y-50663261D01*
X54570665Y-50679838D01*
X54597851Y-50702149D01*
X54620162Y-50729335D01*
X54636739Y-50760348D01*
X54646949Y-50794003D01*
X54651000Y-50835138D01*
X54651000Y-53564862D01*
X54646949Y-53605997D01*
X54636739Y-53639652D01*
X54620162Y-53670665D01*
X54597851Y-53697851D01*
X54570665Y-53720162D01*
X54539652Y-53736739D01*
X54505997Y-53746949D01*
X54464862Y-53751000D01*
X53135138Y-53751000D01*
X53094003Y-53746949D01*
X53060348Y-53736739D01*
X53029335Y-53720162D01*
X53002149Y-53697851D01*
X52979838Y-53670665D01*
X52963261Y-53639652D01*
X52953051Y-53605997D01*
X52949000Y-53564862D01*
X52949000Y-50835138D01*
X52953051Y-50794003D01*
X52963261Y-50760348D01*
X52979838Y-50729335D01*
X53002149Y-50702149D01*
X53029335Y-50679838D01*
X53060348Y-50663261D01*
X53094003Y-50653051D01*
X53135138Y-50649000D01*
X54464862Y-50649000D01*
X54505997Y-50653051D01*
G37*
G36*
X92663674Y-51753465D02*
G01*
X92701367Y-51764899D01*
X92736103Y-51783466D01*
X92766548Y-51808452D01*
X92791534Y-51838897D01*
X92810101Y-51873633D01*
X92821535Y-51911326D01*
X92826000Y-51956661D01*
X92826000Y-53043339D01*
X92821535Y-53088674D01*
X92810101Y-53126367D01*
X92791534Y-53161103D01*
X92766548Y-53191548D01*
X92736103Y-53216534D01*
X92701367Y-53235101D01*
X92663674Y-53246535D01*
X92618339Y-53251000D01*
X91781661Y-53251000D01*
X91736326Y-53246535D01*
X91698633Y-53235101D01*
X91663897Y-53216534D01*
X91633452Y-53191548D01*
X91608466Y-53161103D01*
X91589899Y-53126367D01*
X91578465Y-53088674D01*
X91574000Y-53043339D01*
X91574000Y-51956661D01*
X91578465Y-51911326D01*
X91589899Y-51873633D01*
X91608466Y-51838897D01*
X91633452Y-51808452D01*
X91663897Y-51783466D01*
X91698633Y-51764899D01*
X91736326Y-51753465D01*
X91781661Y-51749000D01*
X92618339Y-51749000D01*
X92663674Y-51753465D01*
G37*
G36*
X90613674Y-51753465D02*
G01*
X90651367Y-51764899D01*
X90686103Y-51783466D01*
X90716548Y-51808452D01*
X90741534Y-51838897D01*
X90760101Y-51873633D01*
X90771535Y-51911326D01*
X90776000Y-51956661D01*
X90776000Y-53043339D01*
X90771535Y-53088674D01*
X90760101Y-53126367D01*
X90741534Y-53161103D01*
X90716548Y-53191548D01*
X90686103Y-53216534D01*
X90651367Y-53235101D01*
X90613674Y-53246535D01*
X90568339Y-53251000D01*
X89731661Y-53251000D01*
X89686326Y-53246535D01*
X89648633Y-53235101D01*
X89613897Y-53216534D01*
X89583452Y-53191548D01*
X89558466Y-53161103D01*
X89539899Y-53126367D01*
X89528465Y-53088674D01*
X89524000Y-53043339D01*
X89524000Y-51956661D01*
X89528465Y-51911326D01*
X89539899Y-51873633D01*
X89558466Y-51838897D01*
X89583452Y-51808452D01*
X89613897Y-51783466D01*
X89648633Y-51764899D01*
X89686326Y-51753465D01*
X89731661Y-51749000D01*
X90568339Y-51749000D01*
X90613674Y-51753465D01*
G37*
G36*
X46163674Y-51453465D02*
G01*
X46201367Y-51464899D01*
X46236103Y-51483466D01*
X46266548Y-51508452D01*
X46291534Y-51538897D01*
X46310101Y-51573633D01*
X46321535Y-51611326D01*
X46326000Y-51656661D01*
X46326000Y-52743339D01*
X46321535Y-52788674D01*
X46310101Y-52826367D01*
X46291534Y-52861103D01*
X46266548Y-52891548D01*
X46236103Y-52916534D01*
X46201367Y-52935101D01*
X46163674Y-52946535D01*
X46118339Y-52951000D01*
X45281661Y-52951000D01*
X45236326Y-52946535D01*
X45198633Y-52935101D01*
X45163897Y-52916534D01*
X45133452Y-52891548D01*
X45108466Y-52861103D01*
X45089899Y-52826367D01*
X45078465Y-52788674D01*
X45074000Y-52743339D01*
X45074000Y-51656661D01*
X45078465Y-51611326D01*
X45089899Y-51573633D01*
X45108466Y-51538897D01*
X45133452Y-51508452D01*
X45163897Y-51483466D01*
X45198633Y-51464899D01*
X45236326Y-51453465D01*
X45281661Y-51449000D01*
X46118339Y-51449000D01*
X46163674Y-51453465D01*
G37*
G36*
X48213674Y-51453465D02*
G01*
X48251367Y-51464899D01*
X48286103Y-51483466D01*
X48316548Y-51508452D01*
X48341534Y-51538897D01*
X48360101Y-51573633D01*
X48371535Y-51611326D01*
X48376000Y-51656661D01*
X48376000Y-52743339D01*
X48371535Y-52788674D01*
X48360101Y-52826367D01*
X48341534Y-52861103D01*
X48316548Y-52891548D01*
X48286103Y-52916534D01*
X48251367Y-52935101D01*
X48213674Y-52946535D01*
X48168339Y-52951000D01*
X47331661Y-52951000D01*
X47286326Y-52946535D01*
X47248633Y-52935101D01*
X47213897Y-52916534D01*
X47183452Y-52891548D01*
X47158466Y-52861103D01*
X47139899Y-52826367D01*
X47128465Y-52788674D01*
X47124000Y-52743339D01*
X47124000Y-51656661D01*
X47128465Y-51611326D01*
X47139899Y-51573633D01*
X47158466Y-51538897D01*
X47183452Y-51508452D01*
X47213897Y-51483466D01*
X47248633Y-51464899D01*
X47286326Y-51453465D01*
X47331661Y-51449000D01*
X48168339Y-51449000D01*
X48213674Y-51453465D01*
G37*
G36*
X79351000Y-50451000D02*
G01*
X77699000Y-50451000D01*
X77699000Y-49049000D01*
X79351000Y-49049000D01*
X79351000Y-50451000D01*
G37*
G36*
X87301000Y-50451000D02*
G01*
X85649000Y-50451000D01*
X85649000Y-49049000D01*
X87301000Y-49049000D01*
X87301000Y-50451000D01*
G37*
G36*
X98188674Y-49078465D02*
G01*
X98226367Y-49089899D01*
X98261103Y-49108466D01*
X98291548Y-49133452D01*
X98316534Y-49163897D01*
X98335101Y-49198633D01*
X98346535Y-49236326D01*
X98351000Y-49281661D01*
X98351000Y-50118339D01*
X98346535Y-50163674D01*
X98335101Y-50201367D01*
X98316534Y-50236103D01*
X98291548Y-50266548D01*
X98261103Y-50291534D01*
X98226367Y-50310101D01*
X98188674Y-50321535D01*
X98143339Y-50326000D01*
X97056661Y-50326000D01*
X97011326Y-50321535D01*
X96973633Y-50310101D01*
X96938897Y-50291534D01*
X96908452Y-50266548D01*
X96883466Y-50236103D01*
X96864899Y-50201367D01*
X96853465Y-50163674D01*
X96849000Y-50118339D01*
X96849000Y-49281661D01*
X96853465Y-49236326D01*
X96864899Y-49198633D01*
X96883466Y-49163897D01*
X96908452Y-49133452D01*
X96938897Y-49108466D01*
X96973633Y-49089899D01*
X97011326Y-49078465D01*
X97056661Y-49074000D01*
X98143339Y-49074000D01*
X98188674Y-49078465D01*
G37*
G36*
X98188674Y-47028465D02*
G01*
X98226367Y-47039899D01*
X98261103Y-47058466D01*
X98291548Y-47083452D01*
X98316534Y-47113897D01*
X98335101Y-47148633D01*
X98346535Y-47186326D01*
X98351000Y-47231661D01*
X98351000Y-48068339D01*
X98346535Y-48113674D01*
X98335101Y-48151367D01*
X98316534Y-48186103D01*
X98291548Y-48216548D01*
X98261103Y-48241534D01*
X98226367Y-48260101D01*
X98188674Y-48271535D01*
X98143339Y-48276000D01*
X97056661Y-48276000D01*
X97011326Y-48271535D01*
X96973633Y-48260101D01*
X96938897Y-48241534D01*
X96908452Y-48216548D01*
X96883466Y-48186103D01*
X96864899Y-48151367D01*
X96853465Y-48113674D01*
X96849000Y-48068339D01*
X96849000Y-47231661D01*
X96853465Y-47186326D01*
X96864899Y-47148633D01*
X96883466Y-47113897D01*
X96908452Y-47083452D01*
X96938897Y-47058466D01*
X96973633Y-47039899D01*
X97011326Y-47028465D01*
X97056661Y-47024000D01*
X98143339Y-47024000D01*
X98188674Y-47028465D01*
G37*
G36*
X90538674Y-46453465D02*
G01*
X90576367Y-46464899D01*
X90611103Y-46483466D01*
X90641548Y-46508452D01*
X90666534Y-46538897D01*
X90685101Y-46573633D01*
X90696535Y-46611326D01*
X90701000Y-46656661D01*
X90701000Y-47743339D01*
X90696535Y-47788674D01*
X90685101Y-47826367D01*
X90666534Y-47861103D01*
X90641548Y-47891548D01*
X90611103Y-47916534D01*
X90576367Y-47935101D01*
X90538674Y-47946535D01*
X90493339Y-47951000D01*
X89656661Y-47951000D01*
X89611326Y-47946535D01*
X89573633Y-47935101D01*
X89538897Y-47916534D01*
X89508452Y-47891548D01*
X89483466Y-47861103D01*
X89464899Y-47826367D01*
X89453465Y-47788674D01*
X89449000Y-47743339D01*
X89449000Y-46656661D01*
X89453465Y-46611326D01*
X89464899Y-46573633D01*
X89483466Y-46538897D01*
X89508452Y-46508452D01*
X89538897Y-46483466D01*
X89573633Y-46464899D01*
X89611326Y-46453465D01*
X89656661Y-46449000D01*
X90493339Y-46449000D01*
X90538674Y-46453465D01*
G37*
G36*
X92588674Y-46453465D02*
G01*
X92626367Y-46464899D01*
X92661103Y-46483466D01*
X92691548Y-46508452D01*
X92716534Y-46538897D01*
X92735101Y-46573633D01*
X92746535Y-46611326D01*
X92751000Y-46656661D01*
X92751000Y-47743339D01*
X92746535Y-47788674D01*
X92735101Y-47826367D01*
X92716534Y-47861103D01*
X92691548Y-47891548D01*
X92661103Y-47916534D01*
X92626367Y-47935101D01*
X92588674Y-47946535D01*
X92543339Y-47951000D01*
X91706661Y-47951000D01*
X91661326Y-47946535D01*
X91623633Y-47935101D01*
X91588897Y-47916534D01*
X91558452Y-47891548D01*
X91533466Y-47861103D01*
X91514899Y-47826367D01*
X91503465Y-47788674D01*
X91499000Y-47743339D01*
X91499000Y-46656661D01*
X91503465Y-46611326D01*
X91514899Y-46573633D01*
X91533466Y-46538897D01*
X91558452Y-46508452D01*
X91588897Y-46483466D01*
X91623633Y-46464899D01*
X91661326Y-46453465D01*
X91706661Y-46449000D01*
X92543339Y-46449000D01*
X92588674Y-46453465D01*
G37*
G36*
X68251000Y-47651000D02*
G01*
X66149000Y-47651000D01*
X66149000Y-45549000D01*
X68251000Y-45549000D01*
X68251000Y-47651000D01*
G37*
G36*
X59906564Y-45589389D02*
G01*
X60097833Y-45668615D01*
X60097835Y-45668616D01*
X60269973Y-45783635D01*
X60416365Y-45930027D01*
X60531385Y-46102167D01*
X60610611Y-46293436D01*
X60651000Y-46496484D01*
X60651000Y-46703516D01*
X60610611Y-46906564D01*
X60560118Y-47028465D01*
X60531384Y-47097835D01*
X60416365Y-47269973D01*
X60269973Y-47416365D01*
X60097835Y-47531384D01*
X60097834Y-47531385D01*
X60097833Y-47531385D01*
X59906564Y-47610611D01*
X59703516Y-47651000D01*
X59496484Y-47651000D01*
X59293436Y-47610611D01*
X59102167Y-47531385D01*
X59102166Y-47531385D01*
X59102165Y-47531384D01*
X58930027Y-47416365D01*
X58783635Y-47269973D01*
X58668616Y-47097835D01*
X58639882Y-47028465D01*
X58589389Y-46906564D01*
X58549000Y-46703516D01*
X58549000Y-46496484D01*
X58589389Y-46293436D01*
X58668615Y-46102167D01*
X58783635Y-45930027D01*
X58930027Y-45783635D01*
X59102165Y-45668616D01*
X59102167Y-45668615D01*
X59293436Y-45589389D01*
X59496484Y-45549000D01*
X59703516Y-45549000D01*
X59906564Y-45589389D01*
G37*
G36*
X87301000Y-45951000D02*
G01*
X85649000Y-45951000D01*
X85649000Y-44549000D01*
X87301000Y-44549000D01*
X87301000Y-45951000D01*
G37*
G36*
X79351000Y-45951000D02*
G01*
X77699000Y-45951000D01*
X77699000Y-44549000D01*
X79351000Y-44549000D01*
X79351000Y-45951000D01*
G37*
G36*
X99451000Y-45201000D02*
G01*
X98049000Y-45201000D01*
X98049000Y-43549000D01*
X99451000Y-43549000D01*
X99451000Y-45201000D01*
G37*
G36*
X94951000Y-45201000D02*
G01*
X93549000Y-45201000D01*
X93549000Y-43549000D01*
X94951000Y-43549000D01*
X94951000Y-45201000D01*
G37*
G36*
X52731552Y-39166331D02*
G01*
X52800083Y-39194718D01*
X52813629Y-39200329D01*
X52842872Y-39219869D01*
X52887495Y-39249685D01*
X52950315Y-39312505D01*
X52999672Y-39386373D01*
X53033669Y-39468448D01*
X53051000Y-39555579D01*
X53051000Y-39644421D01*
X53033193Y-39733946D01*
X53027490Y-39752743D01*
X53025087Y-39777129D01*
X53027488Y-39801515D01*
X53034600Y-39824964D01*
X53046151Y-39846575D01*
X53061695Y-39865518D01*
X53080637Y-39881063D01*
X53102247Y-39892615D01*
X53125696Y-39899729D01*
X53150082Y-39902132D01*
X53174468Y-39899731D01*
X53197917Y-39892619D01*
X53219528Y-39881068D01*
X53238471Y-39865524D01*
X53246711Y-39856432D01*
X53273628Y-39823634D01*
X53391797Y-39726655D01*
X53526599Y-39654602D01*
X53672880Y-39610228D01*
X53825000Y-39595246D01*
X53977121Y-39610228D01*
X54123402Y-39654602D01*
X54258204Y-39726655D01*
X54258207Y-39726657D01*
X54258208Y-39726658D01*
X54376369Y-39823631D01*
X54467573Y-39934762D01*
X54473345Y-39941796D01*
X54545398Y-40076598D01*
X54589772Y-40222879D01*
X54601000Y-40336882D01*
X54601000Y-40963118D01*
X54589772Y-41077121D01*
X54545398Y-41223402D01*
X54473345Y-41358204D01*
X54376367Y-41476372D01*
X54258206Y-41573343D01*
X54123401Y-41645398D01*
X53977120Y-41689772D01*
X53825000Y-41704754D01*
X53672879Y-41689772D01*
X53526598Y-41645398D01*
X53391796Y-41573345D01*
X53273628Y-41476367D01*
X53176657Y-41358206D01*
X53104602Y-41223401D01*
X53060228Y-41077120D01*
X53049000Y-40963117D01*
X53049000Y-40336882D01*
X53060228Y-40222879D01*
X53106402Y-40070664D01*
X53111052Y-40059439D01*
X53115833Y-40035405D01*
X53115833Y-40010901D01*
X53111054Y-39986868D01*
X53101677Y-39964229D01*
X53088064Y-39943854D01*
X53070737Y-39926527D01*
X53050363Y-39912912D01*
X53027725Y-39903534D01*
X53003691Y-39898753D01*
X52979187Y-39898753D01*
X52955154Y-39903532D01*
X52932515Y-39912909D01*
X52912140Y-39926522D01*
X52903048Y-39934762D01*
X52887496Y-39950314D01*
X52813629Y-39999671D01*
X52813628Y-39999672D01*
X52813627Y-39999672D01*
X52731552Y-40033669D01*
X52644421Y-40051000D01*
X52555579Y-40051000D01*
X52468448Y-40033669D01*
X52386373Y-39999672D01*
X52386372Y-39999672D01*
X52386371Y-39999671D01*
X52312504Y-39950314D01*
X52249686Y-39887496D01*
X52249602Y-39887370D01*
X52200328Y-39813627D01*
X52166331Y-39731552D01*
X52149000Y-39644421D01*
X52149000Y-39555579D01*
X52166331Y-39468448D01*
X52200328Y-39386373D01*
X52249685Y-39312505D01*
X52312505Y-39249685D01*
X52357128Y-39219869D01*
X52386371Y-39200329D01*
X52399917Y-39194718D01*
X52468448Y-39166331D01*
X52555579Y-39149000D01*
X52644421Y-39149000D01*
X52731552Y-39166331D01*
G37*
G36*
X47731552Y-39166331D02*
G01*
X47800083Y-39194718D01*
X47813629Y-39200329D01*
X47842872Y-39219869D01*
X47887495Y-39249685D01*
X47950315Y-39312505D01*
X47999672Y-39386373D01*
X48033669Y-39468448D01*
X48051000Y-39555579D01*
X48051000Y-39644421D01*
X48033669Y-39731552D01*
X47999672Y-39813627D01*
X47950399Y-39887370D01*
X47950314Y-39887496D01*
X47887496Y-39950314D01*
X47813629Y-39999671D01*
X47813628Y-39999672D01*
X47813627Y-39999672D01*
X47731552Y-40033669D01*
X47644421Y-40051000D01*
X47555579Y-40051000D01*
X47468448Y-40033669D01*
X47386373Y-39999672D01*
X47386372Y-39999672D01*
X47386371Y-39999671D01*
X47312504Y-39950314D01*
X47296952Y-39934762D01*
X47278010Y-39919217D01*
X47256399Y-39907666D01*
X47232950Y-39900553D01*
X47208564Y-39898151D01*
X47184178Y-39900553D01*
X47160729Y-39907666D01*
X47139118Y-39919217D01*
X47120176Y-39934762D01*
X47104631Y-39953704D01*
X47093080Y-39975315D01*
X47085967Y-39998764D01*
X47083565Y-40023150D01*
X47085967Y-40047536D01*
X47093080Y-40070985D01*
X47094796Y-40074614D01*
X47139772Y-40222879D01*
X47151000Y-40336882D01*
X47151000Y-40963118D01*
X47139772Y-41077121D01*
X47095398Y-41223402D01*
X47023345Y-41358204D01*
X46926367Y-41476372D01*
X46808206Y-41573343D01*
X46673401Y-41645398D01*
X46527120Y-41689772D01*
X46375000Y-41704754D01*
X46222879Y-41689772D01*
X46076598Y-41645398D01*
X45941796Y-41573345D01*
X45823628Y-41476367D01*
X45726657Y-41358206D01*
X45654602Y-41223401D01*
X45610228Y-41077120D01*
X45599000Y-40963117D01*
X45599000Y-40336882D01*
X45610228Y-40222879D01*
X45654601Y-40076600D01*
X45726657Y-39941794D01*
X45823632Y-39823631D01*
X45865363Y-39789383D01*
X45941793Y-39726658D01*
X45941794Y-39726657D01*
X45941797Y-39726655D01*
X46076599Y-39654602D01*
X46222880Y-39610228D01*
X46375000Y-39595246D01*
X46527121Y-39610228D01*
X46673402Y-39654602D01*
X46808204Y-39726655D01*
X46926372Y-39823633D01*
X46953288Y-39856430D01*
X46970615Y-39873757D01*
X46990989Y-39887370D01*
X47013628Y-39896748D01*
X47037661Y-39901528D01*
X47062165Y-39901528D01*
X47086199Y-39896748D01*
X47108837Y-39887370D01*
X47129212Y-39873756D01*
X47146539Y-39856429D01*
X47160152Y-39836055D01*
X47169530Y-39813416D01*
X47174310Y-39789383D01*
X47174310Y-39764879D01*
X47169530Y-39740845D01*
X47166490Y-39732351D01*
X47149000Y-39644421D01*
X47149000Y-39555579D01*
X47166331Y-39468448D01*
X47200328Y-39386373D01*
X47249685Y-39312505D01*
X47312505Y-39249685D01*
X47357128Y-39219869D01*
X47386371Y-39200329D01*
X47399917Y-39194718D01*
X47468448Y-39166331D01*
X47555579Y-39149000D01*
X47644421Y-39149000D01*
X47731552Y-39166331D01*
G37*
G36*
X51676000Y-41401000D02*
G01*
X48524000Y-41401000D01*
X48524000Y-39999000D01*
X51676000Y-39999000D01*
X51676000Y-41401000D01*
G37*
G36*
X91588674Y-39178465D02*
G01*
X91626367Y-39189899D01*
X91661103Y-39208466D01*
X91691548Y-39233452D01*
X91716534Y-39263897D01*
X91735101Y-39298633D01*
X91746535Y-39336326D01*
X91751000Y-39381661D01*
X91751000Y-40218339D01*
X91746535Y-40263674D01*
X91735101Y-40301367D01*
X91716534Y-40336103D01*
X91691548Y-40366548D01*
X91661103Y-40391534D01*
X91626367Y-40410101D01*
X91588674Y-40421535D01*
X91543339Y-40426000D01*
X90456661Y-40426000D01*
X90411326Y-40421535D01*
X90373633Y-40410101D01*
X90338897Y-40391534D01*
X90308452Y-40366548D01*
X90283466Y-40336103D01*
X90264899Y-40301367D01*
X90253465Y-40263674D01*
X90249000Y-40218339D01*
X90249000Y-39381661D01*
X90253465Y-39336326D01*
X90264899Y-39298633D01*
X90283466Y-39263897D01*
X90308452Y-39233452D01*
X90338897Y-39208466D01*
X90373633Y-39189899D01*
X90411326Y-39178465D01*
X90456661Y-39174000D01*
X91543339Y-39174000D01*
X91588674Y-39178465D01*
G37*
G36*
X91588674Y-37128465D02*
G01*
X91626367Y-37139899D01*
X91661103Y-37158466D01*
X91691548Y-37183452D01*
X91716534Y-37213897D01*
X91735101Y-37248633D01*
X91746535Y-37286326D01*
X91751000Y-37331661D01*
X91751000Y-38168339D01*
X91746535Y-38213674D01*
X91735101Y-38251367D01*
X91716534Y-38286103D01*
X91691548Y-38316548D01*
X91661103Y-38341534D01*
X91626367Y-38360101D01*
X91588674Y-38371535D01*
X91543339Y-38376000D01*
X90456661Y-38376000D01*
X90411326Y-38371535D01*
X90373633Y-38360101D01*
X90338897Y-38341534D01*
X90308452Y-38316548D01*
X90283466Y-38286103D01*
X90264899Y-38251367D01*
X90253465Y-38213674D01*
X90249000Y-38168339D01*
X90249000Y-37331661D01*
X90253465Y-37286326D01*
X90264899Y-37248633D01*
X90283466Y-37213897D01*
X90308452Y-37183452D01*
X90338897Y-37158466D01*
X90373633Y-37139899D01*
X90411326Y-37128465D01*
X90456661Y-37124000D01*
X91543339Y-37124000D01*
X91588674Y-37128465D01*
G37*
G36*
X76053512Y-36403927D02*
G01*
X76202812Y-36433624D01*
X76366784Y-36501544D01*
X76514354Y-36600147D01*
X76639853Y-36725646D01*
X76738456Y-36873216D01*
X76806376Y-37037188D01*
X76830499Y-37158466D01*
X76839904Y-37205746D01*
X76841000Y-37211259D01*
X76841000Y-37388741D01*
X76806376Y-37562812D01*
X76738456Y-37726784D01*
X76639853Y-37874354D01*
X76514354Y-37999853D01*
X76366784Y-38098456D01*
X76202812Y-38166376D01*
X76053512Y-38196073D01*
X76028742Y-38201000D01*
X75851258Y-38201000D01*
X75826488Y-38196073D01*
X75677188Y-38166376D01*
X75513216Y-38098456D01*
X75365646Y-37999853D01*
X75240147Y-37874354D01*
X75141544Y-37726784D01*
X75073624Y-37562812D01*
X75039000Y-37388741D01*
X75039000Y-37211259D01*
X75040097Y-37205746D01*
X75049501Y-37158466D01*
X75073624Y-37037188D01*
X75141544Y-36873216D01*
X75240147Y-36725646D01*
X75365646Y-36600147D01*
X75513216Y-36501544D01*
X75677188Y-36433624D01*
X75826488Y-36403927D01*
X75851258Y-36399000D01*
X76028742Y-36399000D01*
X76053512Y-36403927D01*
G37*
G36*
X74301000Y-38201000D02*
G01*
X72499000Y-38201000D01*
X72499000Y-36399000D01*
X74301000Y-36399000D01*
X74301000Y-38201000D01*
G37*
G36*
X78593512Y-36403927D02*
G01*
X78742812Y-36433624D01*
X78906784Y-36501544D01*
X79054354Y-36600147D01*
X79179853Y-36725646D01*
X79278456Y-36873216D01*
X79346376Y-37037188D01*
X79370499Y-37158466D01*
X79379904Y-37205746D01*
X79381000Y-37211259D01*
X79381000Y-37388741D01*
X79346376Y-37562812D01*
X79278456Y-37726784D01*
X79179853Y-37874354D01*
X79054354Y-37999853D01*
X78906784Y-38098456D01*
X78742812Y-38166376D01*
X78593512Y-38196073D01*
X78568742Y-38201000D01*
X78391258Y-38201000D01*
X78366488Y-38196073D01*
X78217188Y-38166376D01*
X78053216Y-38098456D01*
X77905646Y-37999853D01*
X77780147Y-37874354D01*
X77681544Y-37726784D01*
X77613624Y-37562812D01*
X77579000Y-37388741D01*
X77579000Y-37211259D01*
X77580097Y-37205746D01*
X77589501Y-37158466D01*
X77613624Y-37037188D01*
X77681544Y-36873216D01*
X77780147Y-36725646D01*
X77905646Y-36600147D01*
X78053216Y-36501544D01*
X78217188Y-36433624D01*
X78366488Y-36403927D01*
X78391258Y-36399000D01*
X78568742Y-36399000D01*
X78593512Y-36403927D01*
G37*
G36*
X81133512Y-36403927D02*
G01*
X81282812Y-36433624D01*
X81446784Y-36501544D01*
X81594354Y-36600147D01*
X81719853Y-36725646D01*
X81818456Y-36873216D01*
X81886376Y-37037188D01*
X81910499Y-37158466D01*
X81919904Y-37205746D01*
X81921000Y-37211259D01*
X81921000Y-37388741D01*
X81886376Y-37562812D01*
X81818456Y-37726784D01*
X81719853Y-37874354D01*
X81594354Y-37999853D01*
X81446784Y-38098456D01*
X81282812Y-38166376D01*
X81133512Y-38196073D01*
X81108742Y-38201000D01*
X80931258Y-38201000D01*
X80906488Y-38196073D01*
X80757188Y-38166376D01*
X80593216Y-38098456D01*
X80445646Y-37999853D01*
X80320147Y-37874354D01*
X80221544Y-37726784D01*
X80153624Y-37562812D01*
X80119000Y-37388741D01*
X80119000Y-37211259D01*
X80120097Y-37205746D01*
X80129501Y-37158466D01*
X80153624Y-37037188D01*
X80221544Y-36873216D01*
X80320147Y-36725646D01*
X80445646Y-36600147D01*
X80593216Y-36501544D01*
X80757188Y-36433624D01*
X80906488Y-36403927D01*
X80931258Y-36399000D01*
X81108742Y-36399000D01*
X81133512Y-36403927D01*
G37*
G36*
X83673512Y-36403927D02*
G01*
X83822812Y-36433624D01*
X83986784Y-36501544D01*
X84134354Y-36600147D01*
X84259853Y-36725646D01*
X84358456Y-36873216D01*
X84426376Y-37037188D01*
X84450499Y-37158466D01*
X84459904Y-37205746D01*
X84461000Y-37211259D01*
X84461000Y-37388741D01*
X84426376Y-37562812D01*
X84358456Y-37726784D01*
X84259853Y-37874354D01*
X84134354Y-37999853D01*
X83986784Y-38098456D01*
X83822812Y-38166376D01*
X83673512Y-38196073D01*
X83648742Y-38201000D01*
X83471258Y-38201000D01*
X83446488Y-38196073D01*
X83297188Y-38166376D01*
X83133216Y-38098456D01*
X82985646Y-37999853D01*
X82860147Y-37874354D01*
X82761544Y-37726784D01*
X82693624Y-37562812D01*
X82659000Y-37388741D01*
X82659000Y-37211259D01*
X82660097Y-37205746D01*
X82669501Y-37158466D01*
X82693624Y-37037188D01*
X82761544Y-36873216D01*
X82860147Y-36725646D01*
X82985646Y-36600147D01*
X83133216Y-36501544D01*
X83297188Y-36433624D01*
X83446488Y-36403927D01*
X83471258Y-36399000D01*
X83648742Y-36399000D01*
X83673512Y-36403927D01*
G37*
G36*
X86213512Y-36403927D02*
G01*
X86362812Y-36433624D01*
X86526784Y-36501544D01*
X86674354Y-36600147D01*
X86799853Y-36725646D01*
X86898456Y-36873216D01*
X86966376Y-37037188D01*
X86990499Y-37158466D01*
X86999904Y-37205746D01*
X87001000Y-37211259D01*
X87001000Y-37388741D01*
X86966376Y-37562812D01*
X86898456Y-37726784D01*
X86799853Y-37874354D01*
X86674354Y-37999853D01*
X86526784Y-38098456D01*
X86362812Y-38166376D01*
X86213512Y-38196073D01*
X86188742Y-38201000D01*
X86011258Y-38201000D01*
X85986488Y-38196073D01*
X85837188Y-38166376D01*
X85673216Y-38098456D01*
X85525646Y-37999853D01*
X85400147Y-37874354D01*
X85301544Y-37726784D01*
X85233624Y-37562812D01*
X85199000Y-37388741D01*
X85199000Y-37211259D01*
X85200097Y-37205746D01*
X85209501Y-37158466D01*
X85233624Y-37037188D01*
X85301544Y-36873216D01*
X85400147Y-36725646D01*
X85525646Y-36600147D01*
X85673216Y-36501544D01*
X85837188Y-36433624D01*
X85986488Y-36403927D01*
X86011258Y-36399000D01*
X86188742Y-36399000D01*
X86213512Y-36403927D01*
G37*
G36*
X54097715Y-35908058D02*
G01*
X54215722Y-35943855D01*
X54324468Y-36001981D01*
X54419790Y-36080210D01*
X54498019Y-36175532D01*
X54556145Y-36284278D01*
X54591942Y-36402285D01*
X54601000Y-36494254D01*
X54601000Y-37205746D01*
X54591942Y-37297715D01*
X54556145Y-37415722D01*
X54498019Y-37524468D01*
X54419790Y-37619790D01*
X54324468Y-37698019D01*
X54215721Y-37756145D01*
X54097714Y-37791942D01*
X53975000Y-37804028D01*
X53852285Y-37791942D01*
X53734278Y-37756145D01*
X53625532Y-37698019D01*
X53530210Y-37619790D01*
X53451981Y-37524468D01*
X53393855Y-37415721D01*
X53358058Y-37297714D01*
X53349000Y-37205745D01*
X53349000Y-36494254D01*
X53358058Y-36402285D01*
X53393855Y-36284279D01*
X53451982Y-36175532D01*
X53530211Y-36080210D01*
X53625533Y-36001981D01*
X53734279Y-35943855D01*
X53852286Y-35908058D01*
X53975000Y-35895972D01*
X54097715Y-35908058D01*
G37*
G36*
X46347715Y-35908058D02*
G01*
X46465722Y-35943855D01*
X46574468Y-36001981D01*
X46669790Y-36080210D01*
X46748019Y-36175532D01*
X46806145Y-36284278D01*
X46841942Y-36402285D01*
X46851000Y-36494254D01*
X46851000Y-37205746D01*
X46841942Y-37297715D01*
X46806145Y-37415722D01*
X46748019Y-37524468D01*
X46669790Y-37619790D01*
X46574468Y-37698019D01*
X46465721Y-37756145D01*
X46347714Y-37791942D01*
X46225000Y-37804028D01*
X46102285Y-37791942D01*
X45984278Y-37756145D01*
X45875532Y-37698019D01*
X45780210Y-37619790D01*
X45701981Y-37524468D01*
X45643855Y-37415721D01*
X45608058Y-37297714D01*
X45599000Y-37205745D01*
X45599000Y-36494254D01*
X45608058Y-36402285D01*
X45643855Y-36284279D01*
X45701982Y-36175532D01*
X45780211Y-36080210D01*
X45875533Y-36001981D01*
X45984279Y-35943855D01*
X46102286Y-35908058D01*
X46225000Y-35895972D01*
X46347715Y-35908058D01*
G37*
G36*
X99451000Y-37251000D02*
G01*
X98049000Y-37251000D01*
X98049000Y-35599000D01*
X99451000Y-35599000D01*
X99451000Y-37251000D01*
G37*
G36*
X94951000Y-37251000D02*
G01*
X93549000Y-37251000D01*
X93549000Y-35599000D01*
X94951000Y-35599000D01*
X94951000Y-37251000D01*
G37*
M02*
