G04 #@! TF.GenerationSoftware,KiCad,Pcbnew,5.1.5-52549c5~84~ubuntu18.04.1*
G04 #@! TF.CreationDate,2020-01-28T09:19:52+01:00*
G04 #@! TF.ProjectId,lab1,6c616231-2e6b-4696-9361-645f70636258,rev?*
G04 #@! TF.SameCoordinates,Original*
G04 #@! TF.FileFunction,Copper,L2,Bot*
G04 #@! TF.FilePolarity,Positive*
%FSLAX46Y46*%
G04 Gerber Fmt 4.6, Leading zero omitted, Abs format (unit mm)*
G04 Created by KiCad (PCBNEW 5.1.5-52549c5~84~ubuntu18.04.1) date 2020-01-28 09:19:52*
%MOMM*%
%LPD*%
G04 APERTURE LIST*
%ADD10R,1.700000X1.700000*%
%ADD11O,1.700000X1.700000*%
%ADD12C,1.500000*%
%ADD13C,0.800000*%
%ADD14C,0.400000*%
%ADD15C,0.254000*%
G04 APERTURE END LIST*
D10*
X214000000Y-40700000D03*
D11*
X216540000Y-40700000D03*
X219080000Y-40700000D03*
X221620000Y-40700000D03*
X224160000Y-40700000D03*
X226700000Y-40700000D03*
D12*
X199000000Y-47174999D03*
X199000000Y-42294999D03*
D13*
X207500000Y-63475000D03*
X207500000Y-65425000D03*
D14*
X207500000Y-65400000D02*
X207500000Y-65425000D01*
X207500000Y-63475000D02*
X207500000Y-65400000D01*
D15*
G36*
X229340001Y-76040000D02*
G01*
X190660000Y-76040000D01*
X190660000Y-72693137D01*
X193715000Y-72693137D01*
X193715000Y-72906863D01*
X193756696Y-73116483D01*
X193838485Y-73313940D01*
X193957225Y-73491647D01*
X194108353Y-73642775D01*
X194286060Y-73761515D01*
X194483517Y-73843304D01*
X194693137Y-73885000D01*
X194906863Y-73885000D01*
X195116483Y-73843304D01*
X195313940Y-73761515D01*
X195491647Y-73642775D01*
X195642775Y-73491647D01*
X195761515Y-73313940D01*
X195843304Y-73116483D01*
X195885000Y-72906863D01*
X195885000Y-72693137D01*
X195843304Y-72483517D01*
X195761515Y-72286060D01*
X195642775Y-72108353D01*
X195491647Y-71957225D01*
X195313940Y-71838485D01*
X195116483Y-71756696D01*
X194906863Y-71715000D01*
X194693137Y-71715000D01*
X194483517Y-71756696D01*
X194286060Y-71838485D01*
X194108353Y-71957225D01*
X193957225Y-72108353D01*
X193838485Y-72286060D01*
X193756696Y-72483517D01*
X193715000Y-72693137D01*
X190660000Y-72693137D01*
X190660000Y-68293137D01*
X193715000Y-68293137D01*
X193715000Y-68506863D01*
X193756696Y-68716483D01*
X193838485Y-68913940D01*
X193957225Y-69091647D01*
X194108353Y-69242775D01*
X194286060Y-69361515D01*
X194483517Y-69443304D01*
X194693137Y-69485000D01*
X194906863Y-69485000D01*
X195116483Y-69443304D01*
X195313940Y-69361515D01*
X195491647Y-69242775D01*
X195642775Y-69091647D01*
X195761515Y-68913940D01*
X195843304Y-68716483D01*
X195885000Y-68506863D01*
X195885000Y-68293137D01*
X195843304Y-68083517D01*
X195761515Y-67886060D01*
X195642775Y-67708353D01*
X195491647Y-67557225D01*
X195313940Y-67438485D01*
X195116483Y-67356696D01*
X194906863Y-67315000D01*
X194693137Y-67315000D01*
X194483517Y-67356696D01*
X194286060Y-67438485D01*
X194108353Y-67557225D01*
X193957225Y-67708353D01*
X193838485Y-67886060D01*
X193756696Y-68083517D01*
X193715000Y-68293137D01*
X190660000Y-68293137D01*
X190660000Y-63373061D01*
X206465000Y-63373061D01*
X206465000Y-63576939D01*
X206504774Y-63776898D01*
X206582795Y-63965256D01*
X206665000Y-64088285D01*
X206665001Y-64811714D01*
X206582795Y-64934744D01*
X206504774Y-65123102D01*
X206465000Y-65323061D01*
X206465000Y-65526939D01*
X206504774Y-65726898D01*
X206582795Y-65915256D01*
X206696063Y-66084774D01*
X206840226Y-66228937D01*
X207009744Y-66342205D01*
X207198102Y-66420226D01*
X207398061Y-66460000D01*
X207601939Y-66460000D01*
X207801898Y-66420226D01*
X207990256Y-66342205D01*
X208159774Y-66228937D01*
X208303937Y-66084774D01*
X208417205Y-65915256D01*
X208495226Y-65726898D01*
X208535000Y-65526939D01*
X208535000Y-65323061D01*
X208495226Y-65123102D01*
X208417205Y-64934744D01*
X208335000Y-64811715D01*
X208335000Y-64088285D01*
X208417205Y-63965256D01*
X208495226Y-63776898D01*
X208535000Y-63576939D01*
X208535000Y-63373061D01*
X208495226Y-63173102D01*
X208417205Y-62984744D01*
X208303937Y-62815226D01*
X208159774Y-62671063D01*
X207990256Y-62557795D01*
X207801898Y-62479774D01*
X207601939Y-62440000D01*
X207398061Y-62440000D01*
X207198102Y-62479774D01*
X207009744Y-62557795D01*
X206840226Y-62671063D01*
X206696063Y-62815226D01*
X206582795Y-62984744D01*
X206504774Y-63173102D01*
X206465000Y-63373061D01*
X190660000Y-63373061D01*
X190660000Y-47038588D01*
X197615000Y-47038588D01*
X197615000Y-47311410D01*
X197668225Y-47578988D01*
X197772629Y-47831042D01*
X197924201Y-48057885D01*
X198117114Y-48250798D01*
X198343957Y-48402370D01*
X198596011Y-48506774D01*
X198863589Y-48559999D01*
X199136411Y-48559999D01*
X199403989Y-48506774D01*
X199656043Y-48402370D01*
X199882886Y-48250798D01*
X200075799Y-48057885D01*
X200227371Y-47831042D01*
X200331775Y-47578988D01*
X200385000Y-47311410D01*
X200385000Y-47038588D01*
X200331775Y-46771010D01*
X200227371Y-46518956D01*
X200075799Y-46292113D01*
X199882886Y-46099200D01*
X199656043Y-45947628D01*
X199403989Y-45843224D01*
X199136411Y-45789999D01*
X198863589Y-45789999D01*
X198596011Y-45843224D01*
X198343957Y-45947628D01*
X198117114Y-46099200D01*
X197924201Y-46292113D01*
X197772629Y-46518956D01*
X197668225Y-46771010D01*
X197615000Y-47038588D01*
X190660000Y-47038588D01*
X190660000Y-42158588D01*
X197615000Y-42158588D01*
X197615000Y-42431410D01*
X197668225Y-42698988D01*
X197772629Y-42951042D01*
X197924201Y-43177885D01*
X198117114Y-43370798D01*
X198343957Y-43522370D01*
X198596011Y-43626774D01*
X198863589Y-43679999D01*
X199136411Y-43679999D01*
X199403989Y-43626774D01*
X199656043Y-43522370D01*
X199882886Y-43370798D01*
X200075799Y-43177885D01*
X200227371Y-42951042D01*
X200331775Y-42698988D01*
X200385000Y-42431410D01*
X200385000Y-42158588D01*
X200331775Y-41891010D01*
X200227371Y-41638956D01*
X200075799Y-41412113D01*
X199882886Y-41219200D01*
X199656043Y-41067628D01*
X199403989Y-40963224D01*
X199136411Y-40909999D01*
X198863589Y-40909999D01*
X198596011Y-40963224D01*
X198343957Y-41067628D01*
X198117114Y-41219200D01*
X197924201Y-41412113D01*
X197772629Y-41638956D01*
X197668225Y-41891010D01*
X197615000Y-42158588D01*
X190660000Y-42158588D01*
X190660000Y-39850000D01*
X212511928Y-39850000D01*
X212511928Y-41550000D01*
X212524188Y-41674482D01*
X212560498Y-41794180D01*
X212619463Y-41904494D01*
X212698815Y-42001185D01*
X212795506Y-42080537D01*
X212905820Y-42139502D01*
X213025518Y-42175812D01*
X213150000Y-42188072D01*
X214850000Y-42188072D01*
X214974482Y-42175812D01*
X215094180Y-42139502D01*
X215204494Y-42080537D01*
X215301185Y-42001185D01*
X215380537Y-41904494D01*
X215439502Y-41794180D01*
X215461513Y-41721620D01*
X215593368Y-41853475D01*
X215836589Y-42015990D01*
X216106842Y-42127932D01*
X216393740Y-42185000D01*
X216686260Y-42185000D01*
X216973158Y-42127932D01*
X217243411Y-42015990D01*
X217486632Y-41853475D01*
X217693475Y-41646632D01*
X217815195Y-41464466D01*
X217884822Y-41581355D01*
X218079731Y-41797588D01*
X218313080Y-41971641D01*
X218575901Y-42096825D01*
X218723110Y-42141476D01*
X218953000Y-42020155D01*
X218953000Y-40827000D01*
X218933000Y-40827000D01*
X218933000Y-40573000D01*
X218953000Y-40573000D01*
X218953000Y-39379845D01*
X219207000Y-39379845D01*
X219207000Y-40573000D01*
X219227000Y-40573000D01*
X219227000Y-40827000D01*
X219207000Y-40827000D01*
X219207000Y-42020155D01*
X219436890Y-42141476D01*
X219584099Y-42096825D01*
X219846920Y-41971641D01*
X220080269Y-41797588D01*
X220275178Y-41581355D01*
X220344805Y-41464466D01*
X220466525Y-41646632D01*
X220673368Y-41853475D01*
X220916589Y-42015990D01*
X221186842Y-42127932D01*
X221473740Y-42185000D01*
X221766260Y-42185000D01*
X222053158Y-42127932D01*
X222323411Y-42015990D01*
X222566632Y-41853475D01*
X222773475Y-41646632D01*
X222890000Y-41472240D01*
X223006525Y-41646632D01*
X223213368Y-41853475D01*
X223456589Y-42015990D01*
X223726842Y-42127932D01*
X224013740Y-42185000D01*
X224306260Y-42185000D01*
X224593158Y-42127932D01*
X224863411Y-42015990D01*
X225106632Y-41853475D01*
X225313475Y-41646632D01*
X225430000Y-41472240D01*
X225546525Y-41646632D01*
X225753368Y-41853475D01*
X225996589Y-42015990D01*
X226266842Y-42127932D01*
X226553740Y-42185000D01*
X226846260Y-42185000D01*
X227133158Y-42127932D01*
X227403411Y-42015990D01*
X227646632Y-41853475D01*
X227853475Y-41646632D01*
X228015990Y-41403411D01*
X228127932Y-41133158D01*
X228185000Y-40846260D01*
X228185000Y-40553740D01*
X228127932Y-40266842D01*
X228015990Y-39996589D01*
X227853475Y-39753368D01*
X227646632Y-39546525D01*
X227403411Y-39384010D01*
X227133158Y-39272068D01*
X226846260Y-39215000D01*
X226553740Y-39215000D01*
X226266842Y-39272068D01*
X225996589Y-39384010D01*
X225753368Y-39546525D01*
X225546525Y-39753368D01*
X225430000Y-39927760D01*
X225313475Y-39753368D01*
X225106632Y-39546525D01*
X224863411Y-39384010D01*
X224593158Y-39272068D01*
X224306260Y-39215000D01*
X224013740Y-39215000D01*
X223726842Y-39272068D01*
X223456589Y-39384010D01*
X223213368Y-39546525D01*
X223006525Y-39753368D01*
X222890000Y-39927760D01*
X222773475Y-39753368D01*
X222566632Y-39546525D01*
X222323411Y-39384010D01*
X222053158Y-39272068D01*
X221766260Y-39215000D01*
X221473740Y-39215000D01*
X221186842Y-39272068D01*
X220916589Y-39384010D01*
X220673368Y-39546525D01*
X220466525Y-39753368D01*
X220344805Y-39935534D01*
X220275178Y-39818645D01*
X220080269Y-39602412D01*
X219846920Y-39428359D01*
X219584099Y-39303175D01*
X219436890Y-39258524D01*
X219207000Y-39379845D01*
X218953000Y-39379845D01*
X218723110Y-39258524D01*
X218575901Y-39303175D01*
X218313080Y-39428359D01*
X218079731Y-39602412D01*
X217884822Y-39818645D01*
X217815195Y-39935534D01*
X217693475Y-39753368D01*
X217486632Y-39546525D01*
X217243411Y-39384010D01*
X216973158Y-39272068D01*
X216686260Y-39215000D01*
X216393740Y-39215000D01*
X216106842Y-39272068D01*
X215836589Y-39384010D01*
X215593368Y-39546525D01*
X215461513Y-39678380D01*
X215439502Y-39605820D01*
X215380537Y-39495506D01*
X215301185Y-39398815D01*
X215204494Y-39319463D01*
X215094180Y-39260498D01*
X214974482Y-39224188D01*
X214850000Y-39211928D01*
X213150000Y-39211928D01*
X213025518Y-39224188D01*
X212905820Y-39260498D01*
X212795506Y-39319463D01*
X212698815Y-39398815D01*
X212619463Y-39495506D01*
X212560498Y-39605820D01*
X212524188Y-39725518D01*
X212511928Y-39850000D01*
X190660000Y-39850000D01*
X190660000Y-37360000D01*
X229340000Y-37360000D01*
X229340001Y-76040000D01*
G37*
X229340001Y-76040000D02*
X190660000Y-76040000D01*
X190660000Y-72693137D01*
X193715000Y-72693137D01*
X193715000Y-72906863D01*
X193756696Y-73116483D01*
X193838485Y-73313940D01*
X193957225Y-73491647D01*
X194108353Y-73642775D01*
X194286060Y-73761515D01*
X194483517Y-73843304D01*
X194693137Y-73885000D01*
X194906863Y-73885000D01*
X195116483Y-73843304D01*
X195313940Y-73761515D01*
X195491647Y-73642775D01*
X195642775Y-73491647D01*
X195761515Y-73313940D01*
X195843304Y-73116483D01*
X195885000Y-72906863D01*
X195885000Y-72693137D01*
X195843304Y-72483517D01*
X195761515Y-72286060D01*
X195642775Y-72108353D01*
X195491647Y-71957225D01*
X195313940Y-71838485D01*
X195116483Y-71756696D01*
X194906863Y-71715000D01*
X194693137Y-71715000D01*
X194483517Y-71756696D01*
X194286060Y-71838485D01*
X194108353Y-71957225D01*
X193957225Y-72108353D01*
X193838485Y-72286060D01*
X193756696Y-72483517D01*
X193715000Y-72693137D01*
X190660000Y-72693137D01*
X190660000Y-68293137D01*
X193715000Y-68293137D01*
X193715000Y-68506863D01*
X193756696Y-68716483D01*
X193838485Y-68913940D01*
X193957225Y-69091647D01*
X194108353Y-69242775D01*
X194286060Y-69361515D01*
X194483517Y-69443304D01*
X194693137Y-69485000D01*
X194906863Y-69485000D01*
X195116483Y-69443304D01*
X195313940Y-69361515D01*
X195491647Y-69242775D01*
X195642775Y-69091647D01*
X195761515Y-68913940D01*
X195843304Y-68716483D01*
X195885000Y-68506863D01*
X195885000Y-68293137D01*
X195843304Y-68083517D01*
X195761515Y-67886060D01*
X195642775Y-67708353D01*
X195491647Y-67557225D01*
X195313940Y-67438485D01*
X195116483Y-67356696D01*
X194906863Y-67315000D01*
X194693137Y-67315000D01*
X194483517Y-67356696D01*
X194286060Y-67438485D01*
X194108353Y-67557225D01*
X193957225Y-67708353D01*
X193838485Y-67886060D01*
X193756696Y-68083517D01*
X193715000Y-68293137D01*
X190660000Y-68293137D01*
X190660000Y-63373061D01*
X206465000Y-63373061D01*
X206465000Y-63576939D01*
X206504774Y-63776898D01*
X206582795Y-63965256D01*
X206665000Y-64088285D01*
X206665001Y-64811714D01*
X206582795Y-64934744D01*
X206504774Y-65123102D01*
X206465000Y-65323061D01*
X206465000Y-65526939D01*
X206504774Y-65726898D01*
X206582795Y-65915256D01*
X206696063Y-66084774D01*
X206840226Y-66228937D01*
X207009744Y-66342205D01*
X207198102Y-66420226D01*
X207398061Y-66460000D01*
X207601939Y-66460000D01*
X207801898Y-66420226D01*
X207990256Y-66342205D01*
X208159774Y-66228937D01*
X208303937Y-66084774D01*
X208417205Y-65915256D01*
X208495226Y-65726898D01*
X208535000Y-65526939D01*
X208535000Y-65323061D01*
X208495226Y-65123102D01*
X208417205Y-64934744D01*
X208335000Y-64811715D01*
X208335000Y-64088285D01*
X208417205Y-63965256D01*
X208495226Y-63776898D01*
X208535000Y-63576939D01*
X208535000Y-63373061D01*
X208495226Y-63173102D01*
X208417205Y-62984744D01*
X208303937Y-62815226D01*
X208159774Y-62671063D01*
X207990256Y-62557795D01*
X207801898Y-62479774D01*
X207601939Y-62440000D01*
X207398061Y-62440000D01*
X207198102Y-62479774D01*
X207009744Y-62557795D01*
X206840226Y-62671063D01*
X206696063Y-62815226D01*
X206582795Y-62984744D01*
X206504774Y-63173102D01*
X206465000Y-63373061D01*
X190660000Y-63373061D01*
X190660000Y-47038588D01*
X197615000Y-47038588D01*
X197615000Y-47311410D01*
X197668225Y-47578988D01*
X197772629Y-47831042D01*
X197924201Y-48057885D01*
X198117114Y-48250798D01*
X198343957Y-48402370D01*
X198596011Y-48506774D01*
X198863589Y-48559999D01*
X199136411Y-48559999D01*
X199403989Y-48506774D01*
X199656043Y-48402370D01*
X199882886Y-48250798D01*
X200075799Y-48057885D01*
X200227371Y-47831042D01*
X200331775Y-47578988D01*
X200385000Y-47311410D01*
X200385000Y-47038588D01*
X200331775Y-46771010D01*
X200227371Y-46518956D01*
X200075799Y-46292113D01*
X199882886Y-46099200D01*
X199656043Y-45947628D01*
X199403989Y-45843224D01*
X199136411Y-45789999D01*
X198863589Y-45789999D01*
X198596011Y-45843224D01*
X198343957Y-45947628D01*
X198117114Y-46099200D01*
X197924201Y-46292113D01*
X197772629Y-46518956D01*
X197668225Y-46771010D01*
X197615000Y-47038588D01*
X190660000Y-47038588D01*
X190660000Y-42158588D01*
X197615000Y-42158588D01*
X197615000Y-42431410D01*
X197668225Y-42698988D01*
X197772629Y-42951042D01*
X197924201Y-43177885D01*
X198117114Y-43370798D01*
X198343957Y-43522370D01*
X198596011Y-43626774D01*
X198863589Y-43679999D01*
X199136411Y-43679999D01*
X199403989Y-43626774D01*
X199656043Y-43522370D01*
X199882886Y-43370798D01*
X200075799Y-43177885D01*
X200227371Y-42951042D01*
X200331775Y-42698988D01*
X200385000Y-42431410D01*
X200385000Y-42158588D01*
X200331775Y-41891010D01*
X200227371Y-41638956D01*
X200075799Y-41412113D01*
X199882886Y-41219200D01*
X199656043Y-41067628D01*
X199403989Y-40963224D01*
X199136411Y-40909999D01*
X198863589Y-40909999D01*
X198596011Y-40963224D01*
X198343957Y-41067628D01*
X198117114Y-41219200D01*
X197924201Y-41412113D01*
X197772629Y-41638956D01*
X197668225Y-41891010D01*
X197615000Y-42158588D01*
X190660000Y-42158588D01*
X190660000Y-39850000D01*
X212511928Y-39850000D01*
X212511928Y-41550000D01*
X212524188Y-41674482D01*
X212560498Y-41794180D01*
X212619463Y-41904494D01*
X212698815Y-42001185D01*
X212795506Y-42080537D01*
X212905820Y-42139502D01*
X213025518Y-42175812D01*
X213150000Y-42188072D01*
X214850000Y-42188072D01*
X214974482Y-42175812D01*
X215094180Y-42139502D01*
X215204494Y-42080537D01*
X215301185Y-42001185D01*
X215380537Y-41904494D01*
X215439502Y-41794180D01*
X215461513Y-41721620D01*
X215593368Y-41853475D01*
X215836589Y-42015990D01*
X216106842Y-42127932D01*
X216393740Y-42185000D01*
X216686260Y-42185000D01*
X216973158Y-42127932D01*
X217243411Y-42015990D01*
X217486632Y-41853475D01*
X217693475Y-41646632D01*
X217815195Y-41464466D01*
X217884822Y-41581355D01*
X218079731Y-41797588D01*
X218313080Y-41971641D01*
X218575901Y-42096825D01*
X218723110Y-42141476D01*
X218953000Y-42020155D01*
X218953000Y-40827000D01*
X218933000Y-40827000D01*
X218933000Y-40573000D01*
X218953000Y-40573000D01*
X218953000Y-39379845D01*
X219207000Y-39379845D01*
X219207000Y-40573000D01*
X219227000Y-40573000D01*
X219227000Y-40827000D01*
X219207000Y-40827000D01*
X219207000Y-42020155D01*
X219436890Y-42141476D01*
X219584099Y-42096825D01*
X219846920Y-41971641D01*
X220080269Y-41797588D01*
X220275178Y-41581355D01*
X220344805Y-41464466D01*
X220466525Y-41646632D01*
X220673368Y-41853475D01*
X220916589Y-42015990D01*
X221186842Y-42127932D01*
X221473740Y-42185000D01*
X221766260Y-42185000D01*
X222053158Y-42127932D01*
X222323411Y-42015990D01*
X222566632Y-41853475D01*
X222773475Y-41646632D01*
X222890000Y-41472240D01*
X223006525Y-41646632D01*
X223213368Y-41853475D01*
X223456589Y-42015990D01*
X223726842Y-42127932D01*
X224013740Y-42185000D01*
X224306260Y-42185000D01*
X224593158Y-42127932D01*
X224863411Y-42015990D01*
X225106632Y-41853475D01*
X225313475Y-41646632D01*
X225430000Y-41472240D01*
X225546525Y-41646632D01*
X225753368Y-41853475D01*
X225996589Y-42015990D01*
X226266842Y-42127932D01*
X226553740Y-42185000D01*
X226846260Y-42185000D01*
X227133158Y-42127932D01*
X227403411Y-42015990D01*
X227646632Y-41853475D01*
X227853475Y-41646632D01*
X228015990Y-41403411D01*
X228127932Y-41133158D01*
X228185000Y-40846260D01*
X228185000Y-40553740D01*
X228127932Y-40266842D01*
X228015990Y-39996589D01*
X227853475Y-39753368D01*
X227646632Y-39546525D01*
X227403411Y-39384010D01*
X227133158Y-39272068D01*
X226846260Y-39215000D01*
X226553740Y-39215000D01*
X226266842Y-39272068D01*
X225996589Y-39384010D01*
X225753368Y-39546525D01*
X225546525Y-39753368D01*
X225430000Y-39927760D01*
X225313475Y-39753368D01*
X225106632Y-39546525D01*
X224863411Y-39384010D01*
X224593158Y-39272068D01*
X224306260Y-39215000D01*
X224013740Y-39215000D01*
X223726842Y-39272068D01*
X223456589Y-39384010D01*
X223213368Y-39546525D01*
X223006525Y-39753368D01*
X222890000Y-39927760D01*
X222773475Y-39753368D01*
X222566632Y-39546525D01*
X222323411Y-39384010D01*
X222053158Y-39272068D01*
X221766260Y-39215000D01*
X221473740Y-39215000D01*
X221186842Y-39272068D01*
X220916589Y-39384010D01*
X220673368Y-39546525D01*
X220466525Y-39753368D01*
X220344805Y-39935534D01*
X220275178Y-39818645D01*
X220080269Y-39602412D01*
X219846920Y-39428359D01*
X219584099Y-39303175D01*
X219436890Y-39258524D01*
X219207000Y-39379845D01*
X218953000Y-39379845D01*
X218723110Y-39258524D01*
X218575901Y-39303175D01*
X218313080Y-39428359D01*
X218079731Y-39602412D01*
X217884822Y-39818645D01*
X217815195Y-39935534D01*
X217693475Y-39753368D01*
X217486632Y-39546525D01*
X217243411Y-39384010D01*
X216973158Y-39272068D01*
X216686260Y-39215000D01*
X216393740Y-39215000D01*
X216106842Y-39272068D01*
X215836589Y-39384010D01*
X215593368Y-39546525D01*
X215461513Y-39678380D01*
X215439502Y-39605820D01*
X215380537Y-39495506D01*
X215301185Y-39398815D01*
X215204494Y-39319463D01*
X215094180Y-39260498D01*
X214974482Y-39224188D01*
X214850000Y-39211928D01*
X213150000Y-39211928D01*
X213025518Y-39224188D01*
X212905820Y-39260498D01*
X212795506Y-39319463D01*
X212698815Y-39398815D01*
X212619463Y-39495506D01*
X212560498Y-39605820D01*
X212524188Y-39725518D01*
X212511928Y-39850000D01*
X190660000Y-39850000D01*
X190660000Y-37360000D01*
X229340000Y-37360000D01*
X229340001Y-76040000D01*
M02*
