G04 #@! TF.GenerationSoftware,KiCad,Pcbnew,5.1.5-52549c5~84~ubuntu18.04.1*
G04 #@! TF.CreationDate,2020-01-28T09:19:52+01:00*
G04 #@! TF.ProjectId,lab1,6c616231-2e6b-4696-9361-645f70636258,rev?*
G04 #@! TF.SameCoordinates,Original*
G04 #@! TF.FileFunction,Soldermask,Top*
G04 #@! TF.FilePolarity,Negative*
%FSLAX46Y46*%
G04 Gerber Fmt 4.6, Leading zero omitted, Abs format (unit mm)*
G04 Created by KiCad (PCBNEW 5.1.5-52549c5~84~ubuntu18.04.1) date 2020-01-28 09:19:52*
%MOMM*%
%LPD*%
G04 APERTURE LIST*
%ADD10C,0.100000*%
G04 APERTURE END LIST*
D10*
G36*
X198750000Y-76100000D02*
G01*
X196050000Y-76100000D01*
X196050000Y-73900000D01*
X198750000Y-73900000D01*
X198750000Y-76100000D01*
G37*
G36*
X193250000Y-76100000D02*
G01*
X190550000Y-76100000D01*
X190550000Y-73900000D01*
X193250000Y-73900000D01*
X193250000Y-76100000D01*
G37*
G36*
X209000000Y-74950000D02*
G01*
X205000000Y-74950000D01*
X205000000Y-72750000D01*
X209000000Y-72750000D01*
X209000000Y-74950000D01*
G37*
G36*
X216742673Y-72104346D02*
G01*
X216779201Y-72115427D01*
X216812861Y-72133418D01*
X216842367Y-72157633D01*
X216866582Y-72187139D01*
X216884573Y-72220799D01*
X216895654Y-72257327D01*
X216900000Y-72301454D01*
X216900000Y-74698546D01*
X216895654Y-74742673D01*
X216884573Y-74779201D01*
X216866582Y-74812861D01*
X216842367Y-74842367D01*
X216812861Y-74866582D01*
X216779201Y-74884573D01*
X216742673Y-74895654D01*
X216698546Y-74900000D01*
X215301454Y-74900000D01*
X215257327Y-74895654D01*
X215220799Y-74884573D01*
X215187139Y-74866582D01*
X215157633Y-74842367D01*
X215133418Y-74812861D01*
X215115427Y-74779201D01*
X215104346Y-74742673D01*
X215100000Y-74698546D01*
X215100000Y-72301454D01*
X215104346Y-72257327D01*
X215115427Y-72220799D01*
X215133418Y-72187139D01*
X215157633Y-72157633D01*
X215187139Y-72133418D01*
X215220799Y-72115427D01*
X215257327Y-72104346D01*
X215301454Y-72100000D01*
X216698546Y-72100000D01*
X216742673Y-72104346D01*
G37*
G36*
X222620527Y-73054874D02*
G01*
X222662214Y-73067520D01*
X222700632Y-73088055D01*
X222734308Y-73115692D01*
X222761945Y-73149368D01*
X222782480Y-73187786D01*
X222795126Y-73229473D01*
X222800000Y-73278964D01*
X222800000Y-74171036D01*
X222795126Y-74220527D01*
X222782480Y-74262214D01*
X222761945Y-74300632D01*
X222734308Y-74334308D01*
X222700632Y-74361945D01*
X222662214Y-74382480D01*
X222620527Y-74395126D01*
X222571036Y-74400000D01*
X221428964Y-74400000D01*
X221379473Y-74395126D01*
X221337786Y-74382480D01*
X221299368Y-74361945D01*
X221265692Y-74334308D01*
X221238055Y-74300632D01*
X221217520Y-74262214D01*
X221204874Y-74220527D01*
X221200000Y-74171036D01*
X221200000Y-73278964D01*
X221204874Y-73229473D01*
X221217520Y-73187786D01*
X221238055Y-73149368D01*
X221265692Y-73115692D01*
X221299368Y-73088055D01*
X221337786Y-73067520D01*
X221379473Y-73054874D01*
X221428964Y-73050000D01*
X222571036Y-73050000D01*
X222620527Y-73054874D01*
G37*
G36*
X194924770Y-72264043D02*
G01*
X194960429Y-72271136D01*
X194992228Y-72284308D01*
X195060524Y-72312597D01*
X195150602Y-72372785D01*
X195227215Y-72449398D01*
X195287403Y-72539476D01*
X195328864Y-72639572D01*
X195350000Y-72745828D01*
X195350000Y-72854172D01*
X195328864Y-72960428D01*
X195287403Y-73060524D01*
X195227215Y-73150602D01*
X195150602Y-73227215D01*
X195060524Y-73287403D01*
X195010476Y-73308133D01*
X194960429Y-73328864D01*
X194925009Y-73335909D01*
X194854172Y-73350000D01*
X194745828Y-73350000D01*
X194674991Y-73335909D01*
X194639571Y-73328864D01*
X194589524Y-73308133D01*
X194539476Y-73287403D01*
X194449398Y-73227215D01*
X194372785Y-73150602D01*
X194312597Y-73060524D01*
X194271136Y-72960428D01*
X194250000Y-72854172D01*
X194250000Y-72745828D01*
X194271136Y-72639572D01*
X194312597Y-72539476D01*
X194372785Y-72449398D01*
X194449398Y-72372785D01*
X194539476Y-72312597D01*
X194607772Y-72284308D01*
X194639571Y-72271136D01*
X194675230Y-72264043D01*
X194745828Y-72250000D01*
X194854172Y-72250000D01*
X194924770Y-72264043D01*
G37*
G36*
X198750000Y-72550000D02*
G01*
X196050000Y-72550000D01*
X196050000Y-68650000D01*
X198750000Y-68650000D01*
X198750000Y-72550000D01*
G37*
G36*
X222620527Y-71004874D02*
G01*
X222662214Y-71017520D01*
X222700632Y-71038055D01*
X222734308Y-71065692D01*
X222761945Y-71099368D01*
X222782480Y-71137786D01*
X222795126Y-71179473D01*
X222800000Y-71228964D01*
X222800000Y-72121036D01*
X222795126Y-72170527D01*
X222782480Y-72212214D01*
X222761945Y-72250632D01*
X222734308Y-72284308D01*
X222700632Y-72311945D01*
X222662214Y-72332480D01*
X222620527Y-72345126D01*
X222571036Y-72350000D01*
X221428964Y-72350000D01*
X221379473Y-72345126D01*
X221337786Y-72332480D01*
X221299368Y-72311945D01*
X221265692Y-72284308D01*
X221238055Y-72250632D01*
X221217520Y-72212214D01*
X221204874Y-72170527D01*
X221200000Y-72121036D01*
X221200000Y-71228964D01*
X221204874Y-71179473D01*
X221217520Y-71137786D01*
X221238055Y-71099368D01*
X221265692Y-71065692D01*
X221299368Y-71038055D01*
X221337786Y-71017520D01*
X221379473Y-71004874D01*
X221428964Y-71000000D01*
X222571036Y-71000000D01*
X222620527Y-71004874D01*
G37*
G36*
X216742673Y-68504346D02*
G01*
X216779201Y-68515427D01*
X216812861Y-68533418D01*
X216842367Y-68557633D01*
X216866582Y-68587139D01*
X216884573Y-68620799D01*
X216895654Y-68657327D01*
X216900000Y-68701454D01*
X216900000Y-71098546D01*
X216895654Y-71142673D01*
X216884573Y-71179201D01*
X216866582Y-71212861D01*
X216842367Y-71242367D01*
X216812861Y-71266582D01*
X216779201Y-71284573D01*
X216742673Y-71295654D01*
X216698546Y-71300000D01*
X215301454Y-71300000D01*
X215257327Y-71295654D01*
X215220799Y-71284573D01*
X215187139Y-71266582D01*
X215157633Y-71242367D01*
X215133418Y-71212861D01*
X215115427Y-71179201D01*
X215104346Y-71142673D01*
X215100000Y-71098546D01*
X215100000Y-68701454D01*
X215104346Y-68657327D01*
X215115427Y-68620799D01*
X215133418Y-68587139D01*
X215157633Y-68557633D01*
X215187139Y-68533418D01*
X215220799Y-68515427D01*
X215257327Y-68504346D01*
X215301454Y-68500000D01*
X216698546Y-68500000D01*
X216742673Y-68504346D01*
G37*
G36*
X194925009Y-67864091D02*
G01*
X194960429Y-67871136D01*
X195010476Y-67891867D01*
X195060524Y-67912597D01*
X195150602Y-67972785D01*
X195227215Y-68049398D01*
X195287403Y-68139476D01*
X195328864Y-68239572D01*
X195350000Y-68345828D01*
X195350000Y-68454172D01*
X195328864Y-68560428D01*
X195287403Y-68660524D01*
X195227215Y-68750602D01*
X195150602Y-68827215D01*
X195060524Y-68887403D01*
X195010476Y-68908133D01*
X194960429Y-68928864D01*
X194925009Y-68935909D01*
X194854172Y-68950000D01*
X194745828Y-68950000D01*
X194674991Y-68935909D01*
X194639571Y-68928864D01*
X194589524Y-68908133D01*
X194539476Y-68887403D01*
X194449398Y-68827215D01*
X194372785Y-68750602D01*
X194312597Y-68660524D01*
X194271136Y-68560428D01*
X194250000Y-68454172D01*
X194250000Y-68345828D01*
X194271136Y-68239572D01*
X194312597Y-68139476D01*
X194372785Y-68049398D01*
X194449398Y-67972785D01*
X194539476Y-67912597D01*
X194589524Y-67891867D01*
X194639571Y-67871136D01*
X194674991Y-67864091D01*
X194745828Y-67850000D01*
X194854172Y-67850000D01*
X194925009Y-67864091D01*
G37*
G36*
X205550000Y-68650000D02*
G01*
X203850000Y-68650000D01*
X203850000Y-66450000D01*
X205550000Y-66450000D01*
X205550000Y-68650000D01*
G37*
G36*
X210150000Y-68650000D02*
G01*
X208450000Y-68650000D01*
X208450000Y-66450000D01*
X210150000Y-66450000D01*
X210150000Y-68650000D01*
G37*
G36*
X207850000Y-68650000D02*
G01*
X206150000Y-68650000D01*
X206150000Y-66450000D01*
X207850000Y-66450000D01*
X207850000Y-68650000D01*
G37*
G36*
X198750000Y-67300000D02*
G01*
X196050000Y-67300000D01*
X196050000Y-65100000D01*
X198750000Y-65100000D01*
X198750000Y-67300000D01*
G37*
G36*
X193250000Y-67300000D02*
G01*
X190550000Y-67300000D01*
X190550000Y-65100000D01*
X193250000Y-65100000D01*
X193250000Y-67300000D01*
G37*
G36*
X209620527Y-64054874D02*
G01*
X209662214Y-64067520D01*
X209700632Y-64088055D01*
X209734308Y-64115692D01*
X209761945Y-64149368D01*
X209782480Y-64187786D01*
X209795126Y-64229473D01*
X209800000Y-64278964D01*
X209800000Y-65171036D01*
X209795126Y-65220527D01*
X209782480Y-65262214D01*
X209761945Y-65300632D01*
X209734308Y-65334308D01*
X209700632Y-65361945D01*
X209662214Y-65382480D01*
X209620527Y-65395126D01*
X209571036Y-65400000D01*
X208428964Y-65400000D01*
X208379473Y-65395126D01*
X208337786Y-65382480D01*
X208299368Y-65361945D01*
X208265692Y-65334308D01*
X208238055Y-65300632D01*
X208217520Y-65262214D01*
X208204874Y-65220527D01*
X208200000Y-65171036D01*
X208200000Y-64278964D01*
X208204874Y-64229473D01*
X208217520Y-64187786D01*
X208238055Y-64149368D01*
X208265692Y-64115692D01*
X208299368Y-64088055D01*
X208337786Y-64067520D01*
X208379473Y-64054874D01*
X208428964Y-64050000D01*
X209571036Y-64050000D01*
X209620527Y-64054874D01*
G37*
G36*
X206620527Y-64054874D02*
G01*
X206662214Y-64067520D01*
X206700632Y-64088055D01*
X206734308Y-64115692D01*
X206761945Y-64149368D01*
X206782480Y-64187786D01*
X206795126Y-64229473D01*
X206800000Y-64278964D01*
X206800000Y-65171036D01*
X206795126Y-65220527D01*
X206782480Y-65262214D01*
X206761945Y-65300632D01*
X206734308Y-65334308D01*
X206700632Y-65361945D01*
X206662214Y-65382480D01*
X206620527Y-65395126D01*
X206571036Y-65400000D01*
X205428964Y-65400000D01*
X205379473Y-65395126D01*
X205337786Y-65382480D01*
X205299368Y-65361945D01*
X205265692Y-65334308D01*
X205238055Y-65300632D01*
X205217520Y-65262214D01*
X205204874Y-65220527D01*
X205200000Y-65171036D01*
X205200000Y-64278964D01*
X205204874Y-64229473D01*
X205217520Y-64187786D01*
X205238055Y-64149368D01*
X205265692Y-64115692D01*
X205299368Y-64088055D01*
X205337786Y-64067520D01*
X205379473Y-64054874D01*
X205428964Y-64050000D01*
X206571036Y-64050000D01*
X206620527Y-64054874D01*
G37*
G36*
X219620527Y-63054874D02*
G01*
X219662214Y-63067520D01*
X219700632Y-63088055D01*
X219734308Y-63115692D01*
X219761945Y-63149368D01*
X219782480Y-63187786D01*
X219795126Y-63229473D01*
X219800000Y-63278964D01*
X219800000Y-64171036D01*
X219795126Y-64220527D01*
X219782480Y-64262214D01*
X219761945Y-64300632D01*
X219734308Y-64334308D01*
X219700632Y-64361945D01*
X219662214Y-64382480D01*
X219620527Y-64395126D01*
X219571036Y-64400000D01*
X218428964Y-64400000D01*
X218379473Y-64395126D01*
X218337786Y-64382480D01*
X218299368Y-64361945D01*
X218265692Y-64334308D01*
X218238055Y-64300632D01*
X218217520Y-64262214D01*
X218204874Y-64220527D01*
X218200000Y-64171036D01*
X218200000Y-63278964D01*
X218204874Y-63229473D01*
X218217520Y-63187786D01*
X218238055Y-63149368D01*
X218265692Y-63115692D01*
X218299368Y-63088055D01*
X218337786Y-63067520D01*
X218379473Y-63054874D01*
X218428964Y-63050000D01*
X219571036Y-63050000D01*
X219620527Y-63054874D01*
G37*
G36*
X223620527Y-63054874D02*
G01*
X223662214Y-63067520D01*
X223700632Y-63088055D01*
X223734308Y-63115692D01*
X223761945Y-63149368D01*
X223782480Y-63187786D01*
X223795126Y-63229473D01*
X223800000Y-63278964D01*
X223800000Y-64171036D01*
X223795126Y-64220527D01*
X223782480Y-64262214D01*
X223761945Y-64300632D01*
X223734308Y-64334308D01*
X223700632Y-64361945D01*
X223662214Y-64382480D01*
X223620527Y-64395126D01*
X223571036Y-64400000D01*
X222428964Y-64400000D01*
X222379473Y-64395126D01*
X222337786Y-64382480D01*
X222299368Y-64361945D01*
X222265692Y-64334308D01*
X222238055Y-64300632D01*
X222217520Y-64262214D01*
X222204874Y-64220527D01*
X222200000Y-64171036D01*
X222200000Y-63278964D01*
X222204874Y-63229473D01*
X222217520Y-63187786D01*
X222238055Y-63149368D01*
X222265692Y-63115692D01*
X222299368Y-63088055D01*
X222337786Y-63067520D01*
X222379473Y-63054874D01*
X222428964Y-63050000D01*
X223571036Y-63050000D01*
X223620527Y-63054874D01*
G37*
G36*
X194742673Y-61104346D02*
G01*
X194779201Y-61115427D01*
X194812861Y-61133418D01*
X194842367Y-61157633D01*
X194866582Y-61187139D01*
X194884573Y-61220799D01*
X194895654Y-61257327D01*
X194900000Y-61301454D01*
X194900000Y-63698546D01*
X194895654Y-63742673D01*
X194884573Y-63779201D01*
X194866582Y-63812861D01*
X194842367Y-63842367D01*
X194812861Y-63866582D01*
X194779201Y-63884573D01*
X194742673Y-63895654D01*
X194698546Y-63900000D01*
X193301454Y-63900000D01*
X193257327Y-63895654D01*
X193220799Y-63884573D01*
X193187139Y-63866582D01*
X193157633Y-63842367D01*
X193133418Y-63812861D01*
X193115427Y-63779201D01*
X193104346Y-63742673D01*
X193100000Y-63698546D01*
X193100000Y-61301454D01*
X193104346Y-61257327D01*
X193115427Y-61220799D01*
X193133418Y-61187139D01*
X193157633Y-61157633D01*
X193187139Y-61133418D01*
X193220799Y-61115427D01*
X193257327Y-61104346D01*
X193301454Y-61100000D01*
X194698546Y-61100000D01*
X194742673Y-61104346D01*
G37*
G36*
X209620527Y-62004874D02*
G01*
X209662214Y-62017520D01*
X209700632Y-62038055D01*
X209734308Y-62065692D01*
X209761945Y-62099368D01*
X209782480Y-62137786D01*
X209795126Y-62179473D01*
X209800000Y-62228964D01*
X209800000Y-63121036D01*
X209795126Y-63170527D01*
X209782480Y-63212214D01*
X209761945Y-63250632D01*
X209734308Y-63284308D01*
X209700632Y-63311945D01*
X209662214Y-63332480D01*
X209620527Y-63345126D01*
X209571036Y-63350000D01*
X208428964Y-63350000D01*
X208379473Y-63345126D01*
X208337786Y-63332480D01*
X208299368Y-63311945D01*
X208265692Y-63284308D01*
X208238055Y-63250632D01*
X208217520Y-63212214D01*
X208204874Y-63170527D01*
X208200000Y-63121036D01*
X208200000Y-62228964D01*
X208204874Y-62179473D01*
X208217520Y-62137786D01*
X208238055Y-62099368D01*
X208265692Y-62065692D01*
X208299368Y-62038055D01*
X208337786Y-62017520D01*
X208379473Y-62004874D01*
X208428964Y-62000000D01*
X209571036Y-62000000D01*
X209620527Y-62004874D01*
G37*
G36*
X206620527Y-62004874D02*
G01*
X206662214Y-62017520D01*
X206700632Y-62038055D01*
X206734308Y-62065692D01*
X206761945Y-62099368D01*
X206782480Y-62137786D01*
X206795126Y-62179473D01*
X206800000Y-62228964D01*
X206800000Y-63121036D01*
X206795126Y-63170527D01*
X206782480Y-63212214D01*
X206761945Y-63250632D01*
X206734308Y-63284308D01*
X206700632Y-63311945D01*
X206662214Y-63332480D01*
X206620527Y-63345126D01*
X206571036Y-63350000D01*
X205428964Y-63350000D01*
X205379473Y-63345126D01*
X205337786Y-63332480D01*
X205299368Y-63311945D01*
X205265692Y-63284308D01*
X205238055Y-63250632D01*
X205217520Y-63212214D01*
X205204874Y-63170527D01*
X205200000Y-63121036D01*
X205200000Y-62228964D01*
X205204874Y-62179473D01*
X205217520Y-62137786D01*
X205238055Y-62099368D01*
X205265692Y-62065692D01*
X205299368Y-62038055D01*
X205337786Y-62017520D01*
X205379473Y-62004874D01*
X205428964Y-62000000D01*
X206571036Y-62000000D01*
X206620527Y-62004874D01*
G37*
G36*
X200420527Y-61729874D02*
G01*
X200462214Y-61742520D01*
X200500632Y-61763055D01*
X200534308Y-61790692D01*
X200561945Y-61824368D01*
X200582480Y-61862786D01*
X200595126Y-61904473D01*
X200600000Y-61953964D01*
X200600000Y-62846036D01*
X200595126Y-62895527D01*
X200582480Y-62937214D01*
X200561945Y-62975632D01*
X200534308Y-63009308D01*
X200500632Y-63036945D01*
X200462214Y-63057480D01*
X200420527Y-63070126D01*
X200371036Y-63075000D01*
X199228964Y-63075000D01*
X199179473Y-63070126D01*
X199137786Y-63057480D01*
X199099368Y-63036945D01*
X199065692Y-63009308D01*
X199038055Y-62975632D01*
X199017520Y-62937214D01*
X199004874Y-62895527D01*
X199000000Y-62846036D01*
X199000000Y-61953964D01*
X199004874Y-61904473D01*
X199017520Y-61862786D01*
X199038055Y-61824368D01*
X199065692Y-61790692D01*
X199099368Y-61763055D01*
X199137786Y-61742520D01*
X199179473Y-61729874D01*
X199228964Y-61725000D01*
X200371036Y-61725000D01*
X200420527Y-61729874D01*
G37*
G36*
X219620527Y-61004874D02*
G01*
X219662214Y-61017520D01*
X219700632Y-61038055D01*
X219734308Y-61065692D01*
X219761945Y-61099368D01*
X219782480Y-61137786D01*
X219795126Y-61179473D01*
X219800000Y-61228964D01*
X219800000Y-62121036D01*
X219795126Y-62170527D01*
X219782480Y-62212214D01*
X219761945Y-62250632D01*
X219734308Y-62284308D01*
X219700632Y-62311945D01*
X219662214Y-62332480D01*
X219620527Y-62345126D01*
X219571036Y-62350000D01*
X218428964Y-62350000D01*
X218379473Y-62345126D01*
X218337786Y-62332480D01*
X218299368Y-62311945D01*
X218265692Y-62284308D01*
X218238055Y-62250632D01*
X218217520Y-62212214D01*
X218204874Y-62170527D01*
X218200000Y-62121036D01*
X218200000Y-61228964D01*
X218204874Y-61179473D01*
X218217520Y-61137786D01*
X218238055Y-61099368D01*
X218265692Y-61065692D01*
X218299368Y-61038055D01*
X218337786Y-61017520D01*
X218379473Y-61004874D01*
X218428964Y-61000000D01*
X219571036Y-61000000D01*
X219620527Y-61004874D01*
G37*
G36*
X223620527Y-61004874D02*
G01*
X223662214Y-61017520D01*
X223700632Y-61038055D01*
X223734308Y-61065692D01*
X223761945Y-61099368D01*
X223782480Y-61137786D01*
X223795126Y-61179473D01*
X223800000Y-61228964D01*
X223800000Y-62121036D01*
X223795126Y-62170527D01*
X223782480Y-62212214D01*
X223761945Y-62250632D01*
X223734308Y-62284308D01*
X223700632Y-62311945D01*
X223662214Y-62332480D01*
X223620527Y-62345126D01*
X223571036Y-62350000D01*
X222428964Y-62350000D01*
X222379473Y-62345126D01*
X222337786Y-62332480D01*
X222299368Y-62311945D01*
X222265692Y-62284308D01*
X222238055Y-62250632D01*
X222217520Y-62212214D01*
X222204874Y-62170527D01*
X222200000Y-62121036D01*
X222200000Y-61228964D01*
X222204874Y-61179473D01*
X222217520Y-61137786D01*
X222238055Y-61099368D01*
X222265692Y-61065692D01*
X222299368Y-61038055D01*
X222337786Y-61017520D01*
X222379473Y-61004874D01*
X222428964Y-61000000D01*
X223571036Y-61000000D01*
X223620527Y-61004874D01*
G37*
G36*
X200420527Y-59679874D02*
G01*
X200462214Y-59692520D01*
X200500632Y-59713055D01*
X200534308Y-59740692D01*
X200561945Y-59774368D01*
X200582480Y-59812786D01*
X200595126Y-59854473D01*
X200600000Y-59903964D01*
X200600000Y-60796036D01*
X200595126Y-60845527D01*
X200582480Y-60887214D01*
X200561945Y-60925632D01*
X200534308Y-60959308D01*
X200500632Y-60986945D01*
X200462214Y-61007480D01*
X200420527Y-61020126D01*
X200371036Y-61025000D01*
X199228964Y-61025000D01*
X199179473Y-61020126D01*
X199137786Y-61007480D01*
X199099368Y-60986945D01*
X199065692Y-60959308D01*
X199038055Y-60925632D01*
X199017520Y-60887214D01*
X199004874Y-60845527D01*
X199000000Y-60796036D01*
X199000000Y-59903964D01*
X199004874Y-59854473D01*
X199017520Y-59812786D01*
X199038055Y-59774368D01*
X199065692Y-59740692D01*
X199099368Y-59713055D01*
X199137786Y-59692520D01*
X199179473Y-59679874D01*
X199228964Y-59675000D01*
X200371036Y-59675000D01*
X200420527Y-59679874D01*
G37*
G36*
X194742673Y-57504346D02*
G01*
X194779201Y-57515427D01*
X194812861Y-57533418D01*
X194842367Y-57557633D01*
X194866582Y-57587139D01*
X194884573Y-57620799D01*
X194895654Y-57657327D01*
X194900000Y-57701454D01*
X194900000Y-60098546D01*
X194895654Y-60142673D01*
X194884573Y-60179201D01*
X194866582Y-60212861D01*
X194842367Y-60242367D01*
X194812861Y-60266582D01*
X194779201Y-60284573D01*
X194742673Y-60295654D01*
X194698546Y-60300000D01*
X193301454Y-60300000D01*
X193257327Y-60295654D01*
X193220799Y-60284573D01*
X193187139Y-60266582D01*
X193157633Y-60242367D01*
X193133418Y-60212861D01*
X193115427Y-60179201D01*
X193104346Y-60142673D01*
X193100000Y-60098546D01*
X193100000Y-57701454D01*
X193104346Y-57657327D01*
X193115427Y-57620799D01*
X193133418Y-57587139D01*
X193157633Y-57557633D01*
X193187139Y-57533418D01*
X193220799Y-57515427D01*
X193257327Y-57504346D01*
X193301454Y-57500000D01*
X194698546Y-57500000D01*
X194742673Y-57504346D01*
G37*
G36*
X221495526Y-58679873D02*
G01*
X221537213Y-58692519D01*
X221575631Y-58713054D01*
X221609307Y-58740691D01*
X221636944Y-58774367D01*
X221657479Y-58812785D01*
X221670125Y-58854472D01*
X221674999Y-58903963D01*
X221674999Y-59796035D01*
X221670125Y-59845526D01*
X221657479Y-59887213D01*
X221636944Y-59925631D01*
X221609307Y-59959307D01*
X221575631Y-59986944D01*
X221537213Y-60007479D01*
X221495526Y-60020125D01*
X221446035Y-60024999D01*
X220303963Y-60024999D01*
X220254472Y-60020125D01*
X220212785Y-60007479D01*
X220174367Y-59986944D01*
X220140691Y-59959307D01*
X220113054Y-59925631D01*
X220092519Y-59887213D01*
X220079873Y-59845526D01*
X220074999Y-59796035D01*
X220074999Y-58903963D01*
X220079873Y-58854472D01*
X220092519Y-58812785D01*
X220113054Y-58774367D01*
X220140691Y-58740691D01*
X220174367Y-58713054D01*
X220212785Y-58692519D01*
X220254472Y-58679873D01*
X220303963Y-58674999D01*
X221446035Y-58674999D01*
X221495526Y-58679873D01*
G37*
G36*
X208449573Y-57501794D02*
G01*
X208463715Y-57506084D01*
X208487748Y-57510864D01*
X208512252Y-57510864D01*
X208536285Y-57506084D01*
X208550427Y-57501794D01*
X208568641Y-57500000D01*
X208931359Y-57500000D01*
X208949573Y-57501794D01*
X208963715Y-57506084D01*
X208987748Y-57510864D01*
X209012252Y-57510864D01*
X209036285Y-57506084D01*
X209050427Y-57501794D01*
X209068641Y-57500000D01*
X209431359Y-57500000D01*
X209449573Y-57501794D01*
X209463715Y-57506084D01*
X209487748Y-57510864D01*
X209512252Y-57510864D01*
X209536285Y-57506084D01*
X209550427Y-57501794D01*
X209568641Y-57500000D01*
X209931359Y-57500000D01*
X209949573Y-57501794D01*
X209963715Y-57506084D01*
X209987748Y-57510864D01*
X210012252Y-57510864D01*
X210036285Y-57506084D01*
X210050427Y-57501794D01*
X210068641Y-57500000D01*
X210431359Y-57500000D01*
X210449573Y-57501794D01*
X210463715Y-57506084D01*
X210487748Y-57510864D01*
X210512252Y-57510864D01*
X210536285Y-57506084D01*
X210550427Y-57501794D01*
X210568641Y-57500000D01*
X210931359Y-57500000D01*
X210949573Y-57501794D01*
X210963715Y-57506084D01*
X210987748Y-57510864D01*
X211012252Y-57510864D01*
X211036285Y-57506084D01*
X211050427Y-57501794D01*
X211068641Y-57500000D01*
X211431359Y-57500000D01*
X211449573Y-57501794D01*
X211463715Y-57506084D01*
X211487748Y-57510864D01*
X211512252Y-57510864D01*
X211536285Y-57506084D01*
X211550427Y-57501794D01*
X211568641Y-57500000D01*
X211931359Y-57500000D01*
X211949573Y-57501794D01*
X211963715Y-57506084D01*
X211987748Y-57510864D01*
X212012252Y-57510864D01*
X212036285Y-57506084D01*
X212050427Y-57501794D01*
X212068641Y-57500000D01*
X212431359Y-57500000D01*
X212449573Y-57501794D01*
X212463715Y-57506084D01*
X212487748Y-57510864D01*
X212512252Y-57510864D01*
X212536285Y-57506084D01*
X212550427Y-57501794D01*
X212568641Y-57500000D01*
X212931359Y-57500000D01*
X212949573Y-57501794D01*
X212963715Y-57506084D01*
X212987748Y-57510864D01*
X213012252Y-57510864D01*
X213036285Y-57506084D01*
X213050427Y-57501794D01*
X213068641Y-57500000D01*
X213431359Y-57500000D01*
X213449573Y-57501794D01*
X213463715Y-57506084D01*
X213487748Y-57510864D01*
X213512252Y-57510864D01*
X213536285Y-57506084D01*
X213550427Y-57501794D01*
X213568641Y-57500000D01*
X213931359Y-57500000D01*
X213949573Y-57501794D01*
X213963715Y-57506084D01*
X213987748Y-57510864D01*
X214012252Y-57510864D01*
X214036285Y-57506084D01*
X214050427Y-57501794D01*
X214068641Y-57500000D01*
X214431359Y-57500000D01*
X214449573Y-57501794D01*
X214463715Y-57506084D01*
X214487748Y-57510864D01*
X214512252Y-57510864D01*
X214536285Y-57506084D01*
X214550427Y-57501794D01*
X214568641Y-57500000D01*
X214931359Y-57500000D01*
X214949573Y-57501794D01*
X214963715Y-57506084D01*
X214987748Y-57510864D01*
X215012252Y-57510864D01*
X215036285Y-57506084D01*
X215050427Y-57501794D01*
X215068641Y-57500000D01*
X215431359Y-57500000D01*
X215449573Y-57501794D01*
X215463715Y-57506084D01*
X215487748Y-57510864D01*
X215512252Y-57510864D01*
X215536285Y-57506084D01*
X215550427Y-57501794D01*
X215568641Y-57500000D01*
X215931359Y-57500000D01*
X215949571Y-57501794D01*
X215961192Y-57505319D01*
X215971887Y-57511036D01*
X215981267Y-57518733D01*
X215988964Y-57528113D01*
X215994681Y-57538808D01*
X215998206Y-57550429D01*
X216000000Y-57568641D01*
X216000000Y-59181359D01*
X215998206Y-59199571D01*
X215994681Y-59211192D01*
X215988964Y-59221887D01*
X215981267Y-59231267D01*
X215971887Y-59238964D01*
X215961192Y-59244681D01*
X215949571Y-59248206D01*
X215931359Y-59250000D01*
X215568641Y-59250000D01*
X215550427Y-59248206D01*
X215536285Y-59243916D01*
X215512252Y-59239136D01*
X215487748Y-59239136D01*
X215463715Y-59243916D01*
X215449573Y-59248206D01*
X215431359Y-59250000D01*
X215068641Y-59250000D01*
X215050427Y-59248206D01*
X215036285Y-59243916D01*
X215012252Y-59239136D01*
X214987748Y-59239136D01*
X214963715Y-59243916D01*
X214949573Y-59248206D01*
X214931359Y-59250000D01*
X214568641Y-59250000D01*
X214550427Y-59248206D01*
X214536285Y-59243916D01*
X214512252Y-59239136D01*
X214487748Y-59239136D01*
X214463715Y-59243916D01*
X214449573Y-59248206D01*
X214431359Y-59250000D01*
X214068641Y-59250000D01*
X214050427Y-59248206D01*
X214036285Y-59243916D01*
X214012252Y-59239136D01*
X213987748Y-59239136D01*
X213963715Y-59243916D01*
X213949573Y-59248206D01*
X213931359Y-59250000D01*
X213568641Y-59250000D01*
X213550427Y-59248206D01*
X213536285Y-59243916D01*
X213512252Y-59239136D01*
X213487748Y-59239136D01*
X213463715Y-59243916D01*
X213449573Y-59248206D01*
X213431359Y-59250000D01*
X213068641Y-59250000D01*
X213050427Y-59248206D01*
X213036285Y-59243916D01*
X213012252Y-59239136D01*
X212987748Y-59239136D01*
X212963715Y-59243916D01*
X212949573Y-59248206D01*
X212931359Y-59250000D01*
X212568641Y-59250000D01*
X212550427Y-59248206D01*
X212536285Y-59243916D01*
X212512252Y-59239136D01*
X212487748Y-59239136D01*
X212463715Y-59243916D01*
X212449573Y-59248206D01*
X212431359Y-59250000D01*
X212068641Y-59250000D01*
X212050427Y-59248206D01*
X212036285Y-59243916D01*
X212012252Y-59239136D01*
X211987748Y-59239136D01*
X211963715Y-59243916D01*
X211949573Y-59248206D01*
X211931359Y-59250000D01*
X211568641Y-59250000D01*
X211550427Y-59248206D01*
X211536285Y-59243916D01*
X211512252Y-59239136D01*
X211487748Y-59239136D01*
X211463715Y-59243916D01*
X211449573Y-59248206D01*
X211431359Y-59250000D01*
X211068641Y-59250000D01*
X211050427Y-59248206D01*
X211036285Y-59243916D01*
X211012252Y-59239136D01*
X210987748Y-59239136D01*
X210963715Y-59243916D01*
X210949573Y-59248206D01*
X210931359Y-59250000D01*
X210568641Y-59250000D01*
X210550427Y-59248206D01*
X210536285Y-59243916D01*
X210512252Y-59239136D01*
X210487748Y-59239136D01*
X210463715Y-59243916D01*
X210449573Y-59248206D01*
X210431359Y-59250000D01*
X210068641Y-59250000D01*
X210050427Y-59248206D01*
X210036285Y-59243916D01*
X210012252Y-59239136D01*
X209987748Y-59239136D01*
X209963715Y-59243916D01*
X209949573Y-59248206D01*
X209931359Y-59250000D01*
X209568641Y-59250000D01*
X209550427Y-59248206D01*
X209536285Y-59243916D01*
X209512252Y-59239136D01*
X209487748Y-59239136D01*
X209463715Y-59243916D01*
X209449573Y-59248206D01*
X209431359Y-59250000D01*
X209068641Y-59250000D01*
X209050427Y-59248206D01*
X209036285Y-59243916D01*
X209012252Y-59239136D01*
X208987748Y-59239136D01*
X208963715Y-59243916D01*
X208949573Y-59248206D01*
X208931359Y-59250000D01*
X208568641Y-59250000D01*
X208550427Y-59248206D01*
X208536285Y-59243916D01*
X208512252Y-59239136D01*
X208487748Y-59239136D01*
X208463715Y-59243916D01*
X208449573Y-59248206D01*
X208431359Y-59250000D01*
X208068641Y-59250000D01*
X208050429Y-59248206D01*
X208038808Y-59244681D01*
X208028113Y-59238964D01*
X208018733Y-59231267D01*
X208011036Y-59221887D01*
X208005319Y-59211192D01*
X208001794Y-59199571D01*
X208000000Y-59181359D01*
X208000000Y-57568641D01*
X208001794Y-57550429D01*
X208005319Y-57538808D01*
X208011036Y-57528113D01*
X208018733Y-57518733D01*
X208028113Y-57511036D01*
X208038808Y-57505319D01*
X208050429Y-57501794D01*
X208068641Y-57500000D01*
X208431359Y-57500000D01*
X208449573Y-57501794D01*
G37*
G36*
X221495526Y-56629873D02*
G01*
X221537213Y-56642519D01*
X221575631Y-56663054D01*
X221609307Y-56690691D01*
X221636944Y-56724367D01*
X221657479Y-56762785D01*
X221670125Y-56804472D01*
X221674999Y-56853963D01*
X221674999Y-57746035D01*
X221670125Y-57795526D01*
X221657479Y-57837213D01*
X221636944Y-57875631D01*
X221609307Y-57909307D01*
X221575631Y-57936944D01*
X221537213Y-57957479D01*
X221495526Y-57970125D01*
X221446035Y-57974999D01*
X220303963Y-57974999D01*
X220254472Y-57970125D01*
X220212785Y-57957479D01*
X220174367Y-57936944D01*
X220140691Y-57909307D01*
X220113054Y-57875631D01*
X220092519Y-57837213D01*
X220079873Y-57795526D01*
X220074999Y-57746035D01*
X220074999Y-56853963D01*
X220079873Y-56804472D01*
X220092519Y-56762785D01*
X220113054Y-56724367D01*
X220140691Y-56690691D01*
X220174367Y-56663054D01*
X220212785Y-56642519D01*
X220254472Y-56629873D01*
X220303963Y-56624999D01*
X221446035Y-56624999D01*
X221495526Y-56629873D01*
G37*
G36*
X207149571Y-48701794D02*
G01*
X207161192Y-48705319D01*
X207171887Y-48711036D01*
X207181267Y-48718733D01*
X207188964Y-48728113D01*
X207194681Y-48738808D01*
X207198206Y-48750429D01*
X207200000Y-48768641D01*
X207200000Y-49131359D01*
X207198206Y-49149573D01*
X207193916Y-49163715D01*
X207189136Y-49187748D01*
X207189136Y-49212252D01*
X207193916Y-49236285D01*
X207198206Y-49250427D01*
X207200000Y-49268641D01*
X207200000Y-49631359D01*
X207198206Y-49649573D01*
X207193916Y-49663715D01*
X207189136Y-49687748D01*
X207189136Y-49712252D01*
X207193916Y-49736285D01*
X207198206Y-49750427D01*
X207200000Y-49768641D01*
X207200000Y-50131359D01*
X207198206Y-50149573D01*
X207193916Y-50163715D01*
X207189136Y-50187748D01*
X207189136Y-50212252D01*
X207193916Y-50236285D01*
X207198206Y-50250427D01*
X207200000Y-50268641D01*
X207200000Y-50631359D01*
X207198206Y-50649573D01*
X207193916Y-50663715D01*
X207189136Y-50687748D01*
X207189136Y-50712252D01*
X207193916Y-50736285D01*
X207198206Y-50750427D01*
X207200000Y-50768641D01*
X207200000Y-51131359D01*
X207198206Y-51149573D01*
X207193916Y-51163715D01*
X207189136Y-51187748D01*
X207189136Y-51212252D01*
X207193916Y-51236285D01*
X207198206Y-51250427D01*
X207200000Y-51268641D01*
X207200000Y-51631359D01*
X207198206Y-51649573D01*
X207193916Y-51663715D01*
X207189136Y-51687748D01*
X207189136Y-51712252D01*
X207193916Y-51736285D01*
X207198206Y-51750427D01*
X207200000Y-51768641D01*
X207200000Y-52131359D01*
X207198206Y-52149573D01*
X207193916Y-52163715D01*
X207189136Y-52187748D01*
X207189136Y-52212252D01*
X207193916Y-52236285D01*
X207198206Y-52250427D01*
X207200000Y-52268641D01*
X207200000Y-52631359D01*
X207198206Y-52649573D01*
X207193916Y-52663715D01*
X207189136Y-52687748D01*
X207189136Y-52712252D01*
X207193916Y-52736285D01*
X207198206Y-52750427D01*
X207200000Y-52768641D01*
X207200000Y-53131359D01*
X207198206Y-53149573D01*
X207193916Y-53163715D01*
X207189136Y-53187748D01*
X207189136Y-53212252D01*
X207193916Y-53236285D01*
X207198206Y-53250427D01*
X207200000Y-53268641D01*
X207200000Y-53631359D01*
X207198206Y-53649573D01*
X207193916Y-53663715D01*
X207189136Y-53687748D01*
X207189136Y-53712252D01*
X207193916Y-53736285D01*
X207198206Y-53750427D01*
X207200000Y-53768641D01*
X207200000Y-54131359D01*
X207198206Y-54149573D01*
X207193916Y-54163715D01*
X207189136Y-54187748D01*
X207189136Y-54212252D01*
X207193916Y-54236285D01*
X207198206Y-54250427D01*
X207200000Y-54268641D01*
X207200000Y-54631359D01*
X207198206Y-54649573D01*
X207193916Y-54663715D01*
X207189136Y-54687748D01*
X207189136Y-54712252D01*
X207193916Y-54736285D01*
X207198206Y-54750427D01*
X207200000Y-54768641D01*
X207200000Y-55131359D01*
X207198206Y-55149573D01*
X207193916Y-55163715D01*
X207189136Y-55187748D01*
X207189136Y-55212252D01*
X207193916Y-55236285D01*
X207198206Y-55250427D01*
X207200000Y-55268641D01*
X207200000Y-55631359D01*
X207198206Y-55649573D01*
X207193916Y-55663715D01*
X207189136Y-55687748D01*
X207189136Y-55712252D01*
X207193916Y-55736285D01*
X207198206Y-55750427D01*
X207200000Y-55768641D01*
X207200000Y-56131359D01*
X207198206Y-56149573D01*
X207193916Y-56163715D01*
X207189136Y-56187748D01*
X207189136Y-56212252D01*
X207193916Y-56236285D01*
X207198206Y-56250427D01*
X207200000Y-56268641D01*
X207200000Y-56631359D01*
X207198206Y-56649571D01*
X207194681Y-56661192D01*
X207188964Y-56671887D01*
X207181267Y-56681267D01*
X207171887Y-56688964D01*
X207161192Y-56694681D01*
X207149571Y-56698206D01*
X207131359Y-56700000D01*
X205518641Y-56700000D01*
X205500429Y-56698206D01*
X205488808Y-56694681D01*
X205478113Y-56688964D01*
X205468733Y-56681267D01*
X205461036Y-56671887D01*
X205455319Y-56661192D01*
X205451794Y-56649571D01*
X205450000Y-56631359D01*
X205450000Y-56268641D01*
X205451794Y-56250427D01*
X205456084Y-56236285D01*
X205460864Y-56212252D01*
X205460864Y-56187748D01*
X205456084Y-56163715D01*
X205451794Y-56149573D01*
X205450000Y-56131359D01*
X205450000Y-55768641D01*
X205451794Y-55750427D01*
X205456084Y-55736285D01*
X205460864Y-55712252D01*
X205460864Y-55687748D01*
X205456084Y-55663715D01*
X205451794Y-55649573D01*
X205450000Y-55631359D01*
X205450000Y-55268641D01*
X205451794Y-55250427D01*
X205456084Y-55236285D01*
X205460864Y-55212252D01*
X205460864Y-55187748D01*
X205456084Y-55163715D01*
X205451794Y-55149573D01*
X205450000Y-55131359D01*
X205450000Y-54768641D01*
X205451794Y-54750427D01*
X205456084Y-54736285D01*
X205460864Y-54712252D01*
X205460864Y-54687748D01*
X205456084Y-54663715D01*
X205451794Y-54649573D01*
X205450000Y-54631359D01*
X205450000Y-54268641D01*
X205451794Y-54250427D01*
X205456084Y-54236285D01*
X205460864Y-54212252D01*
X205460864Y-54187748D01*
X205456084Y-54163715D01*
X205451794Y-54149573D01*
X205450000Y-54131359D01*
X205450000Y-53768641D01*
X205451794Y-53750427D01*
X205456084Y-53736285D01*
X205460864Y-53712252D01*
X205460864Y-53687748D01*
X205456084Y-53663715D01*
X205451794Y-53649573D01*
X205450000Y-53631359D01*
X205450000Y-53268641D01*
X205451794Y-53250427D01*
X205456084Y-53236285D01*
X205460864Y-53212252D01*
X205460864Y-53187748D01*
X205456084Y-53163715D01*
X205451794Y-53149573D01*
X205450000Y-53131359D01*
X205450000Y-52768641D01*
X205451794Y-52750427D01*
X205456084Y-52736285D01*
X205460864Y-52712252D01*
X205460864Y-52687748D01*
X205456084Y-52663715D01*
X205451794Y-52649573D01*
X205450000Y-52631359D01*
X205450000Y-52268641D01*
X205451794Y-52250427D01*
X205456084Y-52236285D01*
X205460864Y-52212252D01*
X205460864Y-52187748D01*
X205456084Y-52163715D01*
X205451794Y-52149573D01*
X205450000Y-52131359D01*
X205450000Y-51768641D01*
X205451794Y-51750427D01*
X205456084Y-51736285D01*
X205460864Y-51712252D01*
X205460864Y-51687748D01*
X205456084Y-51663715D01*
X205451794Y-51649573D01*
X205450000Y-51631359D01*
X205450000Y-51268641D01*
X205451794Y-51250427D01*
X205456084Y-51236285D01*
X205460864Y-51212252D01*
X205460864Y-51187748D01*
X205456084Y-51163715D01*
X205451794Y-51149573D01*
X205450000Y-51131359D01*
X205450000Y-50768641D01*
X205451794Y-50750427D01*
X205456084Y-50736285D01*
X205460864Y-50712252D01*
X205460864Y-50687748D01*
X205456084Y-50663715D01*
X205451794Y-50649573D01*
X205450000Y-50631359D01*
X205450000Y-50268641D01*
X205451794Y-50250427D01*
X205456084Y-50236285D01*
X205460864Y-50212252D01*
X205460864Y-50187748D01*
X205456084Y-50163715D01*
X205451794Y-50149573D01*
X205450000Y-50131359D01*
X205450000Y-49768641D01*
X205451794Y-49750427D01*
X205456084Y-49736285D01*
X205460864Y-49712252D01*
X205460864Y-49687748D01*
X205456084Y-49663715D01*
X205451794Y-49649573D01*
X205450000Y-49631359D01*
X205450000Y-49268641D01*
X205451794Y-49250427D01*
X205456084Y-49236285D01*
X205460864Y-49212252D01*
X205460864Y-49187748D01*
X205456084Y-49163715D01*
X205451794Y-49149573D01*
X205450000Y-49131359D01*
X205450000Y-48768641D01*
X205451794Y-48750429D01*
X205455319Y-48738808D01*
X205461036Y-48728113D01*
X205468733Y-48718733D01*
X205478113Y-48711036D01*
X205488808Y-48705319D01*
X205500429Y-48701794D01*
X205518641Y-48700000D01*
X207131359Y-48700000D01*
X207149571Y-48701794D01*
G37*
G36*
X218499571Y-48701794D02*
G01*
X218511192Y-48705319D01*
X218521887Y-48711036D01*
X218531267Y-48718733D01*
X218538964Y-48728113D01*
X218544681Y-48738808D01*
X218548206Y-48750429D01*
X218550000Y-48768641D01*
X218550000Y-49131359D01*
X218548206Y-49149573D01*
X218543916Y-49163715D01*
X218539136Y-49187748D01*
X218539136Y-49212252D01*
X218543916Y-49236285D01*
X218548206Y-49250427D01*
X218550000Y-49268641D01*
X218550000Y-49631359D01*
X218548206Y-49649573D01*
X218543916Y-49663715D01*
X218539136Y-49687748D01*
X218539136Y-49712252D01*
X218543916Y-49736285D01*
X218548206Y-49750427D01*
X218550000Y-49768641D01*
X218550000Y-50131359D01*
X218548206Y-50149573D01*
X218543916Y-50163715D01*
X218539136Y-50187748D01*
X218539136Y-50212252D01*
X218543916Y-50236285D01*
X218548206Y-50250427D01*
X218550000Y-50268641D01*
X218550000Y-50631359D01*
X218548206Y-50649573D01*
X218543916Y-50663715D01*
X218539136Y-50687748D01*
X218539136Y-50712252D01*
X218543916Y-50736285D01*
X218548206Y-50750427D01*
X218550000Y-50768641D01*
X218550000Y-51131359D01*
X218548206Y-51149573D01*
X218543916Y-51163715D01*
X218539136Y-51187748D01*
X218539136Y-51212252D01*
X218543916Y-51236285D01*
X218548206Y-51250427D01*
X218550000Y-51268641D01*
X218550000Y-51631359D01*
X218548206Y-51649573D01*
X218543916Y-51663715D01*
X218539136Y-51687748D01*
X218539136Y-51712252D01*
X218543916Y-51736285D01*
X218548206Y-51750427D01*
X218550000Y-51768641D01*
X218550000Y-52131359D01*
X218548206Y-52149573D01*
X218543916Y-52163715D01*
X218539136Y-52187748D01*
X218539136Y-52212252D01*
X218543916Y-52236285D01*
X218548206Y-52250427D01*
X218550000Y-52268641D01*
X218550000Y-52631359D01*
X218548206Y-52649573D01*
X218543916Y-52663715D01*
X218539136Y-52687748D01*
X218539136Y-52712252D01*
X218543916Y-52736285D01*
X218548206Y-52750427D01*
X218550000Y-52768641D01*
X218550000Y-53131359D01*
X218548206Y-53149573D01*
X218543916Y-53163715D01*
X218539136Y-53187748D01*
X218539136Y-53212252D01*
X218543916Y-53236285D01*
X218548206Y-53250427D01*
X218550000Y-53268641D01*
X218550000Y-53631359D01*
X218548206Y-53649573D01*
X218543916Y-53663715D01*
X218539136Y-53687748D01*
X218539136Y-53712252D01*
X218543916Y-53736285D01*
X218548206Y-53750427D01*
X218550000Y-53768641D01*
X218550000Y-54131359D01*
X218548206Y-54149573D01*
X218543916Y-54163715D01*
X218539136Y-54187748D01*
X218539136Y-54212252D01*
X218543916Y-54236285D01*
X218548206Y-54250427D01*
X218550000Y-54268641D01*
X218550000Y-54631359D01*
X218548206Y-54649573D01*
X218543916Y-54663715D01*
X218539136Y-54687748D01*
X218539136Y-54712252D01*
X218543916Y-54736285D01*
X218548206Y-54750427D01*
X218550000Y-54768641D01*
X218550000Y-55131359D01*
X218548206Y-55149573D01*
X218543916Y-55163715D01*
X218539136Y-55187748D01*
X218539136Y-55212252D01*
X218543916Y-55236285D01*
X218548206Y-55250427D01*
X218550000Y-55268641D01*
X218550000Y-55631359D01*
X218548206Y-55649573D01*
X218543916Y-55663715D01*
X218539136Y-55687748D01*
X218539136Y-55712252D01*
X218543916Y-55736285D01*
X218548206Y-55750427D01*
X218550000Y-55768641D01*
X218550000Y-56131359D01*
X218548206Y-56149573D01*
X218543916Y-56163715D01*
X218539136Y-56187748D01*
X218539136Y-56212252D01*
X218543916Y-56236285D01*
X218548206Y-56250427D01*
X218550000Y-56268641D01*
X218550000Y-56631359D01*
X218548206Y-56649571D01*
X218544681Y-56661192D01*
X218538964Y-56671887D01*
X218531267Y-56681267D01*
X218521887Y-56688964D01*
X218511192Y-56694681D01*
X218499571Y-56698206D01*
X218481359Y-56700000D01*
X216868641Y-56700000D01*
X216850429Y-56698206D01*
X216838808Y-56694681D01*
X216828113Y-56688964D01*
X216818733Y-56681267D01*
X216811036Y-56671887D01*
X216805319Y-56661192D01*
X216801794Y-56649571D01*
X216800000Y-56631359D01*
X216800000Y-56268641D01*
X216801794Y-56250427D01*
X216806084Y-56236285D01*
X216810864Y-56212252D01*
X216810864Y-56187748D01*
X216806084Y-56163715D01*
X216801794Y-56149573D01*
X216800000Y-56131359D01*
X216800000Y-55768641D01*
X216801794Y-55750427D01*
X216806084Y-55736285D01*
X216810864Y-55712252D01*
X216810864Y-55687748D01*
X216806084Y-55663715D01*
X216801794Y-55649573D01*
X216800000Y-55631359D01*
X216800000Y-55268641D01*
X216801794Y-55250427D01*
X216806084Y-55236285D01*
X216810864Y-55212252D01*
X216810864Y-55187748D01*
X216806084Y-55163715D01*
X216801794Y-55149573D01*
X216800000Y-55131359D01*
X216800000Y-54768641D01*
X216801794Y-54750427D01*
X216806084Y-54736285D01*
X216810864Y-54712252D01*
X216810864Y-54687748D01*
X216806084Y-54663715D01*
X216801794Y-54649573D01*
X216800000Y-54631359D01*
X216800000Y-54268641D01*
X216801794Y-54250427D01*
X216806084Y-54236285D01*
X216810864Y-54212252D01*
X216810864Y-54187748D01*
X216806084Y-54163715D01*
X216801794Y-54149573D01*
X216800000Y-54131359D01*
X216800000Y-53768641D01*
X216801794Y-53750427D01*
X216806084Y-53736285D01*
X216810864Y-53712252D01*
X216810864Y-53687748D01*
X216806084Y-53663715D01*
X216801794Y-53649573D01*
X216800000Y-53631359D01*
X216800000Y-53268641D01*
X216801794Y-53250427D01*
X216806084Y-53236285D01*
X216810864Y-53212252D01*
X216810864Y-53187748D01*
X216806084Y-53163715D01*
X216801794Y-53149573D01*
X216800000Y-53131359D01*
X216800000Y-52768641D01*
X216801794Y-52750427D01*
X216806084Y-52736285D01*
X216810864Y-52712252D01*
X216810864Y-52687748D01*
X216806084Y-52663715D01*
X216801794Y-52649573D01*
X216800000Y-52631359D01*
X216800000Y-52268641D01*
X216801794Y-52250427D01*
X216806084Y-52236285D01*
X216810864Y-52212252D01*
X216810864Y-52187748D01*
X216806084Y-52163715D01*
X216801794Y-52149573D01*
X216800000Y-52131359D01*
X216800000Y-51768641D01*
X216801794Y-51750427D01*
X216806084Y-51736285D01*
X216810864Y-51712252D01*
X216810864Y-51687748D01*
X216806084Y-51663715D01*
X216801794Y-51649573D01*
X216800000Y-51631359D01*
X216800000Y-51268641D01*
X216801794Y-51250427D01*
X216806084Y-51236285D01*
X216810864Y-51212252D01*
X216810864Y-51187748D01*
X216806084Y-51163715D01*
X216801794Y-51149573D01*
X216800000Y-51131359D01*
X216800000Y-50768641D01*
X216801794Y-50750427D01*
X216806084Y-50736285D01*
X216810864Y-50712252D01*
X216810864Y-50687748D01*
X216806084Y-50663715D01*
X216801794Y-50649573D01*
X216800000Y-50631359D01*
X216800000Y-50268641D01*
X216801794Y-50250427D01*
X216806084Y-50236285D01*
X216810864Y-50212252D01*
X216810864Y-50187748D01*
X216806084Y-50163715D01*
X216801794Y-50149573D01*
X216800000Y-50131359D01*
X216800000Y-49768641D01*
X216801794Y-49750427D01*
X216806084Y-49736285D01*
X216810864Y-49712252D01*
X216810864Y-49687748D01*
X216806084Y-49663715D01*
X216801794Y-49649573D01*
X216800000Y-49631359D01*
X216800000Y-49268641D01*
X216801794Y-49250427D01*
X216806084Y-49236285D01*
X216810864Y-49212252D01*
X216810864Y-49187748D01*
X216806084Y-49163715D01*
X216801794Y-49149573D01*
X216800000Y-49131359D01*
X216800000Y-48768641D01*
X216801794Y-48750429D01*
X216805319Y-48738808D01*
X216811036Y-48728113D01*
X216818733Y-48718733D01*
X216828113Y-48711036D01*
X216838808Y-48705319D01*
X216850429Y-48701794D01*
X216868641Y-48700000D01*
X218481359Y-48700000D01*
X218499571Y-48701794D01*
G37*
G36*
X200620527Y-55054874D02*
G01*
X200662214Y-55067520D01*
X200700632Y-55088055D01*
X200734308Y-55115692D01*
X200761945Y-55149368D01*
X200782480Y-55187786D01*
X200795126Y-55229473D01*
X200800000Y-55278964D01*
X200800000Y-56171036D01*
X200795126Y-56220527D01*
X200782480Y-56262214D01*
X200761945Y-56300632D01*
X200734308Y-56334308D01*
X200700632Y-56361945D01*
X200662214Y-56382480D01*
X200620527Y-56395126D01*
X200571036Y-56400000D01*
X199428964Y-56400000D01*
X199379473Y-56395126D01*
X199337786Y-56382480D01*
X199299368Y-56361945D01*
X199265692Y-56334308D01*
X199238055Y-56300632D01*
X199217520Y-56262214D01*
X199204874Y-56220527D01*
X199200000Y-56171036D01*
X199200000Y-55278964D01*
X199204874Y-55229473D01*
X199217520Y-55187786D01*
X199238055Y-55149368D01*
X199265692Y-55115692D01*
X199299368Y-55088055D01*
X199337786Y-55067520D01*
X199379473Y-55054874D01*
X199428964Y-55050000D01*
X200571036Y-55050000D01*
X200620527Y-55054874D01*
G37*
G36*
X203645527Y-55054874D02*
G01*
X203687214Y-55067520D01*
X203725632Y-55088055D01*
X203759308Y-55115692D01*
X203786945Y-55149368D01*
X203807480Y-55187786D01*
X203820126Y-55229473D01*
X203825000Y-55278964D01*
X203825000Y-56171036D01*
X203820126Y-56220527D01*
X203807480Y-56262214D01*
X203786945Y-56300632D01*
X203759308Y-56334308D01*
X203725632Y-56361945D01*
X203687214Y-56382480D01*
X203645527Y-56395126D01*
X203596036Y-56400000D01*
X202453964Y-56400000D01*
X202404473Y-56395126D01*
X202362786Y-56382480D01*
X202324368Y-56361945D01*
X202290692Y-56334308D01*
X202263055Y-56300632D01*
X202242520Y-56262214D01*
X202229874Y-56220527D01*
X202225000Y-56171036D01*
X202225000Y-55278964D01*
X202229874Y-55229473D01*
X202242520Y-55187786D01*
X202263055Y-55149368D01*
X202290692Y-55115692D01*
X202324368Y-55088055D01*
X202362786Y-55067520D01*
X202404473Y-55054874D01*
X202453964Y-55050000D01*
X203596036Y-55050000D01*
X203645527Y-55054874D01*
G37*
G36*
X225745526Y-54054874D02*
G01*
X225787213Y-54067520D01*
X225825631Y-54088055D01*
X225859307Y-54115692D01*
X225886944Y-54149368D01*
X225907479Y-54187786D01*
X225920125Y-54229473D01*
X225924999Y-54278964D01*
X225924999Y-55171036D01*
X225920125Y-55220527D01*
X225907479Y-55262214D01*
X225886944Y-55300632D01*
X225859307Y-55334308D01*
X225825631Y-55361945D01*
X225787213Y-55382480D01*
X225745526Y-55395126D01*
X225696035Y-55400000D01*
X224553963Y-55400000D01*
X224504472Y-55395126D01*
X224462785Y-55382480D01*
X224424367Y-55361945D01*
X224390691Y-55334308D01*
X224363054Y-55300632D01*
X224342519Y-55262214D01*
X224329873Y-55220527D01*
X224324999Y-55171036D01*
X224324999Y-54278964D01*
X224329873Y-54229473D01*
X224342519Y-54187786D01*
X224363054Y-54149368D01*
X224390691Y-54115692D01*
X224424367Y-54088055D01*
X224462785Y-54067520D01*
X224504472Y-54054874D01*
X224553963Y-54050000D01*
X225696035Y-54050000D01*
X225745526Y-54054874D01*
G37*
G36*
X221620527Y-54054874D02*
G01*
X221662214Y-54067520D01*
X221700632Y-54088055D01*
X221734308Y-54115692D01*
X221761945Y-54149368D01*
X221782480Y-54187786D01*
X221795126Y-54229473D01*
X221800000Y-54278964D01*
X221800000Y-55171036D01*
X221795126Y-55220527D01*
X221782480Y-55262214D01*
X221761945Y-55300632D01*
X221734308Y-55334308D01*
X221700632Y-55361945D01*
X221662214Y-55382480D01*
X221620527Y-55395126D01*
X221571036Y-55400000D01*
X220428964Y-55400000D01*
X220379473Y-55395126D01*
X220337786Y-55382480D01*
X220299368Y-55361945D01*
X220265692Y-55334308D01*
X220238055Y-55300632D01*
X220217520Y-55262214D01*
X220204874Y-55220527D01*
X220200000Y-55171036D01*
X220200000Y-54278964D01*
X220204874Y-54229473D01*
X220217520Y-54187786D01*
X220238055Y-54149368D01*
X220265692Y-54115692D01*
X220299368Y-54088055D01*
X220337786Y-54067520D01*
X220379473Y-54054874D01*
X220428964Y-54050000D01*
X221571036Y-54050000D01*
X221620527Y-54054874D01*
G37*
G36*
X200620527Y-53004874D02*
G01*
X200662214Y-53017520D01*
X200700632Y-53038055D01*
X200734308Y-53065692D01*
X200761945Y-53099368D01*
X200782480Y-53137786D01*
X200795126Y-53179473D01*
X200800000Y-53228964D01*
X200800000Y-54121036D01*
X200795126Y-54170527D01*
X200782480Y-54212214D01*
X200761945Y-54250632D01*
X200734308Y-54284308D01*
X200700632Y-54311945D01*
X200662214Y-54332480D01*
X200620527Y-54345126D01*
X200571036Y-54350000D01*
X199428964Y-54350000D01*
X199379473Y-54345126D01*
X199337786Y-54332480D01*
X199299368Y-54311945D01*
X199265692Y-54284308D01*
X199238055Y-54250632D01*
X199217520Y-54212214D01*
X199204874Y-54170527D01*
X199200000Y-54121036D01*
X199200000Y-53228964D01*
X199204874Y-53179473D01*
X199217520Y-53137786D01*
X199238055Y-53099368D01*
X199265692Y-53065692D01*
X199299368Y-53038055D01*
X199337786Y-53017520D01*
X199379473Y-53004874D01*
X199428964Y-53000000D01*
X200571036Y-53000000D01*
X200620527Y-53004874D01*
G37*
G36*
X203645527Y-53004874D02*
G01*
X203687214Y-53017520D01*
X203725632Y-53038055D01*
X203759308Y-53065692D01*
X203786945Y-53099368D01*
X203807480Y-53137786D01*
X203820126Y-53179473D01*
X203825000Y-53228964D01*
X203825000Y-54121036D01*
X203820126Y-54170527D01*
X203807480Y-54212214D01*
X203786945Y-54250632D01*
X203759308Y-54284308D01*
X203725632Y-54311945D01*
X203687214Y-54332480D01*
X203645527Y-54345126D01*
X203596036Y-54350000D01*
X202453964Y-54350000D01*
X202404473Y-54345126D01*
X202362786Y-54332480D01*
X202324368Y-54311945D01*
X202290692Y-54284308D01*
X202263055Y-54250632D01*
X202242520Y-54212214D01*
X202229874Y-54170527D01*
X202225000Y-54121036D01*
X202225000Y-53228964D01*
X202229874Y-53179473D01*
X202242520Y-53137786D01*
X202263055Y-53099368D01*
X202290692Y-53065692D01*
X202324368Y-53038055D01*
X202362786Y-53017520D01*
X202404473Y-53004874D01*
X202453964Y-53000000D01*
X203596036Y-53000000D01*
X203645527Y-53004874D01*
G37*
G36*
X221620527Y-52004874D02*
G01*
X221662214Y-52017520D01*
X221700632Y-52038055D01*
X221734308Y-52065692D01*
X221761945Y-52099368D01*
X221782480Y-52137786D01*
X221795126Y-52179473D01*
X221800000Y-52228964D01*
X221800000Y-53121036D01*
X221795126Y-53170527D01*
X221782480Y-53212214D01*
X221761945Y-53250632D01*
X221734308Y-53284308D01*
X221700632Y-53311945D01*
X221662214Y-53332480D01*
X221620527Y-53345126D01*
X221571036Y-53350000D01*
X220428964Y-53350000D01*
X220379473Y-53345126D01*
X220337786Y-53332480D01*
X220299368Y-53311945D01*
X220265692Y-53284308D01*
X220238055Y-53250632D01*
X220217520Y-53212214D01*
X220204874Y-53170527D01*
X220200000Y-53121036D01*
X220200000Y-52228964D01*
X220204874Y-52179473D01*
X220217520Y-52137786D01*
X220238055Y-52099368D01*
X220265692Y-52065692D01*
X220299368Y-52038055D01*
X220337786Y-52017520D01*
X220379473Y-52004874D01*
X220428964Y-52000000D01*
X221571036Y-52000000D01*
X221620527Y-52004874D01*
G37*
G36*
X225745526Y-52004874D02*
G01*
X225787213Y-52017520D01*
X225825631Y-52038055D01*
X225859307Y-52065692D01*
X225886944Y-52099368D01*
X225907479Y-52137786D01*
X225920125Y-52179473D01*
X225924999Y-52228964D01*
X225924999Y-53121036D01*
X225920125Y-53170527D01*
X225907479Y-53212214D01*
X225886944Y-53250632D01*
X225859307Y-53284308D01*
X225825631Y-53311945D01*
X225787213Y-53332480D01*
X225745526Y-53345126D01*
X225696035Y-53350000D01*
X224553963Y-53350000D01*
X224504472Y-53345126D01*
X224462785Y-53332480D01*
X224424367Y-53311945D01*
X224390691Y-53284308D01*
X224363054Y-53250632D01*
X224342519Y-53212214D01*
X224329873Y-53170527D01*
X224324999Y-53121036D01*
X224324999Y-52228964D01*
X224329873Y-52179473D01*
X224342519Y-52137786D01*
X224363054Y-52099368D01*
X224390691Y-52065692D01*
X224424367Y-52038055D01*
X224462785Y-52017520D01*
X224504472Y-52004874D01*
X224553963Y-52000000D01*
X225696035Y-52000000D01*
X225745526Y-52004874D01*
G37*
G36*
X225620527Y-49054874D02*
G01*
X225662214Y-49067520D01*
X225700632Y-49088055D01*
X225734308Y-49115692D01*
X225761945Y-49149368D01*
X225782480Y-49187786D01*
X225795126Y-49229473D01*
X225800000Y-49278964D01*
X225800000Y-50171036D01*
X225795126Y-50220527D01*
X225782480Y-50262214D01*
X225761945Y-50300632D01*
X225734308Y-50334308D01*
X225700632Y-50361945D01*
X225662214Y-50382480D01*
X225620527Y-50395126D01*
X225571036Y-50400000D01*
X224428964Y-50400000D01*
X224379473Y-50395126D01*
X224337786Y-50382480D01*
X224299368Y-50361945D01*
X224265692Y-50334308D01*
X224238055Y-50300632D01*
X224217520Y-50262214D01*
X224204874Y-50220527D01*
X224200000Y-50171036D01*
X224200000Y-49278964D01*
X224204874Y-49229473D01*
X224217520Y-49187786D01*
X224238055Y-49149368D01*
X224265692Y-49115692D01*
X224299368Y-49088055D01*
X224337786Y-49067520D01*
X224379473Y-49054874D01*
X224428964Y-49050000D01*
X225571036Y-49050000D01*
X225620527Y-49054874D01*
G37*
G36*
X221620527Y-49054874D02*
G01*
X221662214Y-49067520D01*
X221700632Y-49088055D01*
X221734308Y-49115692D01*
X221761945Y-49149368D01*
X221782480Y-49187786D01*
X221795126Y-49229473D01*
X221800000Y-49278964D01*
X221800000Y-50171036D01*
X221795126Y-50220527D01*
X221782480Y-50262214D01*
X221761945Y-50300632D01*
X221734308Y-50334308D01*
X221700632Y-50361945D01*
X221662214Y-50382480D01*
X221620527Y-50395126D01*
X221571036Y-50400000D01*
X220428964Y-50400000D01*
X220379473Y-50395126D01*
X220337786Y-50382480D01*
X220299368Y-50361945D01*
X220265692Y-50334308D01*
X220238055Y-50300632D01*
X220217520Y-50262214D01*
X220204874Y-50220527D01*
X220200000Y-50171036D01*
X220200000Y-49278964D01*
X220204874Y-49229473D01*
X220217520Y-49187786D01*
X220238055Y-49149368D01*
X220265692Y-49115692D01*
X220299368Y-49088055D01*
X220337786Y-49067520D01*
X220379473Y-49054874D01*
X220428964Y-49050000D01*
X221571036Y-49050000D01*
X221620527Y-49054874D01*
G37*
G36*
X221620527Y-47004874D02*
G01*
X221662214Y-47017520D01*
X221700632Y-47038055D01*
X221734308Y-47065692D01*
X221761945Y-47099368D01*
X221782480Y-47137786D01*
X221795126Y-47179473D01*
X221800000Y-47228964D01*
X221800000Y-48121036D01*
X221795126Y-48170527D01*
X221782480Y-48212214D01*
X221761945Y-48250632D01*
X221734308Y-48284308D01*
X221700632Y-48311945D01*
X221662214Y-48332480D01*
X221620527Y-48345126D01*
X221571036Y-48350000D01*
X220428964Y-48350000D01*
X220379473Y-48345126D01*
X220337786Y-48332480D01*
X220299368Y-48311945D01*
X220265692Y-48284308D01*
X220238055Y-48250632D01*
X220217520Y-48212214D01*
X220204874Y-48170527D01*
X220200000Y-48121036D01*
X220200000Y-47228964D01*
X220204874Y-47179473D01*
X220217520Y-47137786D01*
X220238055Y-47099368D01*
X220265692Y-47065692D01*
X220299368Y-47038055D01*
X220337786Y-47017520D01*
X220379473Y-47004874D01*
X220428964Y-47000000D01*
X221571036Y-47000000D01*
X221620527Y-47004874D01*
G37*
G36*
X225620527Y-47004874D02*
G01*
X225662214Y-47017520D01*
X225700632Y-47038055D01*
X225734308Y-47065692D01*
X225761945Y-47099368D01*
X225782480Y-47137786D01*
X225795126Y-47179473D01*
X225800000Y-47228964D01*
X225800000Y-48121036D01*
X225795126Y-48170527D01*
X225782480Y-48212214D01*
X225761945Y-48250632D01*
X225734308Y-48284308D01*
X225700632Y-48311945D01*
X225662214Y-48332480D01*
X225620527Y-48345126D01*
X225571036Y-48350000D01*
X224428964Y-48350000D01*
X224379473Y-48345126D01*
X224337786Y-48332480D01*
X224299368Y-48311945D01*
X224265692Y-48284308D01*
X224238055Y-48250632D01*
X224217520Y-48212214D01*
X224204874Y-48170527D01*
X224200000Y-48121036D01*
X224200000Y-47228964D01*
X224204874Y-47179473D01*
X224217520Y-47137786D01*
X224238055Y-47099368D01*
X224265692Y-47065692D01*
X224299368Y-47038055D01*
X224337786Y-47017520D01*
X224379473Y-47004874D01*
X224428964Y-47000000D01*
X225571036Y-47000000D01*
X225620527Y-47004874D01*
G37*
G36*
X199247935Y-46357663D02*
G01*
X199402624Y-46421738D01*
X199402626Y-46421739D01*
X199541844Y-46514761D01*
X199660238Y-46633155D01*
X199753260Y-46772373D01*
X199753261Y-46772375D01*
X199817336Y-46927064D01*
X199850000Y-47091280D01*
X199850000Y-47258718D01*
X199817336Y-47422934D01*
X199753261Y-47577623D01*
X199753260Y-47577625D01*
X199660238Y-47716843D01*
X199541844Y-47835237D01*
X199402626Y-47928259D01*
X199402625Y-47928260D01*
X199402624Y-47928260D01*
X199247935Y-47992335D01*
X199083719Y-48024999D01*
X198916281Y-48024999D01*
X198752065Y-47992335D01*
X198597376Y-47928260D01*
X198597375Y-47928260D01*
X198597374Y-47928259D01*
X198458156Y-47835237D01*
X198339762Y-47716843D01*
X198246740Y-47577625D01*
X198246739Y-47577623D01*
X198182664Y-47422934D01*
X198150000Y-47258718D01*
X198150000Y-47091280D01*
X198182664Y-46927064D01*
X198246739Y-46772375D01*
X198246740Y-46772373D01*
X198339762Y-46633155D01*
X198458156Y-46514761D01*
X198597374Y-46421739D01*
X198597376Y-46421738D01*
X198752065Y-46357663D01*
X198916281Y-46324999D01*
X199083719Y-46324999D01*
X199247935Y-46357663D01*
G37*
G36*
X208449573Y-46151794D02*
G01*
X208463715Y-46156084D01*
X208487748Y-46160864D01*
X208512252Y-46160864D01*
X208536285Y-46156084D01*
X208550427Y-46151794D01*
X208568641Y-46150000D01*
X208931359Y-46150000D01*
X208949573Y-46151794D01*
X208963715Y-46156084D01*
X208987748Y-46160864D01*
X209012252Y-46160864D01*
X209036285Y-46156084D01*
X209050427Y-46151794D01*
X209068641Y-46150000D01*
X209431359Y-46150000D01*
X209449573Y-46151794D01*
X209463715Y-46156084D01*
X209487748Y-46160864D01*
X209512252Y-46160864D01*
X209536285Y-46156084D01*
X209550427Y-46151794D01*
X209568641Y-46150000D01*
X209931359Y-46150000D01*
X209949573Y-46151794D01*
X209963715Y-46156084D01*
X209987748Y-46160864D01*
X210012252Y-46160864D01*
X210036285Y-46156084D01*
X210050427Y-46151794D01*
X210068641Y-46150000D01*
X210431359Y-46150000D01*
X210449573Y-46151794D01*
X210463715Y-46156084D01*
X210487748Y-46160864D01*
X210512252Y-46160864D01*
X210536285Y-46156084D01*
X210550427Y-46151794D01*
X210568641Y-46150000D01*
X210931359Y-46150000D01*
X210949573Y-46151794D01*
X210963715Y-46156084D01*
X210987748Y-46160864D01*
X211012252Y-46160864D01*
X211036285Y-46156084D01*
X211050427Y-46151794D01*
X211068641Y-46150000D01*
X211431359Y-46150000D01*
X211449573Y-46151794D01*
X211463715Y-46156084D01*
X211487748Y-46160864D01*
X211512252Y-46160864D01*
X211536285Y-46156084D01*
X211550427Y-46151794D01*
X211568641Y-46150000D01*
X211931359Y-46150000D01*
X211949573Y-46151794D01*
X211963715Y-46156084D01*
X211987748Y-46160864D01*
X212012252Y-46160864D01*
X212036285Y-46156084D01*
X212050427Y-46151794D01*
X212068641Y-46150000D01*
X212431359Y-46150000D01*
X212449573Y-46151794D01*
X212463715Y-46156084D01*
X212487748Y-46160864D01*
X212512252Y-46160864D01*
X212536285Y-46156084D01*
X212550427Y-46151794D01*
X212568641Y-46150000D01*
X212931359Y-46150000D01*
X212949573Y-46151794D01*
X212963715Y-46156084D01*
X212987748Y-46160864D01*
X213012252Y-46160864D01*
X213036285Y-46156084D01*
X213050427Y-46151794D01*
X213068641Y-46150000D01*
X213431359Y-46150000D01*
X213449573Y-46151794D01*
X213463715Y-46156084D01*
X213487748Y-46160864D01*
X213512252Y-46160864D01*
X213536285Y-46156084D01*
X213550427Y-46151794D01*
X213568641Y-46150000D01*
X213931359Y-46150000D01*
X213949573Y-46151794D01*
X213963715Y-46156084D01*
X213987748Y-46160864D01*
X214012252Y-46160864D01*
X214036285Y-46156084D01*
X214050427Y-46151794D01*
X214068641Y-46150000D01*
X214431359Y-46150000D01*
X214449573Y-46151794D01*
X214463715Y-46156084D01*
X214487748Y-46160864D01*
X214512252Y-46160864D01*
X214536285Y-46156084D01*
X214550427Y-46151794D01*
X214568641Y-46150000D01*
X214931359Y-46150000D01*
X214949573Y-46151794D01*
X214963715Y-46156084D01*
X214987748Y-46160864D01*
X215012252Y-46160864D01*
X215036285Y-46156084D01*
X215050427Y-46151794D01*
X215068641Y-46150000D01*
X215431359Y-46150000D01*
X215449573Y-46151794D01*
X215463715Y-46156084D01*
X215487748Y-46160864D01*
X215512252Y-46160864D01*
X215536285Y-46156084D01*
X215550427Y-46151794D01*
X215568641Y-46150000D01*
X215931359Y-46150000D01*
X215949571Y-46151794D01*
X215961192Y-46155319D01*
X215971887Y-46161036D01*
X215981267Y-46168733D01*
X215988964Y-46178113D01*
X215994681Y-46188808D01*
X215998206Y-46200429D01*
X216000000Y-46218641D01*
X216000000Y-47831359D01*
X215998206Y-47849571D01*
X215994681Y-47861192D01*
X215988964Y-47871887D01*
X215981267Y-47881267D01*
X215971887Y-47888964D01*
X215961192Y-47894681D01*
X215949571Y-47898206D01*
X215931359Y-47900000D01*
X215568641Y-47900000D01*
X215550427Y-47898206D01*
X215536285Y-47893916D01*
X215512252Y-47889136D01*
X215487748Y-47889136D01*
X215463715Y-47893916D01*
X215449573Y-47898206D01*
X215431359Y-47900000D01*
X215068641Y-47900000D01*
X215050427Y-47898206D01*
X215036285Y-47893916D01*
X215012252Y-47889136D01*
X214987748Y-47889136D01*
X214963715Y-47893916D01*
X214949573Y-47898206D01*
X214931359Y-47900000D01*
X214568641Y-47900000D01*
X214550427Y-47898206D01*
X214536285Y-47893916D01*
X214512252Y-47889136D01*
X214487748Y-47889136D01*
X214463715Y-47893916D01*
X214449573Y-47898206D01*
X214431359Y-47900000D01*
X214068641Y-47900000D01*
X214050427Y-47898206D01*
X214036285Y-47893916D01*
X214012252Y-47889136D01*
X213987748Y-47889136D01*
X213963715Y-47893916D01*
X213949573Y-47898206D01*
X213931359Y-47900000D01*
X213568641Y-47900000D01*
X213550427Y-47898206D01*
X213536285Y-47893916D01*
X213512252Y-47889136D01*
X213487748Y-47889136D01*
X213463715Y-47893916D01*
X213449573Y-47898206D01*
X213431359Y-47900000D01*
X213068641Y-47900000D01*
X213050427Y-47898206D01*
X213036285Y-47893916D01*
X213012252Y-47889136D01*
X212987748Y-47889136D01*
X212963715Y-47893916D01*
X212949573Y-47898206D01*
X212931359Y-47900000D01*
X212568641Y-47900000D01*
X212550427Y-47898206D01*
X212536285Y-47893916D01*
X212512252Y-47889136D01*
X212487748Y-47889136D01*
X212463715Y-47893916D01*
X212449573Y-47898206D01*
X212431359Y-47900000D01*
X212068641Y-47900000D01*
X212050427Y-47898206D01*
X212036285Y-47893916D01*
X212012252Y-47889136D01*
X211987748Y-47889136D01*
X211963715Y-47893916D01*
X211949573Y-47898206D01*
X211931359Y-47900000D01*
X211568641Y-47900000D01*
X211550427Y-47898206D01*
X211536285Y-47893916D01*
X211512252Y-47889136D01*
X211487748Y-47889136D01*
X211463715Y-47893916D01*
X211449573Y-47898206D01*
X211431359Y-47900000D01*
X211068641Y-47900000D01*
X211050427Y-47898206D01*
X211036285Y-47893916D01*
X211012252Y-47889136D01*
X210987748Y-47889136D01*
X210963715Y-47893916D01*
X210949573Y-47898206D01*
X210931359Y-47900000D01*
X210568641Y-47900000D01*
X210550427Y-47898206D01*
X210536285Y-47893916D01*
X210512252Y-47889136D01*
X210487748Y-47889136D01*
X210463715Y-47893916D01*
X210449573Y-47898206D01*
X210431359Y-47900000D01*
X210068641Y-47900000D01*
X210050427Y-47898206D01*
X210036285Y-47893916D01*
X210012252Y-47889136D01*
X209987748Y-47889136D01*
X209963715Y-47893916D01*
X209949573Y-47898206D01*
X209931359Y-47900000D01*
X209568641Y-47900000D01*
X209550427Y-47898206D01*
X209536285Y-47893916D01*
X209512252Y-47889136D01*
X209487748Y-47889136D01*
X209463715Y-47893916D01*
X209449573Y-47898206D01*
X209431359Y-47900000D01*
X209068641Y-47900000D01*
X209050427Y-47898206D01*
X209036285Y-47893916D01*
X209012252Y-47889136D01*
X208987748Y-47889136D01*
X208963715Y-47893916D01*
X208949573Y-47898206D01*
X208931359Y-47900000D01*
X208568641Y-47900000D01*
X208550427Y-47898206D01*
X208536285Y-47893916D01*
X208512252Y-47889136D01*
X208487748Y-47889136D01*
X208463715Y-47893916D01*
X208449573Y-47898206D01*
X208431359Y-47900000D01*
X208068641Y-47900000D01*
X208050429Y-47898206D01*
X208038808Y-47894681D01*
X208028113Y-47888964D01*
X208018733Y-47881267D01*
X208011036Y-47871887D01*
X208005319Y-47861192D01*
X208001794Y-47849571D01*
X208000000Y-47831359D01*
X208000000Y-46218641D01*
X208001794Y-46200429D01*
X208005319Y-46188808D01*
X208011036Y-46178113D01*
X208018733Y-46168733D01*
X208028113Y-46161036D01*
X208038808Y-46155319D01*
X208050429Y-46151794D01*
X208068641Y-46150000D01*
X208431359Y-46150000D01*
X208449573Y-46151794D01*
G37*
G36*
X192470527Y-45904874D02*
G01*
X192512214Y-45917520D01*
X192550632Y-45938055D01*
X192584308Y-45965692D01*
X192611945Y-45999368D01*
X192632480Y-46037786D01*
X192645126Y-46079473D01*
X192650000Y-46128964D01*
X192650000Y-47271036D01*
X192645126Y-47320527D01*
X192632480Y-47362214D01*
X192611945Y-47400632D01*
X192584308Y-47434308D01*
X192550632Y-47461945D01*
X192512214Y-47482480D01*
X192470527Y-47495126D01*
X192421036Y-47500000D01*
X191528964Y-47500000D01*
X191479473Y-47495126D01*
X191437786Y-47482480D01*
X191399368Y-47461945D01*
X191365692Y-47434308D01*
X191338055Y-47400632D01*
X191317520Y-47362214D01*
X191304874Y-47320527D01*
X191300000Y-47271036D01*
X191300000Y-46128964D01*
X191304874Y-46079473D01*
X191317520Y-46037786D01*
X191338055Y-45999368D01*
X191365692Y-45965692D01*
X191399368Y-45938055D01*
X191437786Y-45917520D01*
X191479473Y-45904874D01*
X191528964Y-45900000D01*
X192421036Y-45900000D01*
X192470527Y-45904874D01*
G37*
G36*
X194520527Y-45904874D02*
G01*
X194562214Y-45917520D01*
X194600632Y-45938055D01*
X194634308Y-45965692D01*
X194661945Y-45999368D01*
X194682480Y-46037786D01*
X194695126Y-46079473D01*
X194700000Y-46128964D01*
X194700000Y-47271036D01*
X194695126Y-47320527D01*
X194682480Y-47362214D01*
X194661945Y-47400632D01*
X194634308Y-47434308D01*
X194600632Y-47461945D01*
X194562214Y-47482480D01*
X194520527Y-47495126D01*
X194471036Y-47500000D01*
X193578964Y-47500000D01*
X193529473Y-47495126D01*
X193487786Y-47482480D01*
X193449368Y-47461945D01*
X193415692Y-47434308D01*
X193388055Y-47400632D01*
X193367520Y-47362214D01*
X193354874Y-47320527D01*
X193350000Y-47271036D01*
X193350000Y-46128964D01*
X193354874Y-46079473D01*
X193367520Y-46037786D01*
X193388055Y-45999368D01*
X193415692Y-45965692D01*
X193449368Y-45938055D01*
X193487786Y-45917520D01*
X193529473Y-45904874D01*
X193578964Y-45900000D01*
X194471036Y-45900000D01*
X194520527Y-45904874D01*
G37*
G36*
X222470527Y-43904874D02*
G01*
X222512214Y-43917520D01*
X222550632Y-43938055D01*
X222584308Y-43965692D01*
X222611945Y-43999368D01*
X222632480Y-44037786D01*
X222645126Y-44079473D01*
X222650000Y-44128964D01*
X222650000Y-45271036D01*
X222645126Y-45320527D01*
X222632480Y-45362214D01*
X222611945Y-45400632D01*
X222584308Y-45434308D01*
X222550632Y-45461945D01*
X222512214Y-45482480D01*
X222470527Y-45495126D01*
X222421036Y-45500000D01*
X221528964Y-45500000D01*
X221479473Y-45495126D01*
X221437786Y-45482480D01*
X221399368Y-45461945D01*
X221365692Y-45434308D01*
X221338055Y-45400632D01*
X221317520Y-45362214D01*
X221304874Y-45320527D01*
X221300000Y-45271036D01*
X221300000Y-44128964D01*
X221304874Y-44079473D01*
X221317520Y-44037786D01*
X221338055Y-43999368D01*
X221365692Y-43965692D01*
X221399368Y-43938055D01*
X221437786Y-43917520D01*
X221479473Y-43904874D01*
X221528964Y-43900000D01*
X222421036Y-43900000D01*
X222470527Y-43904874D01*
G37*
G36*
X224520527Y-43904874D02*
G01*
X224562214Y-43917520D01*
X224600632Y-43938055D01*
X224634308Y-43965692D01*
X224661945Y-43999368D01*
X224682480Y-44037786D01*
X224695126Y-44079473D01*
X224700000Y-44128964D01*
X224700000Y-45271036D01*
X224695126Y-45320527D01*
X224682480Y-45362214D01*
X224661945Y-45400632D01*
X224634308Y-45434308D01*
X224600632Y-45461945D01*
X224562214Y-45482480D01*
X224520527Y-45495126D01*
X224471036Y-45500000D01*
X223578964Y-45500000D01*
X223529473Y-45495126D01*
X223487786Y-45482480D01*
X223449368Y-45461945D01*
X223415692Y-45434308D01*
X223388055Y-45400632D01*
X223367520Y-45362214D01*
X223354874Y-45320527D01*
X223350000Y-45271036D01*
X223350000Y-44128964D01*
X223354874Y-44079473D01*
X223367520Y-44037786D01*
X223388055Y-43999368D01*
X223415692Y-43965692D01*
X223449368Y-43938055D01*
X223487786Y-43917520D01*
X223529473Y-43904874D01*
X223578964Y-43900000D01*
X224471036Y-43900000D01*
X224520527Y-43904874D01*
G37*
G36*
X210620527Y-44054874D02*
G01*
X210662214Y-44067520D01*
X210700632Y-44088055D01*
X210734308Y-44115692D01*
X210761945Y-44149368D01*
X210782480Y-44187786D01*
X210795126Y-44229473D01*
X210800000Y-44278964D01*
X210800000Y-45171036D01*
X210795126Y-45220527D01*
X210782480Y-45262214D01*
X210761945Y-45300632D01*
X210734308Y-45334308D01*
X210700632Y-45361945D01*
X210662214Y-45382480D01*
X210620527Y-45395126D01*
X210571036Y-45400000D01*
X209428964Y-45400000D01*
X209379473Y-45395126D01*
X209337786Y-45382480D01*
X209299368Y-45361945D01*
X209265692Y-45334308D01*
X209238055Y-45300632D01*
X209217520Y-45262214D01*
X209204874Y-45220527D01*
X209200000Y-45171036D01*
X209200000Y-44278964D01*
X209204874Y-44229473D01*
X209217520Y-44187786D01*
X209238055Y-44149368D01*
X209265692Y-44115692D01*
X209299368Y-44088055D01*
X209337786Y-44067520D01*
X209379473Y-44054874D01*
X209428964Y-44050000D01*
X210571036Y-44050000D01*
X210620527Y-44054874D01*
G37*
G36*
X206620527Y-44054874D02*
G01*
X206662214Y-44067520D01*
X206700632Y-44088055D01*
X206734308Y-44115692D01*
X206761945Y-44149368D01*
X206782480Y-44187786D01*
X206795126Y-44229473D01*
X206800000Y-44278964D01*
X206800000Y-45171036D01*
X206795126Y-45220527D01*
X206782480Y-45262214D01*
X206761945Y-45300632D01*
X206734308Y-45334308D01*
X206700632Y-45361945D01*
X206662214Y-45382480D01*
X206620527Y-45395126D01*
X206571036Y-45400000D01*
X205428964Y-45400000D01*
X205379473Y-45395126D01*
X205337786Y-45382480D01*
X205299368Y-45361945D01*
X205265692Y-45334308D01*
X205238055Y-45300632D01*
X205217520Y-45262214D01*
X205204874Y-45220527D01*
X205200000Y-45171036D01*
X205200000Y-44278964D01*
X205204874Y-44229473D01*
X205217520Y-44187786D01*
X205238055Y-44149368D01*
X205265692Y-44115692D01*
X205299368Y-44088055D01*
X205337786Y-44067520D01*
X205379473Y-44054874D01*
X205428964Y-44050000D01*
X206571036Y-44050000D01*
X206620527Y-44054874D01*
G37*
G36*
X210620527Y-42004874D02*
G01*
X210662214Y-42017520D01*
X210700632Y-42038055D01*
X210734308Y-42065692D01*
X210761945Y-42099368D01*
X210782480Y-42137786D01*
X210795126Y-42179473D01*
X210800000Y-42228964D01*
X210800000Y-43121036D01*
X210795126Y-43170527D01*
X210782480Y-43212214D01*
X210761945Y-43250632D01*
X210734308Y-43284308D01*
X210700632Y-43311945D01*
X210662214Y-43332480D01*
X210620527Y-43345126D01*
X210571036Y-43350000D01*
X209428964Y-43350000D01*
X209379473Y-43345126D01*
X209337786Y-43332480D01*
X209299368Y-43311945D01*
X209265692Y-43284308D01*
X209238055Y-43250632D01*
X209217520Y-43212214D01*
X209204874Y-43170527D01*
X209200000Y-43121036D01*
X209200000Y-42228964D01*
X209204874Y-42179473D01*
X209217520Y-42137786D01*
X209238055Y-42099368D01*
X209265692Y-42065692D01*
X209299368Y-42038055D01*
X209337786Y-42017520D01*
X209379473Y-42004874D01*
X209428964Y-42000000D01*
X210571036Y-42000000D01*
X210620527Y-42004874D01*
G37*
G36*
X206620527Y-42004874D02*
G01*
X206662214Y-42017520D01*
X206700632Y-42038055D01*
X206734308Y-42065692D01*
X206761945Y-42099368D01*
X206782480Y-42137786D01*
X206795126Y-42179473D01*
X206800000Y-42228964D01*
X206800000Y-43121036D01*
X206795126Y-43170527D01*
X206782480Y-43212214D01*
X206761945Y-43250632D01*
X206734308Y-43284308D01*
X206700632Y-43311945D01*
X206662214Y-43332480D01*
X206620527Y-43345126D01*
X206571036Y-43350000D01*
X205428964Y-43350000D01*
X205379473Y-43345126D01*
X205337786Y-43332480D01*
X205299368Y-43311945D01*
X205265692Y-43284308D01*
X205238055Y-43250632D01*
X205217520Y-43212214D01*
X205204874Y-43170527D01*
X205200000Y-43121036D01*
X205200000Y-42228964D01*
X205204874Y-42179473D01*
X205217520Y-42137786D01*
X205238055Y-42099368D01*
X205265692Y-42065692D01*
X205299368Y-42038055D01*
X205337786Y-42017520D01*
X205379473Y-42004874D01*
X205428964Y-42000000D01*
X206571036Y-42000000D01*
X206620527Y-42004874D01*
G37*
G36*
X199247935Y-41477663D02*
G01*
X199402624Y-41541738D01*
X199402626Y-41541739D01*
X199541844Y-41634761D01*
X199660238Y-41753155D01*
X199753260Y-41892373D01*
X199753261Y-41892375D01*
X199817336Y-42047064D01*
X199850000Y-42211280D01*
X199850000Y-42378718D01*
X199817336Y-42542934D01*
X199753261Y-42697623D01*
X199753260Y-42697625D01*
X199660238Y-42836843D01*
X199541844Y-42955237D01*
X199402626Y-43048259D01*
X199402625Y-43048260D01*
X199402624Y-43048260D01*
X199247935Y-43112335D01*
X199083719Y-43144999D01*
X198916281Y-43144999D01*
X198752065Y-43112335D01*
X198597376Y-43048260D01*
X198597375Y-43048260D01*
X198597374Y-43048259D01*
X198458156Y-42955237D01*
X198339762Y-42836843D01*
X198246740Y-42697625D01*
X198246739Y-42697623D01*
X198182664Y-42542934D01*
X198150000Y-42378718D01*
X198150000Y-42211280D01*
X198182664Y-42047064D01*
X198246739Y-41892375D01*
X198246740Y-41892373D01*
X198339762Y-41753155D01*
X198458156Y-41634761D01*
X198597374Y-41541739D01*
X198597376Y-41541738D01*
X198752065Y-41477663D01*
X198916281Y-41444999D01*
X199083719Y-41444999D01*
X199247935Y-41477663D01*
G37*
G36*
X192470527Y-40904874D02*
G01*
X192512214Y-40917520D01*
X192550632Y-40938055D01*
X192584308Y-40965692D01*
X192611945Y-40999368D01*
X192632480Y-41037786D01*
X192645126Y-41079473D01*
X192650000Y-41128964D01*
X192650000Y-42271036D01*
X192645126Y-42320527D01*
X192632480Y-42362214D01*
X192611945Y-42400632D01*
X192584308Y-42434308D01*
X192550632Y-42461945D01*
X192512214Y-42482480D01*
X192470527Y-42495126D01*
X192421036Y-42500000D01*
X191528964Y-42500000D01*
X191479473Y-42495126D01*
X191437786Y-42482480D01*
X191399368Y-42461945D01*
X191365692Y-42434308D01*
X191338055Y-42400632D01*
X191317520Y-42362214D01*
X191304874Y-42320527D01*
X191300000Y-42271036D01*
X191300000Y-41128964D01*
X191304874Y-41079473D01*
X191317520Y-41037786D01*
X191338055Y-40999368D01*
X191365692Y-40965692D01*
X191399368Y-40938055D01*
X191437786Y-40917520D01*
X191479473Y-40904874D01*
X191528964Y-40900000D01*
X192421036Y-40900000D01*
X192470527Y-40904874D01*
G37*
G36*
X194520527Y-40904874D02*
G01*
X194562214Y-40917520D01*
X194600632Y-40938055D01*
X194634308Y-40965692D01*
X194661945Y-40999368D01*
X194682480Y-41037786D01*
X194695126Y-41079473D01*
X194700000Y-41128964D01*
X194700000Y-42271036D01*
X194695126Y-42320527D01*
X194682480Y-42362214D01*
X194661945Y-42400632D01*
X194634308Y-42434308D01*
X194600632Y-42461945D01*
X194562214Y-42482480D01*
X194520527Y-42495126D01*
X194471036Y-42500000D01*
X193578964Y-42500000D01*
X193529473Y-42495126D01*
X193487786Y-42482480D01*
X193449368Y-42461945D01*
X193415692Y-42434308D01*
X193388055Y-42400632D01*
X193367520Y-42362214D01*
X193354874Y-42320527D01*
X193350000Y-42271036D01*
X193350000Y-41128964D01*
X193354874Y-41079473D01*
X193367520Y-41037786D01*
X193388055Y-40999368D01*
X193415692Y-40965692D01*
X193449368Y-40938055D01*
X193487786Y-40917520D01*
X193529473Y-40904874D01*
X193578964Y-40900000D01*
X194471036Y-40900000D01*
X194520527Y-40904874D01*
G37*
G36*
X214950000Y-41650000D02*
G01*
X213050000Y-41650000D01*
X213050000Y-39750000D01*
X214950000Y-39750000D01*
X214950000Y-41650000D01*
G37*
G36*
X224345336Y-39768254D02*
G01*
X224437105Y-39786508D01*
X224609994Y-39858121D01*
X224765590Y-39962087D01*
X224897913Y-40094410D01*
X225001879Y-40250006D01*
X225073492Y-40422895D01*
X225110000Y-40606433D01*
X225110000Y-40793567D01*
X225073492Y-40977105D01*
X225001879Y-41149994D01*
X224897913Y-41305590D01*
X224765590Y-41437913D01*
X224609994Y-41541879D01*
X224437105Y-41613492D01*
X224345336Y-41631746D01*
X224253568Y-41650000D01*
X224066432Y-41650000D01*
X223974664Y-41631746D01*
X223882895Y-41613492D01*
X223710006Y-41541879D01*
X223554410Y-41437913D01*
X223422087Y-41305590D01*
X223318121Y-41149994D01*
X223246508Y-40977105D01*
X223210000Y-40793567D01*
X223210000Y-40606433D01*
X223246508Y-40422895D01*
X223318121Y-40250006D01*
X223422087Y-40094410D01*
X223554410Y-39962087D01*
X223710006Y-39858121D01*
X223882895Y-39786508D01*
X223974664Y-39768254D01*
X224066432Y-39750000D01*
X224253568Y-39750000D01*
X224345336Y-39768254D01*
G37*
G36*
X226885336Y-39768254D02*
G01*
X226977105Y-39786508D01*
X227149994Y-39858121D01*
X227305590Y-39962087D01*
X227437913Y-40094410D01*
X227541879Y-40250006D01*
X227613492Y-40422895D01*
X227650000Y-40606433D01*
X227650000Y-40793567D01*
X227613492Y-40977105D01*
X227541879Y-41149994D01*
X227437913Y-41305590D01*
X227305590Y-41437913D01*
X227149994Y-41541879D01*
X226977105Y-41613492D01*
X226885336Y-41631746D01*
X226793568Y-41650000D01*
X226606432Y-41650000D01*
X226514664Y-41631746D01*
X226422895Y-41613492D01*
X226250006Y-41541879D01*
X226094410Y-41437913D01*
X225962087Y-41305590D01*
X225858121Y-41149994D01*
X225786508Y-40977105D01*
X225750000Y-40793567D01*
X225750000Y-40606433D01*
X225786508Y-40422895D01*
X225858121Y-40250006D01*
X225962087Y-40094410D01*
X226094410Y-39962087D01*
X226250006Y-39858121D01*
X226422895Y-39786508D01*
X226514664Y-39768254D01*
X226606432Y-39750000D01*
X226793568Y-39750000D01*
X226885336Y-39768254D01*
G37*
G36*
X221805336Y-39768254D02*
G01*
X221897105Y-39786508D01*
X222069994Y-39858121D01*
X222225590Y-39962087D01*
X222357913Y-40094410D01*
X222461879Y-40250006D01*
X222533492Y-40422895D01*
X222570000Y-40606433D01*
X222570000Y-40793567D01*
X222533492Y-40977105D01*
X222461879Y-41149994D01*
X222357913Y-41305590D01*
X222225590Y-41437913D01*
X222069994Y-41541879D01*
X221897105Y-41613492D01*
X221805336Y-41631746D01*
X221713568Y-41650000D01*
X221526432Y-41650000D01*
X221434664Y-41631746D01*
X221342895Y-41613492D01*
X221170006Y-41541879D01*
X221014410Y-41437913D01*
X220882087Y-41305590D01*
X220778121Y-41149994D01*
X220706508Y-40977105D01*
X220670000Y-40793567D01*
X220670000Y-40606433D01*
X220706508Y-40422895D01*
X220778121Y-40250006D01*
X220882087Y-40094410D01*
X221014410Y-39962087D01*
X221170006Y-39858121D01*
X221342895Y-39786508D01*
X221434664Y-39768254D01*
X221526432Y-39750000D01*
X221713568Y-39750000D01*
X221805336Y-39768254D01*
G37*
G36*
X216725336Y-39768254D02*
G01*
X216817105Y-39786508D01*
X216989994Y-39858121D01*
X217145590Y-39962087D01*
X217277913Y-40094410D01*
X217381879Y-40250006D01*
X217453492Y-40422895D01*
X217490000Y-40606433D01*
X217490000Y-40793567D01*
X217453492Y-40977105D01*
X217381879Y-41149994D01*
X217277913Y-41305590D01*
X217145590Y-41437913D01*
X216989994Y-41541879D01*
X216817105Y-41613492D01*
X216725336Y-41631746D01*
X216633568Y-41650000D01*
X216446432Y-41650000D01*
X216354664Y-41631746D01*
X216262895Y-41613492D01*
X216090006Y-41541879D01*
X215934410Y-41437913D01*
X215802087Y-41305590D01*
X215698121Y-41149994D01*
X215626508Y-40977105D01*
X215590000Y-40793567D01*
X215590000Y-40606433D01*
X215626508Y-40422895D01*
X215698121Y-40250006D01*
X215802087Y-40094410D01*
X215934410Y-39962087D01*
X216090006Y-39858121D01*
X216262895Y-39786508D01*
X216354664Y-39768254D01*
X216446432Y-39750000D01*
X216633568Y-39750000D01*
X216725336Y-39768254D01*
G37*
G36*
X219265336Y-39768254D02*
G01*
X219357105Y-39786508D01*
X219529994Y-39858121D01*
X219685590Y-39962087D01*
X219817913Y-40094410D01*
X219921879Y-40250006D01*
X219993492Y-40422895D01*
X220030000Y-40606433D01*
X220030000Y-40793567D01*
X219993492Y-40977105D01*
X219921879Y-41149994D01*
X219817913Y-41305590D01*
X219685590Y-41437913D01*
X219529994Y-41541879D01*
X219357105Y-41613492D01*
X219265336Y-41631746D01*
X219173568Y-41650000D01*
X218986432Y-41650000D01*
X218894664Y-41631746D01*
X218802895Y-41613492D01*
X218630006Y-41541879D01*
X218474410Y-41437913D01*
X218342087Y-41305590D01*
X218238121Y-41149994D01*
X218166508Y-40977105D01*
X218130000Y-40793567D01*
X218130000Y-40606433D01*
X218166508Y-40422895D01*
X218238121Y-40250006D01*
X218342087Y-40094410D01*
X218474410Y-39962087D01*
X218630006Y-39858121D01*
X218802895Y-39786508D01*
X218894664Y-39768254D01*
X218986432Y-39750000D01*
X219173568Y-39750000D01*
X219265336Y-39768254D01*
G37*
M02*
