M48
; DRILL file {KiCad 5.1.5-52549c5~84~ubuntu18.04.1} date tis 28 jan 2020 09:57:12
; FORMAT={-:-/ absolute / metric / decimal}
; #@! TF.CreationDate,2020-01-28T09:57:12+01:00
; #@! TF.GenerationSoftware,Kicad,Pcbnew,5.1.5-52549c5~84~ubuntu18.04.1
; #@! TF.FileFunction,Plated,1,2,PTH
FMAT,2
METRIC
T1C0.300
T2C0.800
T3C1.000
%
G90
G05
T1
X191.5Y-60.0
X191.9Y-44.1
X196.5Y-59.7
X204.596Y-53.616
X205.6Y-48.1
X207.5Y-63.475
X207.5Y-65.425
X207.9Y-60.4
X208.335Y-49.135
X212.8Y-43.5
X221.7Y-51.1
X227.3Y-50.2
T2
X199.0Y-42.295
X199.0Y-47.175
T3
X214.0Y-40.7
X216.54Y-40.7
X219.08Y-40.7
X221.62Y-40.7
X224.16Y-40.7
X226.7Y-40.7
T0
M30
