G04 #@! TF.GenerationSoftware,KiCad,Pcbnew,5.1.5-52549c5~84~ubuntu18.04.1*
G04 #@! TF.CreationDate,2020-02-13T09:09:10+01:00*
G04 #@! TF.ProjectId,project,70726f6a-6563-4742-9e6b-696361645f70,rev?*
G04 #@! TF.SameCoordinates,Original*
G04 #@! TF.FileFunction,Copper,L2,Bot*
G04 #@! TF.FilePolarity,Positive*
%FSLAX46Y46*%
G04 Gerber Fmt 4.6, Leading zero omitted, Abs format (unit mm)*
G04 Created by KiCad (PCBNEW 5.1.5-52549c5~84~ubuntu18.04.1) date 2020-02-13 09:09:10*
%MOMM*%
%LPD*%
G04 APERTURE LIST*
%ADD10O,1.700000X1.700000*%
%ADD11R,1.700000X1.700000*%
%ADD12C,2.000000*%
%ADD13R,2.000000X2.000000*%
%ADD14O,1.150000X1.800000*%
%ADD15O,1.450000X2.000000*%
%ADD16C,1.524000*%
%ADD17C,0.800000*%
%ADD18C,0.400000*%
%ADD19C,0.200000*%
%ADD20C,0.254000*%
G04 APERTURE END LIST*
D10*
X98100000Y-67940000D03*
X98100000Y-70480000D03*
X98100000Y-73020000D03*
X98100000Y-75560000D03*
D11*
X98100000Y-78100000D03*
D10*
X64240000Y-83000000D03*
X61700000Y-83000000D03*
X59160000Y-83000000D03*
X56620000Y-83000000D03*
X54080000Y-83000000D03*
X51540000Y-83000000D03*
D11*
X49000000Y-83000000D03*
D10*
X90960000Y-77900000D03*
D11*
X93500000Y-77900000D03*
D10*
X86100000Y-37300000D03*
X83560000Y-37300000D03*
X81020000Y-37300000D03*
X78480000Y-37300000D03*
X75940000Y-37300000D03*
D11*
X73400000Y-37300000D03*
D12*
X59600000Y-46600000D03*
D13*
X67200000Y-46600000D03*
D14*
X46225000Y-36850000D03*
X53975000Y-36850000D03*
D15*
X46375000Y-40650000D03*
X53825000Y-40650000D03*
D16*
X78500000Y-80500000D03*
X83500000Y-80500000D03*
X81000000Y-75500000D03*
D17*
X81500000Y-58200000D03*
X76400000Y-51600000D03*
X89800000Y-35800000D03*
X96900000Y-39200000D03*
X88300000Y-64100000D03*
X75000000Y-62100000D03*
X75100000Y-58600000D03*
X93300000Y-64700000D03*
X71800000Y-48000000D03*
X88300000Y-51400000D03*
X88300000Y-54000000D03*
X83900000Y-51400000D03*
X82400000Y-51400000D03*
X92500000Y-57800000D03*
X88300000Y-59800000D03*
X92520000Y-73020000D03*
X86000000Y-72500000D03*
X89400000Y-72200000D03*
X87600000Y-71700000D03*
X79700000Y-52500000D03*
X86000000Y-54200000D03*
X92800000Y-50300000D03*
X95500000Y-50300000D03*
X87900000Y-74300000D03*
D18*
X93300000Y-64700000D02*
X93300000Y-68300000D01*
X93300000Y-68300000D02*
X94900000Y-69900000D01*
X96850000Y-78100000D02*
X98100000Y-78100000D01*
X94900000Y-76150000D02*
X96850000Y-78100000D01*
X94900000Y-69900000D02*
X94900000Y-76150000D01*
X72150000Y-37300000D02*
X73400000Y-37300000D01*
X71800000Y-37650000D02*
X72150000Y-37300000D01*
X71800000Y-48000000D02*
X71800000Y-37650000D01*
D19*
X88300000Y-51400000D02*
X88300000Y-54000000D01*
X83900000Y-51400000D02*
X83900000Y-42100000D01*
X81020000Y-39220000D02*
X81020000Y-37300000D01*
X83900000Y-42100000D02*
X81020000Y-39220000D01*
X82400000Y-43760000D02*
X82400000Y-51400000D01*
X75940000Y-37300000D02*
X82400000Y-43760000D01*
X92500000Y-67800000D02*
X92500000Y-57800000D01*
X89500000Y-70800000D02*
X92500000Y-67800000D01*
X80077998Y-70800000D02*
X89500000Y-70800000D01*
X66727997Y-84150001D02*
X80077998Y-70800000D01*
X62850001Y-84150001D02*
X66727997Y-84150001D01*
X61700000Y-83000000D02*
X62850001Y-84150001D01*
X69800000Y-77700000D02*
X87700000Y-59800000D01*
X87700000Y-59800000D02*
X88300000Y-59800000D01*
X65297998Y-77700000D02*
X69800000Y-77700000D01*
X60847997Y-82150001D02*
X65297998Y-77700000D01*
X60009999Y-82150001D02*
X60847997Y-82150001D01*
X59160000Y-83000000D02*
X60009999Y-82150001D01*
X92520000Y-73020000D02*
X86520000Y-73020000D01*
X86520000Y-73020000D02*
X86000000Y-72500000D01*
X89400000Y-72200000D02*
X88100000Y-72200000D01*
X88100000Y-72200000D02*
X87600000Y-71700000D01*
X86000000Y-54200000D02*
X86000000Y-53634315D01*
X86000000Y-53634315D02*
X85765685Y-53400000D01*
X85765685Y-53400000D02*
X80600000Y-53400000D01*
X80600000Y-53400000D02*
X79700000Y-52500000D01*
X92800000Y-50300000D02*
X95500000Y-50300000D01*
X82200000Y-74300000D02*
X81000000Y-75500000D01*
X87900000Y-74300000D02*
X82200000Y-74300000D01*
D20*
G36*
X99873000Y-84873000D02*
G01*
X66876585Y-84873000D01*
X67010630Y-84832338D01*
X67138317Y-84764088D01*
X67250235Y-84672239D01*
X67273256Y-84644188D01*
X71555036Y-80362408D01*
X77103000Y-80362408D01*
X77103000Y-80637592D01*
X77156686Y-80907490D01*
X77261995Y-81161727D01*
X77414880Y-81390535D01*
X77609465Y-81585120D01*
X77838273Y-81738005D01*
X78092510Y-81843314D01*
X78362408Y-81897000D01*
X78637592Y-81897000D01*
X78907490Y-81843314D01*
X79161727Y-81738005D01*
X79390535Y-81585120D01*
X79585120Y-81390535D01*
X79738005Y-81161727D01*
X79843314Y-80907490D01*
X79897000Y-80637592D01*
X79897000Y-80362408D01*
X82103000Y-80362408D01*
X82103000Y-80637592D01*
X82156686Y-80907490D01*
X82261995Y-81161727D01*
X82414880Y-81390535D01*
X82609465Y-81585120D01*
X82838273Y-81738005D01*
X83092510Y-81843314D01*
X83362408Y-81897000D01*
X83637592Y-81897000D01*
X83907490Y-81843314D01*
X84161727Y-81738005D01*
X84390535Y-81585120D01*
X84585120Y-81390535D01*
X84738005Y-81161727D01*
X84843314Y-80907490D01*
X84897000Y-80637592D01*
X84897000Y-80362408D01*
X84843314Y-80092510D01*
X84738005Y-79838273D01*
X84585120Y-79609465D01*
X84390535Y-79414880D01*
X84161727Y-79261995D01*
X83907490Y-79156686D01*
X83637592Y-79103000D01*
X83362408Y-79103000D01*
X83092510Y-79156686D01*
X82838273Y-79261995D01*
X82609465Y-79414880D01*
X82414880Y-79609465D01*
X82261995Y-79838273D01*
X82156686Y-80092510D01*
X82103000Y-80362408D01*
X79897000Y-80362408D01*
X79843314Y-80092510D01*
X79738005Y-79838273D01*
X79585120Y-79609465D01*
X79390535Y-79414880D01*
X79161727Y-79261995D01*
X78907490Y-79156686D01*
X78637592Y-79103000D01*
X78362408Y-79103000D01*
X78092510Y-79156686D01*
X77838273Y-79261995D01*
X77609465Y-79414880D01*
X77414880Y-79609465D01*
X77261995Y-79838273D01*
X77156686Y-80092510D01*
X77103000Y-80362408D01*
X71555036Y-80362408D01*
X80382445Y-71535000D01*
X85625131Y-71535000D01*
X85509744Y-71582795D01*
X85340226Y-71696063D01*
X85196063Y-71840226D01*
X85082795Y-72009744D01*
X85004774Y-72198102D01*
X84965000Y-72398061D01*
X84965000Y-72601939D01*
X85004774Y-72801898D01*
X85082795Y-72990256D01*
X85196063Y-73159774D01*
X85340226Y-73303937D01*
X85509744Y-73417205D01*
X85698102Y-73495226D01*
X85898061Y-73535000D01*
X85991822Y-73535000D01*
X85997762Y-73542238D01*
X86025497Y-73565000D01*
X82236094Y-73565000D01*
X82199999Y-73561445D01*
X82163904Y-73565000D01*
X82163895Y-73565000D01*
X82055915Y-73575635D01*
X81917367Y-73617663D01*
X81789680Y-73685913D01*
X81677762Y-73777762D01*
X81654746Y-73805807D01*
X81321059Y-74139494D01*
X81137592Y-74103000D01*
X80862408Y-74103000D01*
X80592510Y-74156686D01*
X80338273Y-74261995D01*
X80109465Y-74414880D01*
X79914880Y-74609465D01*
X79761995Y-74838273D01*
X79656686Y-75092510D01*
X79603000Y-75362408D01*
X79603000Y-75637592D01*
X79656686Y-75907490D01*
X79761995Y-76161727D01*
X79914880Y-76390535D01*
X80109465Y-76585120D01*
X80338273Y-76738005D01*
X80592510Y-76843314D01*
X80862408Y-76897000D01*
X81137592Y-76897000D01*
X81407490Y-76843314D01*
X81661727Y-76738005D01*
X81890535Y-76585120D01*
X82085120Y-76390535D01*
X82238005Y-76161727D01*
X82343314Y-75907490D01*
X82397000Y-75637592D01*
X82397000Y-75362408D01*
X82360506Y-75178941D01*
X82504447Y-75035000D01*
X87171289Y-75035000D01*
X87240226Y-75103937D01*
X87409744Y-75217205D01*
X87598102Y-75295226D01*
X87798061Y-75335000D01*
X88001939Y-75335000D01*
X88201898Y-75295226D01*
X88390256Y-75217205D01*
X88559774Y-75103937D01*
X88703937Y-74959774D01*
X88817205Y-74790256D01*
X88895226Y-74601898D01*
X88935000Y-74401939D01*
X88935000Y-74198061D01*
X88895226Y-73998102D01*
X88817205Y-73809744D01*
X88780626Y-73755000D01*
X91791289Y-73755000D01*
X91860226Y-73823937D01*
X92029744Y-73937205D01*
X92218102Y-74015226D01*
X92418061Y-74055000D01*
X92621939Y-74055000D01*
X92821898Y-74015226D01*
X93010256Y-73937205D01*
X93179774Y-73823937D01*
X93323937Y-73679774D01*
X93437205Y-73510256D01*
X93515226Y-73321898D01*
X93555000Y-73121939D01*
X93555000Y-72918061D01*
X93515226Y-72718102D01*
X93437205Y-72529744D01*
X93323937Y-72360226D01*
X93179774Y-72216063D01*
X93010256Y-72102795D01*
X92821898Y-72024774D01*
X92621939Y-71985000D01*
X92418061Y-71985000D01*
X92218102Y-72024774D01*
X92029744Y-72102795D01*
X91860226Y-72216063D01*
X91791289Y-72285000D01*
X90435000Y-72285000D01*
X90435000Y-72098061D01*
X90395226Y-71898102D01*
X90317205Y-71709744D01*
X90203937Y-71540226D01*
X90059774Y-71396063D01*
X89989499Y-71349107D01*
X90022238Y-71322238D01*
X90045259Y-71294187D01*
X92592241Y-68747206D01*
X92602364Y-68766145D01*
X92602365Y-68766146D01*
X92706710Y-68893291D01*
X92738574Y-68919441D01*
X94065000Y-70245869D01*
X94065001Y-76108972D01*
X94060960Y-76150000D01*
X94077082Y-76313688D01*
X94106883Y-76411928D01*
X92650000Y-76411928D01*
X92525518Y-76424188D01*
X92405820Y-76460498D01*
X92295506Y-76519463D01*
X92198815Y-76598815D01*
X92119463Y-76695506D01*
X92060498Y-76805820D01*
X92038487Y-76878380D01*
X91906632Y-76746525D01*
X91663411Y-76584010D01*
X91393158Y-76472068D01*
X91106260Y-76415000D01*
X90813740Y-76415000D01*
X90526842Y-76472068D01*
X90256589Y-76584010D01*
X90013368Y-76746525D01*
X89806525Y-76953368D01*
X89644010Y-77196589D01*
X89532068Y-77466842D01*
X89475000Y-77753740D01*
X89475000Y-78046260D01*
X89532068Y-78333158D01*
X89644010Y-78603411D01*
X89806525Y-78846632D01*
X90013368Y-79053475D01*
X90256589Y-79215990D01*
X90526842Y-79327932D01*
X90813740Y-79385000D01*
X91106260Y-79385000D01*
X91393158Y-79327932D01*
X91663411Y-79215990D01*
X91906632Y-79053475D01*
X92038487Y-78921620D01*
X92060498Y-78994180D01*
X92119463Y-79104494D01*
X92198815Y-79201185D01*
X92295506Y-79280537D01*
X92405820Y-79339502D01*
X92525518Y-79375812D01*
X92650000Y-79388072D01*
X94350000Y-79388072D01*
X94474482Y-79375812D01*
X94594180Y-79339502D01*
X94704494Y-79280537D01*
X94801185Y-79201185D01*
X94880537Y-79104494D01*
X94939502Y-78994180D01*
X94975812Y-78874482D01*
X94988072Y-78750000D01*
X94988072Y-77418939D01*
X96230559Y-78661427D01*
X96256709Y-78693291D01*
X96383854Y-78797636D01*
X96528913Y-78875172D01*
X96611928Y-78900354D01*
X96611928Y-78950000D01*
X96624188Y-79074482D01*
X96660498Y-79194180D01*
X96719463Y-79304494D01*
X96798815Y-79401185D01*
X96895506Y-79480537D01*
X97005820Y-79539502D01*
X97125518Y-79575812D01*
X97250000Y-79588072D01*
X98950000Y-79588072D01*
X99074482Y-79575812D01*
X99194180Y-79539502D01*
X99304494Y-79480537D01*
X99401185Y-79401185D01*
X99480537Y-79304494D01*
X99539502Y-79194180D01*
X99575812Y-79074482D01*
X99588072Y-78950000D01*
X99588072Y-77250000D01*
X99575812Y-77125518D01*
X99539502Y-77005820D01*
X99480537Y-76895506D01*
X99401185Y-76798815D01*
X99304494Y-76719463D01*
X99194180Y-76660498D01*
X99121620Y-76638487D01*
X99253475Y-76506632D01*
X99415990Y-76263411D01*
X99527932Y-75993158D01*
X99585000Y-75706260D01*
X99585000Y-75413740D01*
X99527932Y-75126842D01*
X99415990Y-74856589D01*
X99253475Y-74613368D01*
X99046632Y-74406525D01*
X98872240Y-74290000D01*
X99046632Y-74173475D01*
X99253475Y-73966632D01*
X99415990Y-73723411D01*
X99527932Y-73453158D01*
X99585000Y-73166260D01*
X99585000Y-72873740D01*
X99527932Y-72586842D01*
X99415990Y-72316589D01*
X99253475Y-72073368D01*
X99046632Y-71866525D01*
X98864466Y-71744805D01*
X98981355Y-71675178D01*
X99197588Y-71480269D01*
X99371641Y-71246920D01*
X99496825Y-70984099D01*
X99541476Y-70836890D01*
X99420155Y-70607000D01*
X98227000Y-70607000D01*
X98227000Y-70627000D01*
X97973000Y-70627000D01*
X97973000Y-70607000D01*
X96779845Y-70607000D01*
X96658524Y-70836890D01*
X96703175Y-70984099D01*
X96828359Y-71246920D01*
X97002412Y-71480269D01*
X97218645Y-71675178D01*
X97335534Y-71744805D01*
X97153368Y-71866525D01*
X96946525Y-72073368D01*
X96784010Y-72316589D01*
X96672068Y-72586842D01*
X96615000Y-72873740D01*
X96615000Y-73166260D01*
X96672068Y-73453158D01*
X96784010Y-73723411D01*
X96946525Y-73966632D01*
X97153368Y-74173475D01*
X97327760Y-74290000D01*
X97153368Y-74406525D01*
X96946525Y-74613368D01*
X96784010Y-74856589D01*
X96672068Y-75126842D01*
X96615000Y-75413740D01*
X96615000Y-75706260D01*
X96672068Y-75993158D01*
X96784010Y-76263411D01*
X96946525Y-76506632D01*
X97078380Y-76638487D01*
X97005820Y-76660498D01*
X96895506Y-76719463D01*
X96798815Y-76798815D01*
X96767653Y-76836786D01*
X95735000Y-75804133D01*
X95735000Y-69941018D01*
X95739040Y-69900000D01*
X95722918Y-69736312D01*
X95675172Y-69578913D01*
X95597636Y-69433854D01*
X95519439Y-69338570D01*
X95519437Y-69338568D01*
X95493291Y-69306709D01*
X95461433Y-69280564D01*
X94477758Y-68296890D01*
X96658524Y-68296890D01*
X96703175Y-68444099D01*
X96828359Y-68706920D01*
X97002412Y-68940269D01*
X97218645Y-69135178D01*
X97344255Y-69210000D01*
X97218645Y-69284822D01*
X97002412Y-69479731D01*
X96828359Y-69713080D01*
X96703175Y-69975901D01*
X96658524Y-70123110D01*
X96779845Y-70353000D01*
X97973000Y-70353000D01*
X97973000Y-68067000D01*
X98227000Y-68067000D01*
X98227000Y-70353000D01*
X99420155Y-70353000D01*
X99541476Y-70123110D01*
X99496825Y-69975901D01*
X99371641Y-69713080D01*
X99197588Y-69479731D01*
X98981355Y-69284822D01*
X98855745Y-69210000D01*
X98981355Y-69135178D01*
X99197588Y-68940269D01*
X99371641Y-68706920D01*
X99496825Y-68444099D01*
X99541476Y-68296890D01*
X99420155Y-68067000D01*
X98227000Y-68067000D01*
X97973000Y-68067000D01*
X96779845Y-68067000D01*
X96658524Y-68296890D01*
X94477758Y-68296890D01*
X94135000Y-67954133D01*
X94135000Y-67583110D01*
X96658524Y-67583110D01*
X96779845Y-67813000D01*
X97973000Y-67813000D01*
X97973000Y-66619186D01*
X98227000Y-66619186D01*
X98227000Y-67813000D01*
X99420155Y-67813000D01*
X99541476Y-67583110D01*
X99496825Y-67435901D01*
X99371641Y-67173080D01*
X99197588Y-66939731D01*
X98981355Y-66744822D01*
X98731252Y-66595843D01*
X98456891Y-66498519D01*
X98227000Y-66619186D01*
X97973000Y-66619186D01*
X97743109Y-66498519D01*
X97468748Y-66595843D01*
X97218645Y-66744822D01*
X97002412Y-66939731D01*
X96828359Y-67173080D01*
X96703175Y-67435901D01*
X96658524Y-67583110D01*
X94135000Y-67583110D01*
X94135000Y-65313285D01*
X94217205Y-65190256D01*
X94295226Y-65001898D01*
X94335000Y-64801939D01*
X94335000Y-64598061D01*
X94295226Y-64398102D01*
X94217205Y-64209744D01*
X94103937Y-64040226D01*
X93959774Y-63896063D01*
X93790256Y-63782795D01*
X93601898Y-63704774D01*
X93401939Y-63665000D01*
X93235000Y-63665000D01*
X93235000Y-58528711D01*
X93303937Y-58459774D01*
X93417205Y-58290256D01*
X93495226Y-58101898D01*
X93535000Y-57901939D01*
X93535000Y-57698061D01*
X93495226Y-57498102D01*
X93417205Y-57309744D01*
X93303937Y-57140226D01*
X93159774Y-56996063D01*
X92990256Y-56882795D01*
X92801898Y-56804774D01*
X92601939Y-56765000D01*
X92398061Y-56765000D01*
X92198102Y-56804774D01*
X92009744Y-56882795D01*
X91840226Y-56996063D01*
X91696063Y-57140226D01*
X91582795Y-57309744D01*
X91504774Y-57498102D01*
X91465000Y-57698061D01*
X91465000Y-57901939D01*
X91504774Y-58101898D01*
X91582795Y-58290256D01*
X91696063Y-58459774D01*
X91765001Y-58528712D01*
X91765000Y-67495553D01*
X89195554Y-70065000D01*
X80114092Y-70065000D01*
X80077997Y-70061445D01*
X80041902Y-70065000D01*
X80041893Y-70065000D01*
X79933913Y-70075635D01*
X79795365Y-70117663D01*
X79667678Y-70185913D01*
X79555760Y-70277762D01*
X79532744Y-70305807D01*
X66423551Y-83415001D01*
X65671544Y-83415001D01*
X65725000Y-83146260D01*
X65725000Y-82853740D01*
X65667932Y-82566842D01*
X65555990Y-82296589D01*
X65393475Y-82053368D01*
X65186632Y-81846525D01*
X64943411Y-81684010D01*
X64673158Y-81572068D01*
X64386260Y-81515000D01*
X64093740Y-81515000D01*
X63806842Y-81572068D01*
X63536589Y-81684010D01*
X63293368Y-81846525D01*
X63086525Y-82053368D01*
X62970000Y-82227760D01*
X62853475Y-82053368D01*
X62646632Y-81846525D01*
X62403411Y-81684010D01*
X62368072Y-81669372D01*
X65602445Y-78435000D01*
X69763895Y-78435000D01*
X69800000Y-78438556D01*
X69836105Y-78435000D01*
X69944085Y-78424365D01*
X70082633Y-78382337D01*
X70210320Y-78314087D01*
X70322238Y-78222238D01*
X70345259Y-78194187D01*
X87818581Y-60720866D01*
X87998102Y-60795226D01*
X88198061Y-60835000D01*
X88401939Y-60835000D01*
X88601898Y-60795226D01*
X88790256Y-60717205D01*
X88959774Y-60603937D01*
X89103937Y-60459774D01*
X89217205Y-60290256D01*
X89295226Y-60101898D01*
X89335000Y-59901939D01*
X89335000Y-59698061D01*
X89295226Y-59498102D01*
X89217205Y-59309744D01*
X89103937Y-59140226D01*
X88959774Y-58996063D01*
X88790256Y-58882795D01*
X88601898Y-58804774D01*
X88401939Y-58765000D01*
X88198061Y-58765000D01*
X87998102Y-58804774D01*
X87809744Y-58882795D01*
X87640226Y-58996063D01*
X87561172Y-59075117D01*
X87555915Y-59075635D01*
X87417367Y-59117663D01*
X87289680Y-59185913D01*
X87177762Y-59277762D01*
X87154746Y-59305807D01*
X69495554Y-76965000D01*
X65334103Y-76965000D01*
X65297998Y-76961444D01*
X65261893Y-76965000D01*
X65153913Y-76975635D01*
X65015365Y-77017663D01*
X64887678Y-77085913D01*
X64775760Y-77177762D01*
X64752744Y-77205807D01*
X60543551Y-81415001D01*
X60046095Y-81415001D01*
X60009998Y-81411446D01*
X59973901Y-81415001D01*
X59973894Y-81415001D01*
X59880131Y-81424236D01*
X59865913Y-81425636D01*
X59823885Y-81438385D01*
X59727366Y-81467664D01*
X59599679Y-81535914D01*
X59562948Y-81566059D01*
X59306260Y-81515000D01*
X59013740Y-81515000D01*
X58726842Y-81572068D01*
X58456589Y-81684010D01*
X58213368Y-81846525D01*
X58006525Y-82053368D01*
X57890000Y-82227760D01*
X57773475Y-82053368D01*
X57566632Y-81846525D01*
X57323411Y-81684010D01*
X57053158Y-81572068D01*
X56766260Y-81515000D01*
X56473740Y-81515000D01*
X56186842Y-81572068D01*
X55916589Y-81684010D01*
X55673368Y-81846525D01*
X55466525Y-82053368D01*
X55350000Y-82227760D01*
X55233475Y-82053368D01*
X55026632Y-81846525D01*
X54783411Y-81684010D01*
X54513158Y-81572068D01*
X54226260Y-81515000D01*
X53933740Y-81515000D01*
X53646842Y-81572068D01*
X53376589Y-81684010D01*
X53133368Y-81846525D01*
X52926525Y-82053368D01*
X52810000Y-82227760D01*
X52693475Y-82053368D01*
X52486632Y-81846525D01*
X52243411Y-81684010D01*
X51973158Y-81572068D01*
X51686260Y-81515000D01*
X51393740Y-81515000D01*
X51106842Y-81572068D01*
X50836589Y-81684010D01*
X50593368Y-81846525D01*
X50461513Y-81978380D01*
X50439502Y-81905820D01*
X50380537Y-81795506D01*
X50301185Y-81698815D01*
X50204494Y-81619463D01*
X50094180Y-81560498D01*
X49974482Y-81524188D01*
X49850000Y-81511928D01*
X49285750Y-81515000D01*
X49127000Y-81673750D01*
X49127000Y-82873000D01*
X49147000Y-82873000D01*
X49147000Y-83127000D01*
X49127000Y-83127000D01*
X49127000Y-84326250D01*
X49285750Y-84485000D01*
X49850000Y-84488072D01*
X49974482Y-84475812D01*
X50094180Y-84439502D01*
X50204494Y-84380537D01*
X50301185Y-84301185D01*
X50380537Y-84204494D01*
X50439502Y-84094180D01*
X50461513Y-84021620D01*
X50593368Y-84153475D01*
X50836589Y-84315990D01*
X51106842Y-84427932D01*
X51393740Y-84485000D01*
X51686260Y-84485000D01*
X51973158Y-84427932D01*
X52243411Y-84315990D01*
X52486632Y-84153475D01*
X52693475Y-83946632D01*
X52810000Y-83772240D01*
X52926525Y-83946632D01*
X53133368Y-84153475D01*
X53376589Y-84315990D01*
X53646842Y-84427932D01*
X53933740Y-84485000D01*
X54226260Y-84485000D01*
X54513158Y-84427932D01*
X54783411Y-84315990D01*
X55026632Y-84153475D01*
X55233475Y-83946632D01*
X55350000Y-83772240D01*
X55466525Y-83946632D01*
X55673368Y-84153475D01*
X55916589Y-84315990D01*
X56186842Y-84427932D01*
X56473740Y-84485000D01*
X56766260Y-84485000D01*
X57053158Y-84427932D01*
X57323411Y-84315990D01*
X57566632Y-84153475D01*
X57773475Y-83946632D01*
X57890000Y-83772240D01*
X58006525Y-83946632D01*
X58213368Y-84153475D01*
X58456589Y-84315990D01*
X58726842Y-84427932D01*
X59013740Y-84485000D01*
X59306260Y-84485000D01*
X59593158Y-84427932D01*
X59863411Y-84315990D01*
X60106632Y-84153475D01*
X60313475Y-83946632D01*
X60430000Y-83772240D01*
X60546525Y-83946632D01*
X60753368Y-84153475D01*
X60996589Y-84315990D01*
X61266842Y-84427932D01*
X61553740Y-84485000D01*
X61846260Y-84485000D01*
X62095897Y-84435344D01*
X62304747Y-84644194D01*
X62327763Y-84672239D01*
X62439681Y-84764088D01*
X62567368Y-84832338D01*
X62663887Y-84861617D01*
X62701412Y-84873000D01*
X44127000Y-84873000D01*
X44127000Y-83850000D01*
X47511928Y-83850000D01*
X47524188Y-83974482D01*
X47560498Y-84094180D01*
X47619463Y-84204494D01*
X47698815Y-84301185D01*
X47795506Y-84380537D01*
X47905820Y-84439502D01*
X48025518Y-84475812D01*
X48150000Y-84488072D01*
X48714250Y-84485000D01*
X48873000Y-84326250D01*
X48873000Y-83127000D01*
X47673750Y-83127000D01*
X47515000Y-83285750D01*
X47511928Y-83850000D01*
X44127000Y-83850000D01*
X44127000Y-82150000D01*
X47511928Y-82150000D01*
X47515000Y-82714250D01*
X47673750Y-82873000D01*
X48873000Y-82873000D01*
X48873000Y-81673750D01*
X48714250Y-81515000D01*
X48150000Y-81511928D01*
X48025518Y-81524188D01*
X47905820Y-81560498D01*
X47795506Y-81619463D01*
X47698815Y-81698815D01*
X47619463Y-81795506D01*
X47560498Y-81905820D01*
X47524188Y-82025518D01*
X47511928Y-82150000D01*
X44127000Y-82150000D01*
X44127000Y-52398061D01*
X78665000Y-52398061D01*
X78665000Y-52601939D01*
X78704774Y-52801898D01*
X78782795Y-52990256D01*
X78896063Y-53159774D01*
X79040226Y-53303937D01*
X79209744Y-53417205D01*
X79398102Y-53495226D01*
X79598061Y-53535000D01*
X79695553Y-53535000D01*
X80054746Y-53894193D01*
X80077762Y-53922238D01*
X80189680Y-54014087D01*
X80317367Y-54082337D01*
X80455915Y-54124365D01*
X80563895Y-54135000D01*
X80563904Y-54135000D01*
X80599999Y-54138555D01*
X80636094Y-54135000D01*
X84965000Y-54135000D01*
X84965000Y-54301939D01*
X85004774Y-54501898D01*
X85082795Y-54690256D01*
X85196063Y-54859774D01*
X85340226Y-55003937D01*
X85509744Y-55117205D01*
X85698102Y-55195226D01*
X85898061Y-55235000D01*
X86101939Y-55235000D01*
X86301898Y-55195226D01*
X86490256Y-55117205D01*
X86659774Y-55003937D01*
X86803937Y-54859774D01*
X86917205Y-54690256D01*
X86995226Y-54501898D01*
X87035000Y-54301939D01*
X87035000Y-54098061D01*
X86995226Y-53898102D01*
X86917205Y-53709744D01*
X86803937Y-53540226D01*
X86711487Y-53447776D01*
X86682337Y-53351682D01*
X86614087Y-53223995D01*
X86522238Y-53112077D01*
X86494187Y-53089056D01*
X86310944Y-52905813D01*
X86287923Y-52877762D01*
X86176005Y-52785913D01*
X86048318Y-52717663D01*
X85909770Y-52675635D01*
X85801790Y-52665000D01*
X85765685Y-52661444D01*
X85729580Y-52665000D01*
X80904447Y-52665000D01*
X80735000Y-52495553D01*
X80735000Y-52398061D01*
X80695226Y-52198102D01*
X80617205Y-52009744D01*
X80503937Y-51840226D01*
X80359774Y-51696063D01*
X80190256Y-51582795D01*
X80001898Y-51504774D01*
X79801939Y-51465000D01*
X79598061Y-51465000D01*
X79398102Y-51504774D01*
X79209744Y-51582795D01*
X79040226Y-51696063D01*
X78896063Y-51840226D01*
X78782795Y-52009744D01*
X78704774Y-52198102D01*
X78665000Y-52398061D01*
X44127000Y-52398061D01*
X44127000Y-47735413D01*
X58644192Y-47735413D01*
X58739956Y-47999814D01*
X59029571Y-48140704D01*
X59341108Y-48222384D01*
X59662595Y-48241718D01*
X59981675Y-48197961D01*
X60286088Y-48092795D01*
X60460044Y-47999814D01*
X60555808Y-47735413D01*
X59600000Y-46779605D01*
X58644192Y-47735413D01*
X44127000Y-47735413D01*
X44127000Y-46662595D01*
X57958282Y-46662595D01*
X58002039Y-46981675D01*
X58107205Y-47286088D01*
X58200186Y-47460044D01*
X58464587Y-47555808D01*
X59420395Y-46600000D01*
X59779605Y-46600000D01*
X60735413Y-47555808D01*
X60999814Y-47460044D01*
X61140704Y-47170429D01*
X61222384Y-46858892D01*
X61241718Y-46537405D01*
X61197961Y-46218325D01*
X61092795Y-45913912D01*
X60999814Y-45739956D01*
X60735413Y-45644192D01*
X59779605Y-46600000D01*
X59420395Y-46600000D01*
X58464587Y-45644192D01*
X58200186Y-45739956D01*
X58059296Y-46029571D01*
X57977616Y-46341108D01*
X57958282Y-46662595D01*
X44127000Y-46662595D01*
X44127000Y-45464587D01*
X58644192Y-45464587D01*
X59600000Y-46420395D01*
X60420395Y-45600000D01*
X65561928Y-45600000D01*
X65561928Y-47600000D01*
X65574188Y-47724482D01*
X65610498Y-47844180D01*
X65669463Y-47954494D01*
X65748815Y-48051185D01*
X65845506Y-48130537D01*
X65955820Y-48189502D01*
X66075518Y-48225812D01*
X66200000Y-48238072D01*
X68200000Y-48238072D01*
X68324482Y-48225812D01*
X68444180Y-48189502D01*
X68554494Y-48130537D01*
X68651185Y-48051185D01*
X68730537Y-47954494D01*
X68760701Y-47898061D01*
X70765000Y-47898061D01*
X70765000Y-48101939D01*
X70804774Y-48301898D01*
X70882795Y-48490256D01*
X70996063Y-48659774D01*
X71140226Y-48803937D01*
X71309744Y-48917205D01*
X71498102Y-48995226D01*
X71698061Y-49035000D01*
X71901939Y-49035000D01*
X72101898Y-48995226D01*
X72290256Y-48917205D01*
X72459774Y-48803937D01*
X72603937Y-48659774D01*
X72717205Y-48490256D01*
X72795226Y-48301898D01*
X72835000Y-48101939D01*
X72835000Y-47898061D01*
X72795226Y-47698102D01*
X72717205Y-47509744D01*
X72635000Y-47386715D01*
X72635000Y-38788072D01*
X74250000Y-38788072D01*
X74374482Y-38775812D01*
X74494180Y-38739502D01*
X74604494Y-38680537D01*
X74701185Y-38601185D01*
X74780537Y-38504494D01*
X74839502Y-38394180D01*
X74861513Y-38321620D01*
X74993368Y-38453475D01*
X75236589Y-38615990D01*
X75506842Y-38727932D01*
X75793740Y-38785000D01*
X76086260Y-38785000D01*
X76335897Y-38735344D01*
X81665000Y-44064447D01*
X81665001Y-50671288D01*
X81596063Y-50740226D01*
X81482795Y-50909744D01*
X81404774Y-51098102D01*
X81365000Y-51298061D01*
X81365000Y-51501939D01*
X81404774Y-51701898D01*
X81482795Y-51890256D01*
X81596063Y-52059774D01*
X81740226Y-52203937D01*
X81909744Y-52317205D01*
X82098102Y-52395226D01*
X82298061Y-52435000D01*
X82501939Y-52435000D01*
X82701898Y-52395226D01*
X82890256Y-52317205D01*
X83059774Y-52203937D01*
X83150000Y-52113711D01*
X83240226Y-52203937D01*
X83409744Y-52317205D01*
X83598102Y-52395226D01*
X83798061Y-52435000D01*
X84001939Y-52435000D01*
X84201898Y-52395226D01*
X84390256Y-52317205D01*
X84559774Y-52203937D01*
X84703937Y-52059774D01*
X84817205Y-51890256D01*
X84895226Y-51701898D01*
X84935000Y-51501939D01*
X84935000Y-51298061D01*
X87265000Y-51298061D01*
X87265000Y-51501939D01*
X87304774Y-51701898D01*
X87382795Y-51890256D01*
X87496063Y-52059774D01*
X87565000Y-52128711D01*
X87565001Y-53271288D01*
X87496063Y-53340226D01*
X87382795Y-53509744D01*
X87304774Y-53698102D01*
X87265000Y-53898061D01*
X87265000Y-54101939D01*
X87304774Y-54301898D01*
X87382795Y-54490256D01*
X87496063Y-54659774D01*
X87640226Y-54803937D01*
X87809744Y-54917205D01*
X87998102Y-54995226D01*
X88198061Y-55035000D01*
X88401939Y-55035000D01*
X88601898Y-54995226D01*
X88790256Y-54917205D01*
X88959774Y-54803937D01*
X89103937Y-54659774D01*
X89217205Y-54490256D01*
X89295226Y-54301898D01*
X89335000Y-54101939D01*
X89335000Y-53898061D01*
X89295226Y-53698102D01*
X89217205Y-53509744D01*
X89103937Y-53340226D01*
X89035000Y-53271289D01*
X89035000Y-52128711D01*
X89103937Y-52059774D01*
X89217205Y-51890256D01*
X89295226Y-51701898D01*
X89335000Y-51501939D01*
X89335000Y-51298061D01*
X89295226Y-51098102D01*
X89217205Y-50909744D01*
X89103937Y-50740226D01*
X88959774Y-50596063D01*
X88790256Y-50482795D01*
X88601898Y-50404774D01*
X88401939Y-50365000D01*
X88198061Y-50365000D01*
X87998102Y-50404774D01*
X87809744Y-50482795D01*
X87640226Y-50596063D01*
X87496063Y-50740226D01*
X87382795Y-50909744D01*
X87304774Y-51098102D01*
X87265000Y-51298061D01*
X84935000Y-51298061D01*
X84895226Y-51098102D01*
X84817205Y-50909744D01*
X84703937Y-50740226D01*
X84635000Y-50671289D01*
X84635000Y-50198061D01*
X91765000Y-50198061D01*
X91765000Y-50401939D01*
X91804774Y-50601898D01*
X91882795Y-50790256D01*
X91996063Y-50959774D01*
X92140226Y-51103937D01*
X92309744Y-51217205D01*
X92498102Y-51295226D01*
X92698061Y-51335000D01*
X92901939Y-51335000D01*
X93101898Y-51295226D01*
X93290256Y-51217205D01*
X93459774Y-51103937D01*
X93528711Y-51035000D01*
X94771289Y-51035000D01*
X94840226Y-51103937D01*
X95009744Y-51217205D01*
X95198102Y-51295226D01*
X95398061Y-51335000D01*
X95601939Y-51335000D01*
X95801898Y-51295226D01*
X95990256Y-51217205D01*
X96159774Y-51103937D01*
X96303937Y-50959774D01*
X96417205Y-50790256D01*
X96495226Y-50601898D01*
X96535000Y-50401939D01*
X96535000Y-50198061D01*
X96495226Y-49998102D01*
X96417205Y-49809744D01*
X96303937Y-49640226D01*
X96159774Y-49496063D01*
X95990256Y-49382795D01*
X95801898Y-49304774D01*
X95601939Y-49265000D01*
X95398061Y-49265000D01*
X95198102Y-49304774D01*
X95009744Y-49382795D01*
X94840226Y-49496063D01*
X94771289Y-49565000D01*
X93528711Y-49565000D01*
X93459774Y-49496063D01*
X93290256Y-49382795D01*
X93101898Y-49304774D01*
X92901939Y-49265000D01*
X92698061Y-49265000D01*
X92498102Y-49304774D01*
X92309744Y-49382795D01*
X92140226Y-49496063D01*
X91996063Y-49640226D01*
X91882795Y-49809744D01*
X91804774Y-49998102D01*
X91765000Y-50198061D01*
X84635000Y-50198061D01*
X84635000Y-42136104D01*
X84638556Y-42099999D01*
X84624365Y-41955914D01*
X84611616Y-41913886D01*
X84582337Y-41817367D01*
X84514087Y-41689680D01*
X84422238Y-41577762D01*
X84394193Y-41554746D01*
X81755000Y-38915554D01*
X81755000Y-38594883D01*
X81966632Y-38453475D01*
X82173475Y-38246632D01*
X82290000Y-38072240D01*
X82406525Y-38246632D01*
X82613368Y-38453475D01*
X82856589Y-38615990D01*
X83126842Y-38727932D01*
X83413740Y-38785000D01*
X83706260Y-38785000D01*
X83993158Y-38727932D01*
X84263411Y-38615990D01*
X84506632Y-38453475D01*
X84713475Y-38246632D01*
X84830000Y-38072240D01*
X84946525Y-38246632D01*
X85153368Y-38453475D01*
X85396589Y-38615990D01*
X85666842Y-38727932D01*
X85953740Y-38785000D01*
X86246260Y-38785000D01*
X86533158Y-38727932D01*
X86803411Y-38615990D01*
X87046632Y-38453475D01*
X87253475Y-38246632D01*
X87415990Y-38003411D01*
X87527932Y-37733158D01*
X87585000Y-37446260D01*
X87585000Y-37153740D01*
X87527932Y-36866842D01*
X87415990Y-36596589D01*
X87253475Y-36353368D01*
X87046632Y-36146525D01*
X86803411Y-35984010D01*
X86533158Y-35872068D01*
X86246260Y-35815000D01*
X85953740Y-35815000D01*
X85666842Y-35872068D01*
X85396589Y-35984010D01*
X85153368Y-36146525D01*
X84946525Y-36353368D01*
X84830000Y-36527760D01*
X84713475Y-36353368D01*
X84506632Y-36146525D01*
X84263411Y-35984010D01*
X83993158Y-35872068D01*
X83706260Y-35815000D01*
X83413740Y-35815000D01*
X83126842Y-35872068D01*
X82856589Y-35984010D01*
X82613368Y-36146525D01*
X82406525Y-36353368D01*
X82290000Y-36527760D01*
X82173475Y-36353368D01*
X81966632Y-36146525D01*
X81723411Y-35984010D01*
X81453158Y-35872068D01*
X81166260Y-35815000D01*
X80873740Y-35815000D01*
X80586842Y-35872068D01*
X80316589Y-35984010D01*
X80073368Y-36146525D01*
X79866525Y-36353368D01*
X79744805Y-36535534D01*
X79675178Y-36418645D01*
X79480269Y-36202412D01*
X79246920Y-36028359D01*
X78984099Y-35903175D01*
X78836890Y-35858524D01*
X78607000Y-35979845D01*
X78607000Y-37173000D01*
X78627000Y-37173000D01*
X78627000Y-37427000D01*
X78607000Y-37427000D01*
X78607000Y-38620155D01*
X78836890Y-38741476D01*
X78984099Y-38696825D01*
X79246920Y-38571641D01*
X79480269Y-38397588D01*
X79675178Y-38181355D01*
X79744805Y-38064466D01*
X79866525Y-38246632D01*
X80073368Y-38453475D01*
X80285000Y-38594883D01*
X80285000Y-39183895D01*
X80281444Y-39220000D01*
X80285000Y-39256104D01*
X80295635Y-39364084D01*
X80337663Y-39502632D01*
X80405913Y-39630319D01*
X80497762Y-39742237D01*
X80525808Y-39765254D01*
X83165001Y-42404448D01*
X83165000Y-50671289D01*
X83150000Y-50686289D01*
X83135000Y-50671289D01*
X83135000Y-43796105D01*
X83138556Y-43760000D01*
X83124365Y-43615915D01*
X83082337Y-43477366D01*
X83014087Y-43349680D01*
X82945253Y-43265806D01*
X82945250Y-43265803D01*
X82922237Y-43237762D01*
X82894198Y-43214751D01*
X78318047Y-38638601D01*
X78353000Y-38620155D01*
X78353000Y-37427000D01*
X78333000Y-37427000D01*
X78333000Y-37173000D01*
X78353000Y-37173000D01*
X78353000Y-35979845D01*
X78123110Y-35858524D01*
X77975901Y-35903175D01*
X77713080Y-36028359D01*
X77479731Y-36202412D01*
X77284822Y-36418645D01*
X77215195Y-36535534D01*
X77093475Y-36353368D01*
X76886632Y-36146525D01*
X76643411Y-35984010D01*
X76373158Y-35872068D01*
X76086260Y-35815000D01*
X75793740Y-35815000D01*
X75506842Y-35872068D01*
X75236589Y-35984010D01*
X74993368Y-36146525D01*
X74861513Y-36278380D01*
X74839502Y-36205820D01*
X74780537Y-36095506D01*
X74701185Y-35998815D01*
X74604494Y-35919463D01*
X74494180Y-35860498D01*
X74374482Y-35824188D01*
X74250000Y-35811928D01*
X72550000Y-35811928D01*
X72425518Y-35824188D01*
X72305820Y-35860498D01*
X72195506Y-35919463D01*
X72098815Y-35998815D01*
X72019463Y-36095506D01*
X71960498Y-36205820D01*
X71924188Y-36325518D01*
X71911928Y-36450000D01*
X71911928Y-36499646D01*
X71828913Y-36524828D01*
X71683854Y-36602364D01*
X71556709Y-36706709D01*
X71530558Y-36738574D01*
X71238574Y-37030559D01*
X71206710Y-37056709D01*
X71141382Y-37136312D01*
X71102364Y-37183855D01*
X71024828Y-37328914D01*
X70977082Y-37486312D01*
X70960960Y-37650000D01*
X70965001Y-37691029D01*
X70965000Y-47386715D01*
X70882795Y-47509744D01*
X70804774Y-47698102D01*
X70765000Y-47898061D01*
X68760701Y-47898061D01*
X68789502Y-47844180D01*
X68825812Y-47724482D01*
X68838072Y-47600000D01*
X68838072Y-45600000D01*
X68825812Y-45475518D01*
X68789502Y-45355820D01*
X68730537Y-45245506D01*
X68651185Y-45148815D01*
X68554494Y-45069463D01*
X68444180Y-45010498D01*
X68324482Y-44974188D01*
X68200000Y-44961928D01*
X66200000Y-44961928D01*
X66075518Y-44974188D01*
X65955820Y-45010498D01*
X65845506Y-45069463D01*
X65748815Y-45148815D01*
X65669463Y-45245506D01*
X65610498Y-45355820D01*
X65574188Y-45475518D01*
X65561928Y-45600000D01*
X60420395Y-45600000D01*
X60555808Y-45464587D01*
X60460044Y-45200186D01*
X60170429Y-45059296D01*
X59858892Y-44977616D01*
X59537405Y-44958282D01*
X59218325Y-45002039D01*
X58913912Y-45107205D01*
X58739956Y-45200186D01*
X58644192Y-45464587D01*
X44127000Y-45464587D01*
X44127000Y-40777000D01*
X45015000Y-40777000D01*
X45015000Y-41052000D01*
X45065908Y-41314883D01*
X45167124Y-41562783D01*
X45314758Y-41786173D01*
X45503137Y-41976469D01*
X45725021Y-42126357D01*
X45971883Y-42230078D01*
X46037742Y-42242519D01*
X46248000Y-42119518D01*
X46248000Y-40777000D01*
X46502000Y-40777000D01*
X46502000Y-42119518D01*
X46712258Y-42242519D01*
X46778117Y-42230078D01*
X47024979Y-42126357D01*
X47246863Y-41976469D01*
X47435242Y-41786173D01*
X47582876Y-41562783D01*
X47684092Y-41314883D01*
X47735000Y-41052000D01*
X47735000Y-40777000D01*
X52465000Y-40777000D01*
X52465000Y-41052000D01*
X52515908Y-41314883D01*
X52617124Y-41562783D01*
X52764758Y-41786173D01*
X52953137Y-41976469D01*
X53175021Y-42126357D01*
X53421883Y-42230078D01*
X53487742Y-42242519D01*
X53698000Y-42119518D01*
X53698000Y-40777000D01*
X53952000Y-40777000D01*
X53952000Y-42119518D01*
X54162258Y-42242519D01*
X54228117Y-42230078D01*
X54474979Y-42126357D01*
X54696863Y-41976469D01*
X54885242Y-41786173D01*
X55032876Y-41562783D01*
X55134092Y-41314883D01*
X55185000Y-41052000D01*
X55185000Y-40777000D01*
X53952000Y-40777000D01*
X53698000Y-40777000D01*
X52465000Y-40777000D01*
X47735000Y-40777000D01*
X46502000Y-40777000D01*
X46248000Y-40777000D01*
X45015000Y-40777000D01*
X44127000Y-40777000D01*
X44127000Y-40248000D01*
X45015000Y-40248000D01*
X45015000Y-40523000D01*
X46248000Y-40523000D01*
X46248000Y-39180482D01*
X46502000Y-39180482D01*
X46502000Y-40523000D01*
X47123734Y-40523000D01*
X47298102Y-40595226D01*
X47498061Y-40635000D01*
X47701939Y-40635000D01*
X47901898Y-40595226D01*
X48090256Y-40517205D01*
X48259774Y-40403937D01*
X48403937Y-40259774D01*
X48517205Y-40090256D01*
X48595226Y-39901898D01*
X48635000Y-39701939D01*
X48635000Y-39498061D01*
X51565000Y-39498061D01*
X51565000Y-39701939D01*
X51604774Y-39901898D01*
X51682795Y-40090256D01*
X51796063Y-40259774D01*
X51940226Y-40403937D01*
X52109744Y-40517205D01*
X52298102Y-40595226D01*
X52498061Y-40635000D01*
X52701939Y-40635000D01*
X52901898Y-40595226D01*
X53076266Y-40523000D01*
X53698000Y-40523000D01*
X53698000Y-39180482D01*
X53952000Y-39180482D01*
X53952000Y-40523000D01*
X55185000Y-40523000D01*
X55185000Y-40248000D01*
X55134092Y-39985117D01*
X55032876Y-39737217D01*
X54885242Y-39513827D01*
X54696863Y-39323531D01*
X54474979Y-39173643D01*
X54228117Y-39069922D01*
X54162258Y-39057481D01*
X53952000Y-39180482D01*
X53698000Y-39180482D01*
X53487742Y-39057481D01*
X53482896Y-39058396D01*
X53403937Y-38940226D01*
X53259774Y-38796063D01*
X53090256Y-38682795D01*
X52901898Y-38604774D01*
X52701939Y-38565000D01*
X52498061Y-38565000D01*
X52298102Y-38604774D01*
X52109744Y-38682795D01*
X51940226Y-38796063D01*
X51796063Y-38940226D01*
X51682795Y-39109744D01*
X51604774Y-39298102D01*
X51565000Y-39498061D01*
X48635000Y-39498061D01*
X48595226Y-39298102D01*
X48517205Y-39109744D01*
X48403937Y-38940226D01*
X48259774Y-38796063D01*
X48090256Y-38682795D01*
X47901898Y-38604774D01*
X47701939Y-38565000D01*
X47498061Y-38565000D01*
X47298102Y-38604774D01*
X47109744Y-38682795D01*
X46940226Y-38796063D01*
X46796063Y-38940226D01*
X46717104Y-39058396D01*
X46712258Y-39057481D01*
X46502000Y-39180482D01*
X46248000Y-39180482D01*
X46037742Y-39057481D01*
X45971883Y-39069922D01*
X45725021Y-39173643D01*
X45503137Y-39323531D01*
X45314758Y-39513827D01*
X45167124Y-39737217D01*
X45065908Y-39985117D01*
X45015000Y-40248000D01*
X44127000Y-40248000D01*
X44127000Y-36977000D01*
X45015000Y-36977000D01*
X45015000Y-37302000D01*
X45063026Y-37535619D01*
X45155706Y-37755380D01*
X45289479Y-37952837D01*
X45459203Y-38120402D01*
X45658356Y-38251636D01*
X45879285Y-38341496D01*
X45911323Y-38343635D01*
X46098000Y-38218550D01*
X46098000Y-36977000D01*
X46352000Y-36977000D01*
X46352000Y-38218550D01*
X46538677Y-38343635D01*
X46570715Y-38341496D01*
X46791644Y-38251636D01*
X46990797Y-38120402D01*
X47160521Y-37952837D01*
X47294294Y-37755380D01*
X47386974Y-37535619D01*
X47435000Y-37302000D01*
X47435000Y-36977000D01*
X52765000Y-36977000D01*
X52765000Y-37302000D01*
X52813026Y-37535619D01*
X52905706Y-37755380D01*
X53039479Y-37952837D01*
X53209203Y-38120402D01*
X53408356Y-38251636D01*
X53629285Y-38341496D01*
X53661323Y-38343635D01*
X53848000Y-38218550D01*
X53848000Y-36977000D01*
X54102000Y-36977000D01*
X54102000Y-38218550D01*
X54288677Y-38343635D01*
X54320715Y-38341496D01*
X54541644Y-38251636D01*
X54740797Y-38120402D01*
X54910521Y-37952837D01*
X55044294Y-37755380D01*
X55136974Y-37535619D01*
X55185000Y-37302000D01*
X55185000Y-36977000D01*
X54102000Y-36977000D01*
X53848000Y-36977000D01*
X52765000Y-36977000D01*
X47435000Y-36977000D01*
X46352000Y-36977000D01*
X46098000Y-36977000D01*
X45015000Y-36977000D01*
X44127000Y-36977000D01*
X44127000Y-36398000D01*
X45015000Y-36398000D01*
X45015000Y-36723000D01*
X46098000Y-36723000D01*
X46098000Y-35481450D01*
X46352000Y-35481450D01*
X46352000Y-36723000D01*
X47435000Y-36723000D01*
X47435000Y-36398000D01*
X52765000Y-36398000D01*
X52765000Y-36723000D01*
X53848000Y-36723000D01*
X53848000Y-35481450D01*
X54102000Y-35481450D01*
X54102000Y-36723000D01*
X55185000Y-36723000D01*
X55185000Y-36398000D01*
X55136974Y-36164381D01*
X55044294Y-35944620D01*
X54910521Y-35747163D01*
X54740797Y-35579598D01*
X54541644Y-35448364D01*
X54320715Y-35358504D01*
X54288677Y-35356365D01*
X54102000Y-35481450D01*
X53848000Y-35481450D01*
X53661323Y-35356365D01*
X53629285Y-35358504D01*
X53408356Y-35448364D01*
X53209203Y-35579598D01*
X53039479Y-35747163D01*
X52905706Y-35944620D01*
X52813026Y-36164381D01*
X52765000Y-36398000D01*
X47435000Y-36398000D01*
X47386974Y-36164381D01*
X47294294Y-35944620D01*
X47160521Y-35747163D01*
X46990797Y-35579598D01*
X46791644Y-35448364D01*
X46570715Y-35358504D01*
X46538677Y-35356365D01*
X46352000Y-35481450D01*
X46098000Y-35481450D01*
X45911323Y-35356365D01*
X45879285Y-35358504D01*
X45658356Y-35448364D01*
X45459203Y-35579598D01*
X45289479Y-35747163D01*
X45155706Y-35944620D01*
X45063026Y-36164381D01*
X45015000Y-36398000D01*
X44127000Y-36398000D01*
X44127000Y-35127000D01*
X99873000Y-35127000D01*
X99873000Y-84873000D01*
G37*
X99873000Y-84873000D02*
X66876585Y-84873000D01*
X67010630Y-84832338D01*
X67138317Y-84764088D01*
X67250235Y-84672239D01*
X67273256Y-84644188D01*
X71555036Y-80362408D01*
X77103000Y-80362408D01*
X77103000Y-80637592D01*
X77156686Y-80907490D01*
X77261995Y-81161727D01*
X77414880Y-81390535D01*
X77609465Y-81585120D01*
X77838273Y-81738005D01*
X78092510Y-81843314D01*
X78362408Y-81897000D01*
X78637592Y-81897000D01*
X78907490Y-81843314D01*
X79161727Y-81738005D01*
X79390535Y-81585120D01*
X79585120Y-81390535D01*
X79738005Y-81161727D01*
X79843314Y-80907490D01*
X79897000Y-80637592D01*
X79897000Y-80362408D01*
X82103000Y-80362408D01*
X82103000Y-80637592D01*
X82156686Y-80907490D01*
X82261995Y-81161727D01*
X82414880Y-81390535D01*
X82609465Y-81585120D01*
X82838273Y-81738005D01*
X83092510Y-81843314D01*
X83362408Y-81897000D01*
X83637592Y-81897000D01*
X83907490Y-81843314D01*
X84161727Y-81738005D01*
X84390535Y-81585120D01*
X84585120Y-81390535D01*
X84738005Y-81161727D01*
X84843314Y-80907490D01*
X84897000Y-80637592D01*
X84897000Y-80362408D01*
X84843314Y-80092510D01*
X84738005Y-79838273D01*
X84585120Y-79609465D01*
X84390535Y-79414880D01*
X84161727Y-79261995D01*
X83907490Y-79156686D01*
X83637592Y-79103000D01*
X83362408Y-79103000D01*
X83092510Y-79156686D01*
X82838273Y-79261995D01*
X82609465Y-79414880D01*
X82414880Y-79609465D01*
X82261995Y-79838273D01*
X82156686Y-80092510D01*
X82103000Y-80362408D01*
X79897000Y-80362408D01*
X79843314Y-80092510D01*
X79738005Y-79838273D01*
X79585120Y-79609465D01*
X79390535Y-79414880D01*
X79161727Y-79261995D01*
X78907490Y-79156686D01*
X78637592Y-79103000D01*
X78362408Y-79103000D01*
X78092510Y-79156686D01*
X77838273Y-79261995D01*
X77609465Y-79414880D01*
X77414880Y-79609465D01*
X77261995Y-79838273D01*
X77156686Y-80092510D01*
X77103000Y-80362408D01*
X71555036Y-80362408D01*
X80382445Y-71535000D01*
X85625131Y-71535000D01*
X85509744Y-71582795D01*
X85340226Y-71696063D01*
X85196063Y-71840226D01*
X85082795Y-72009744D01*
X85004774Y-72198102D01*
X84965000Y-72398061D01*
X84965000Y-72601939D01*
X85004774Y-72801898D01*
X85082795Y-72990256D01*
X85196063Y-73159774D01*
X85340226Y-73303937D01*
X85509744Y-73417205D01*
X85698102Y-73495226D01*
X85898061Y-73535000D01*
X85991822Y-73535000D01*
X85997762Y-73542238D01*
X86025497Y-73565000D01*
X82236094Y-73565000D01*
X82199999Y-73561445D01*
X82163904Y-73565000D01*
X82163895Y-73565000D01*
X82055915Y-73575635D01*
X81917367Y-73617663D01*
X81789680Y-73685913D01*
X81677762Y-73777762D01*
X81654746Y-73805807D01*
X81321059Y-74139494D01*
X81137592Y-74103000D01*
X80862408Y-74103000D01*
X80592510Y-74156686D01*
X80338273Y-74261995D01*
X80109465Y-74414880D01*
X79914880Y-74609465D01*
X79761995Y-74838273D01*
X79656686Y-75092510D01*
X79603000Y-75362408D01*
X79603000Y-75637592D01*
X79656686Y-75907490D01*
X79761995Y-76161727D01*
X79914880Y-76390535D01*
X80109465Y-76585120D01*
X80338273Y-76738005D01*
X80592510Y-76843314D01*
X80862408Y-76897000D01*
X81137592Y-76897000D01*
X81407490Y-76843314D01*
X81661727Y-76738005D01*
X81890535Y-76585120D01*
X82085120Y-76390535D01*
X82238005Y-76161727D01*
X82343314Y-75907490D01*
X82397000Y-75637592D01*
X82397000Y-75362408D01*
X82360506Y-75178941D01*
X82504447Y-75035000D01*
X87171289Y-75035000D01*
X87240226Y-75103937D01*
X87409744Y-75217205D01*
X87598102Y-75295226D01*
X87798061Y-75335000D01*
X88001939Y-75335000D01*
X88201898Y-75295226D01*
X88390256Y-75217205D01*
X88559774Y-75103937D01*
X88703937Y-74959774D01*
X88817205Y-74790256D01*
X88895226Y-74601898D01*
X88935000Y-74401939D01*
X88935000Y-74198061D01*
X88895226Y-73998102D01*
X88817205Y-73809744D01*
X88780626Y-73755000D01*
X91791289Y-73755000D01*
X91860226Y-73823937D01*
X92029744Y-73937205D01*
X92218102Y-74015226D01*
X92418061Y-74055000D01*
X92621939Y-74055000D01*
X92821898Y-74015226D01*
X93010256Y-73937205D01*
X93179774Y-73823937D01*
X93323937Y-73679774D01*
X93437205Y-73510256D01*
X93515226Y-73321898D01*
X93555000Y-73121939D01*
X93555000Y-72918061D01*
X93515226Y-72718102D01*
X93437205Y-72529744D01*
X93323937Y-72360226D01*
X93179774Y-72216063D01*
X93010256Y-72102795D01*
X92821898Y-72024774D01*
X92621939Y-71985000D01*
X92418061Y-71985000D01*
X92218102Y-72024774D01*
X92029744Y-72102795D01*
X91860226Y-72216063D01*
X91791289Y-72285000D01*
X90435000Y-72285000D01*
X90435000Y-72098061D01*
X90395226Y-71898102D01*
X90317205Y-71709744D01*
X90203937Y-71540226D01*
X90059774Y-71396063D01*
X89989499Y-71349107D01*
X90022238Y-71322238D01*
X90045259Y-71294187D01*
X92592241Y-68747206D01*
X92602364Y-68766145D01*
X92602365Y-68766146D01*
X92706710Y-68893291D01*
X92738574Y-68919441D01*
X94065000Y-70245869D01*
X94065001Y-76108972D01*
X94060960Y-76150000D01*
X94077082Y-76313688D01*
X94106883Y-76411928D01*
X92650000Y-76411928D01*
X92525518Y-76424188D01*
X92405820Y-76460498D01*
X92295506Y-76519463D01*
X92198815Y-76598815D01*
X92119463Y-76695506D01*
X92060498Y-76805820D01*
X92038487Y-76878380D01*
X91906632Y-76746525D01*
X91663411Y-76584010D01*
X91393158Y-76472068D01*
X91106260Y-76415000D01*
X90813740Y-76415000D01*
X90526842Y-76472068D01*
X90256589Y-76584010D01*
X90013368Y-76746525D01*
X89806525Y-76953368D01*
X89644010Y-77196589D01*
X89532068Y-77466842D01*
X89475000Y-77753740D01*
X89475000Y-78046260D01*
X89532068Y-78333158D01*
X89644010Y-78603411D01*
X89806525Y-78846632D01*
X90013368Y-79053475D01*
X90256589Y-79215990D01*
X90526842Y-79327932D01*
X90813740Y-79385000D01*
X91106260Y-79385000D01*
X91393158Y-79327932D01*
X91663411Y-79215990D01*
X91906632Y-79053475D01*
X92038487Y-78921620D01*
X92060498Y-78994180D01*
X92119463Y-79104494D01*
X92198815Y-79201185D01*
X92295506Y-79280537D01*
X92405820Y-79339502D01*
X92525518Y-79375812D01*
X92650000Y-79388072D01*
X94350000Y-79388072D01*
X94474482Y-79375812D01*
X94594180Y-79339502D01*
X94704494Y-79280537D01*
X94801185Y-79201185D01*
X94880537Y-79104494D01*
X94939502Y-78994180D01*
X94975812Y-78874482D01*
X94988072Y-78750000D01*
X94988072Y-77418939D01*
X96230559Y-78661427D01*
X96256709Y-78693291D01*
X96383854Y-78797636D01*
X96528913Y-78875172D01*
X96611928Y-78900354D01*
X96611928Y-78950000D01*
X96624188Y-79074482D01*
X96660498Y-79194180D01*
X96719463Y-79304494D01*
X96798815Y-79401185D01*
X96895506Y-79480537D01*
X97005820Y-79539502D01*
X97125518Y-79575812D01*
X97250000Y-79588072D01*
X98950000Y-79588072D01*
X99074482Y-79575812D01*
X99194180Y-79539502D01*
X99304494Y-79480537D01*
X99401185Y-79401185D01*
X99480537Y-79304494D01*
X99539502Y-79194180D01*
X99575812Y-79074482D01*
X99588072Y-78950000D01*
X99588072Y-77250000D01*
X99575812Y-77125518D01*
X99539502Y-77005820D01*
X99480537Y-76895506D01*
X99401185Y-76798815D01*
X99304494Y-76719463D01*
X99194180Y-76660498D01*
X99121620Y-76638487D01*
X99253475Y-76506632D01*
X99415990Y-76263411D01*
X99527932Y-75993158D01*
X99585000Y-75706260D01*
X99585000Y-75413740D01*
X99527932Y-75126842D01*
X99415990Y-74856589D01*
X99253475Y-74613368D01*
X99046632Y-74406525D01*
X98872240Y-74290000D01*
X99046632Y-74173475D01*
X99253475Y-73966632D01*
X99415990Y-73723411D01*
X99527932Y-73453158D01*
X99585000Y-73166260D01*
X99585000Y-72873740D01*
X99527932Y-72586842D01*
X99415990Y-72316589D01*
X99253475Y-72073368D01*
X99046632Y-71866525D01*
X98864466Y-71744805D01*
X98981355Y-71675178D01*
X99197588Y-71480269D01*
X99371641Y-71246920D01*
X99496825Y-70984099D01*
X99541476Y-70836890D01*
X99420155Y-70607000D01*
X98227000Y-70607000D01*
X98227000Y-70627000D01*
X97973000Y-70627000D01*
X97973000Y-70607000D01*
X96779845Y-70607000D01*
X96658524Y-70836890D01*
X96703175Y-70984099D01*
X96828359Y-71246920D01*
X97002412Y-71480269D01*
X97218645Y-71675178D01*
X97335534Y-71744805D01*
X97153368Y-71866525D01*
X96946525Y-72073368D01*
X96784010Y-72316589D01*
X96672068Y-72586842D01*
X96615000Y-72873740D01*
X96615000Y-73166260D01*
X96672068Y-73453158D01*
X96784010Y-73723411D01*
X96946525Y-73966632D01*
X97153368Y-74173475D01*
X97327760Y-74290000D01*
X97153368Y-74406525D01*
X96946525Y-74613368D01*
X96784010Y-74856589D01*
X96672068Y-75126842D01*
X96615000Y-75413740D01*
X96615000Y-75706260D01*
X96672068Y-75993158D01*
X96784010Y-76263411D01*
X96946525Y-76506632D01*
X97078380Y-76638487D01*
X97005820Y-76660498D01*
X96895506Y-76719463D01*
X96798815Y-76798815D01*
X96767653Y-76836786D01*
X95735000Y-75804133D01*
X95735000Y-69941018D01*
X95739040Y-69900000D01*
X95722918Y-69736312D01*
X95675172Y-69578913D01*
X95597636Y-69433854D01*
X95519439Y-69338570D01*
X95519437Y-69338568D01*
X95493291Y-69306709D01*
X95461433Y-69280564D01*
X94477758Y-68296890D01*
X96658524Y-68296890D01*
X96703175Y-68444099D01*
X96828359Y-68706920D01*
X97002412Y-68940269D01*
X97218645Y-69135178D01*
X97344255Y-69210000D01*
X97218645Y-69284822D01*
X97002412Y-69479731D01*
X96828359Y-69713080D01*
X96703175Y-69975901D01*
X96658524Y-70123110D01*
X96779845Y-70353000D01*
X97973000Y-70353000D01*
X97973000Y-68067000D01*
X98227000Y-68067000D01*
X98227000Y-70353000D01*
X99420155Y-70353000D01*
X99541476Y-70123110D01*
X99496825Y-69975901D01*
X99371641Y-69713080D01*
X99197588Y-69479731D01*
X98981355Y-69284822D01*
X98855745Y-69210000D01*
X98981355Y-69135178D01*
X99197588Y-68940269D01*
X99371641Y-68706920D01*
X99496825Y-68444099D01*
X99541476Y-68296890D01*
X99420155Y-68067000D01*
X98227000Y-68067000D01*
X97973000Y-68067000D01*
X96779845Y-68067000D01*
X96658524Y-68296890D01*
X94477758Y-68296890D01*
X94135000Y-67954133D01*
X94135000Y-67583110D01*
X96658524Y-67583110D01*
X96779845Y-67813000D01*
X97973000Y-67813000D01*
X97973000Y-66619186D01*
X98227000Y-66619186D01*
X98227000Y-67813000D01*
X99420155Y-67813000D01*
X99541476Y-67583110D01*
X99496825Y-67435901D01*
X99371641Y-67173080D01*
X99197588Y-66939731D01*
X98981355Y-66744822D01*
X98731252Y-66595843D01*
X98456891Y-66498519D01*
X98227000Y-66619186D01*
X97973000Y-66619186D01*
X97743109Y-66498519D01*
X97468748Y-66595843D01*
X97218645Y-66744822D01*
X97002412Y-66939731D01*
X96828359Y-67173080D01*
X96703175Y-67435901D01*
X96658524Y-67583110D01*
X94135000Y-67583110D01*
X94135000Y-65313285D01*
X94217205Y-65190256D01*
X94295226Y-65001898D01*
X94335000Y-64801939D01*
X94335000Y-64598061D01*
X94295226Y-64398102D01*
X94217205Y-64209744D01*
X94103937Y-64040226D01*
X93959774Y-63896063D01*
X93790256Y-63782795D01*
X93601898Y-63704774D01*
X93401939Y-63665000D01*
X93235000Y-63665000D01*
X93235000Y-58528711D01*
X93303937Y-58459774D01*
X93417205Y-58290256D01*
X93495226Y-58101898D01*
X93535000Y-57901939D01*
X93535000Y-57698061D01*
X93495226Y-57498102D01*
X93417205Y-57309744D01*
X93303937Y-57140226D01*
X93159774Y-56996063D01*
X92990256Y-56882795D01*
X92801898Y-56804774D01*
X92601939Y-56765000D01*
X92398061Y-56765000D01*
X92198102Y-56804774D01*
X92009744Y-56882795D01*
X91840226Y-56996063D01*
X91696063Y-57140226D01*
X91582795Y-57309744D01*
X91504774Y-57498102D01*
X91465000Y-57698061D01*
X91465000Y-57901939D01*
X91504774Y-58101898D01*
X91582795Y-58290256D01*
X91696063Y-58459774D01*
X91765001Y-58528712D01*
X91765000Y-67495553D01*
X89195554Y-70065000D01*
X80114092Y-70065000D01*
X80077997Y-70061445D01*
X80041902Y-70065000D01*
X80041893Y-70065000D01*
X79933913Y-70075635D01*
X79795365Y-70117663D01*
X79667678Y-70185913D01*
X79555760Y-70277762D01*
X79532744Y-70305807D01*
X66423551Y-83415001D01*
X65671544Y-83415001D01*
X65725000Y-83146260D01*
X65725000Y-82853740D01*
X65667932Y-82566842D01*
X65555990Y-82296589D01*
X65393475Y-82053368D01*
X65186632Y-81846525D01*
X64943411Y-81684010D01*
X64673158Y-81572068D01*
X64386260Y-81515000D01*
X64093740Y-81515000D01*
X63806842Y-81572068D01*
X63536589Y-81684010D01*
X63293368Y-81846525D01*
X63086525Y-82053368D01*
X62970000Y-82227760D01*
X62853475Y-82053368D01*
X62646632Y-81846525D01*
X62403411Y-81684010D01*
X62368072Y-81669372D01*
X65602445Y-78435000D01*
X69763895Y-78435000D01*
X69800000Y-78438556D01*
X69836105Y-78435000D01*
X69944085Y-78424365D01*
X70082633Y-78382337D01*
X70210320Y-78314087D01*
X70322238Y-78222238D01*
X70345259Y-78194187D01*
X87818581Y-60720866D01*
X87998102Y-60795226D01*
X88198061Y-60835000D01*
X88401939Y-60835000D01*
X88601898Y-60795226D01*
X88790256Y-60717205D01*
X88959774Y-60603937D01*
X89103937Y-60459774D01*
X89217205Y-60290256D01*
X89295226Y-60101898D01*
X89335000Y-59901939D01*
X89335000Y-59698061D01*
X89295226Y-59498102D01*
X89217205Y-59309744D01*
X89103937Y-59140226D01*
X88959774Y-58996063D01*
X88790256Y-58882795D01*
X88601898Y-58804774D01*
X88401939Y-58765000D01*
X88198061Y-58765000D01*
X87998102Y-58804774D01*
X87809744Y-58882795D01*
X87640226Y-58996063D01*
X87561172Y-59075117D01*
X87555915Y-59075635D01*
X87417367Y-59117663D01*
X87289680Y-59185913D01*
X87177762Y-59277762D01*
X87154746Y-59305807D01*
X69495554Y-76965000D01*
X65334103Y-76965000D01*
X65297998Y-76961444D01*
X65261893Y-76965000D01*
X65153913Y-76975635D01*
X65015365Y-77017663D01*
X64887678Y-77085913D01*
X64775760Y-77177762D01*
X64752744Y-77205807D01*
X60543551Y-81415001D01*
X60046095Y-81415001D01*
X60009998Y-81411446D01*
X59973901Y-81415001D01*
X59973894Y-81415001D01*
X59880131Y-81424236D01*
X59865913Y-81425636D01*
X59823885Y-81438385D01*
X59727366Y-81467664D01*
X59599679Y-81535914D01*
X59562948Y-81566059D01*
X59306260Y-81515000D01*
X59013740Y-81515000D01*
X58726842Y-81572068D01*
X58456589Y-81684010D01*
X58213368Y-81846525D01*
X58006525Y-82053368D01*
X57890000Y-82227760D01*
X57773475Y-82053368D01*
X57566632Y-81846525D01*
X57323411Y-81684010D01*
X57053158Y-81572068D01*
X56766260Y-81515000D01*
X56473740Y-81515000D01*
X56186842Y-81572068D01*
X55916589Y-81684010D01*
X55673368Y-81846525D01*
X55466525Y-82053368D01*
X55350000Y-82227760D01*
X55233475Y-82053368D01*
X55026632Y-81846525D01*
X54783411Y-81684010D01*
X54513158Y-81572068D01*
X54226260Y-81515000D01*
X53933740Y-81515000D01*
X53646842Y-81572068D01*
X53376589Y-81684010D01*
X53133368Y-81846525D01*
X52926525Y-82053368D01*
X52810000Y-82227760D01*
X52693475Y-82053368D01*
X52486632Y-81846525D01*
X52243411Y-81684010D01*
X51973158Y-81572068D01*
X51686260Y-81515000D01*
X51393740Y-81515000D01*
X51106842Y-81572068D01*
X50836589Y-81684010D01*
X50593368Y-81846525D01*
X50461513Y-81978380D01*
X50439502Y-81905820D01*
X50380537Y-81795506D01*
X50301185Y-81698815D01*
X50204494Y-81619463D01*
X50094180Y-81560498D01*
X49974482Y-81524188D01*
X49850000Y-81511928D01*
X49285750Y-81515000D01*
X49127000Y-81673750D01*
X49127000Y-82873000D01*
X49147000Y-82873000D01*
X49147000Y-83127000D01*
X49127000Y-83127000D01*
X49127000Y-84326250D01*
X49285750Y-84485000D01*
X49850000Y-84488072D01*
X49974482Y-84475812D01*
X50094180Y-84439502D01*
X50204494Y-84380537D01*
X50301185Y-84301185D01*
X50380537Y-84204494D01*
X50439502Y-84094180D01*
X50461513Y-84021620D01*
X50593368Y-84153475D01*
X50836589Y-84315990D01*
X51106842Y-84427932D01*
X51393740Y-84485000D01*
X51686260Y-84485000D01*
X51973158Y-84427932D01*
X52243411Y-84315990D01*
X52486632Y-84153475D01*
X52693475Y-83946632D01*
X52810000Y-83772240D01*
X52926525Y-83946632D01*
X53133368Y-84153475D01*
X53376589Y-84315990D01*
X53646842Y-84427932D01*
X53933740Y-84485000D01*
X54226260Y-84485000D01*
X54513158Y-84427932D01*
X54783411Y-84315990D01*
X55026632Y-84153475D01*
X55233475Y-83946632D01*
X55350000Y-83772240D01*
X55466525Y-83946632D01*
X55673368Y-84153475D01*
X55916589Y-84315990D01*
X56186842Y-84427932D01*
X56473740Y-84485000D01*
X56766260Y-84485000D01*
X57053158Y-84427932D01*
X57323411Y-84315990D01*
X57566632Y-84153475D01*
X57773475Y-83946632D01*
X57890000Y-83772240D01*
X58006525Y-83946632D01*
X58213368Y-84153475D01*
X58456589Y-84315990D01*
X58726842Y-84427932D01*
X59013740Y-84485000D01*
X59306260Y-84485000D01*
X59593158Y-84427932D01*
X59863411Y-84315990D01*
X60106632Y-84153475D01*
X60313475Y-83946632D01*
X60430000Y-83772240D01*
X60546525Y-83946632D01*
X60753368Y-84153475D01*
X60996589Y-84315990D01*
X61266842Y-84427932D01*
X61553740Y-84485000D01*
X61846260Y-84485000D01*
X62095897Y-84435344D01*
X62304747Y-84644194D01*
X62327763Y-84672239D01*
X62439681Y-84764088D01*
X62567368Y-84832338D01*
X62663887Y-84861617D01*
X62701412Y-84873000D01*
X44127000Y-84873000D01*
X44127000Y-83850000D01*
X47511928Y-83850000D01*
X47524188Y-83974482D01*
X47560498Y-84094180D01*
X47619463Y-84204494D01*
X47698815Y-84301185D01*
X47795506Y-84380537D01*
X47905820Y-84439502D01*
X48025518Y-84475812D01*
X48150000Y-84488072D01*
X48714250Y-84485000D01*
X48873000Y-84326250D01*
X48873000Y-83127000D01*
X47673750Y-83127000D01*
X47515000Y-83285750D01*
X47511928Y-83850000D01*
X44127000Y-83850000D01*
X44127000Y-82150000D01*
X47511928Y-82150000D01*
X47515000Y-82714250D01*
X47673750Y-82873000D01*
X48873000Y-82873000D01*
X48873000Y-81673750D01*
X48714250Y-81515000D01*
X48150000Y-81511928D01*
X48025518Y-81524188D01*
X47905820Y-81560498D01*
X47795506Y-81619463D01*
X47698815Y-81698815D01*
X47619463Y-81795506D01*
X47560498Y-81905820D01*
X47524188Y-82025518D01*
X47511928Y-82150000D01*
X44127000Y-82150000D01*
X44127000Y-52398061D01*
X78665000Y-52398061D01*
X78665000Y-52601939D01*
X78704774Y-52801898D01*
X78782795Y-52990256D01*
X78896063Y-53159774D01*
X79040226Y-53303937D01*
X79209744Y-53417205D01*
X79398102Y-53495226D01*
X79598061Y-53535000D01*
X79695553Y-53535000D01*
X80054746Y-53894193D01*
X80077762Y-53922238D01*
X80189680Y-54014087D01*
X80317367Y-54082337D01*
X80455915Y-54124365D01*
X80563895Y-54135000D01*
X80563904Y-54135000D01*
X80599999Y-54138555D01*
X80636094Y-54135000D01*
X84965000Y-54135000D01*
X84965000Y-54301939D01*
X85004774Y-54501898D01*
X85082795Y-54690256D01*
X85196063Y-54859774D01*
X85340226Y-55003937D01*
X85509744Y-55117205D01*
X85698102Y-55195226D01*
X85898061Y-55235000D01*
X86101939Y-55235000D01*
X86301898Y-55195226D01*
X86490256Y-55117205D01*
X86659774Y-55003937D01*
X86803937Y-54859774D01*
X86917205Y-54690256D01*
X86995226Y-54501898D01*
X87035000Y-54301939D01*
X87035000Y-54098061D01*
X86995226Y-53898102D01*
X86917205Y-53709744D01*
X86803937Y-53540226D01*
X86711487Y-53447776D01*
X86682337Y-53351682D01*
X86614087Y-53223995D01*
X86522238Y-53112077D01*
X86494187Y-53089056D01*
X86310944Y-52905813D01*
X86287923Y-52877762D01*
X86176005Y-52785913D01*
X86048318Y-52717663D01*
X85909770Y-52675635D01*
X85801790Y-52665000D01*
X85765685Y-52661444D01*
X85729580Y-52665000D01*
X80904447Y-52665000D01*
X80735000Y-52495553D01*
X80735000Y-52398061D01*
X80695226Y-52198102D01*
X80617205Y-52009744D01*
X80503937Y-51840226D01*
X80359774Y-51696063D01*
X80190256Y-51582795D01*
X80001898Y-51504774D01*
X79801939Y-51465000D01*
X79598061Y-51465000D01*
X79398102Y-51504774D01*
X79209744Y-51582795D01*
X79040226Y-51696063D01*
X78896063Y-51840226D01*
X78782795Y-52009744D01*
X78704774Y-52198102D01*
X78665000Y-52398061D01*
X44127000Y-52398061D01*
X44127000Y-47735413D01*
X58644192Y-47735413D01*
X58739956Y-47999814D01*
X59029571Y-48140704D01*
X59341108Y-48222384D01*
X59662595Y-48241718D01*
X59981675Y-48197961D01*
X60286088Y-48092795D01*
X60460044Y-47999814D01*
X60555808Y-47735413D01*
X59600000Y-46779605D01*
X58644192Y-47735413D01*
X44127000Y-47735413D01*
X44127000Y-46662595D01*
X57958282Y-46662595D01*
X58002039Y-46981675D01*
X58107205Y-47286088D01*
X58200186Y-47460044D01*
X58464587Y-47555808D01*
X59420395Y-46600000D01*
X59779605Y-46600000D01*
X60735413Y-47555808D01*
X60999814Y-47460044D01*
X61140704Y-47170429D01*
X61222384Y-46858892D01*
X61241718Y-46537405D01*
X61197961Y-46218325D01*
X61092795Y-45913912D01*
X60999814Y-45739956D01*
X60735413Y-45644192D01*
X59779605Y-46600000D01*
X59420395Y-46600000D01*
X58464587Y-45644192D01*
X58200186Y-45739956D01*
X58059296Y-46029571D01*
X57977616Y-46341108D01*
X57958282Y-46662595D01*
X44127000Y-46662595D01*
X44127000Y-45464587D01*
X58644192Y-45464587D01*
X59600000Y-46420395D01*
X60420395Y-45600000D01*
X65561928Y-45600000D01*
X65561928Y-47600000D01*
X65574188Y-47724482D01*
X65610498Y-47844180D01*
X65669463Y-47954494D01*
X65748815Y-48051185D01*
X65845506Y-48130537D01*
X65955820Y-48189502D01*
X66075518Y-48225812D01*
X66200000Y-48238072D01*
X68200000Y-48238072D01*
X68324482Y-48225812D01*
X68444180Y-48189502D01*
X68554494Y-48130537D01*
X68651185Y-48051185D01*
X68730537Y-47954494D01*
X68760701Y-47898061D01*
X70765000Y-47898061D01*
X70765000Y-48101939D01*
X70804774Y-48301898D01*
X70882795Y-48490256D01*
X70996063Y-48659774D01*
X71140226Y-48803937D01*
X71309744Y-48917205D01*
X71498102Y-48995226D01*
X71698061Y-49035000D01*
X71901939Y-49035000D01*
X72101898Y-48995226D01*
X72290256Y-48917205D01*
X72459774Y-48803937D01*
X72603937Y-48659774D01*
X72717205Y-48490256D01*
X72795226Y-48301898D01*
X72835000Y-48101939D01*
X72835000Y-47898061D01*
X72795226Y-47698102D01*
X72717205Y-47509744D01*
X72635000Y-47386715D01*
X72635000Y-38788072D01*
X74250000Y-38788072D01*
X74374482Y-38775812D01*
X74494180Y-38739502D01*
X74604494Y-38680537D01*
X74701185Y-38601185D01*
X74780537Y-38504494D01*
X74839502Y-38394180D01*
X74861513Y-38321620D01*
X74993368Y-38453475D01*
X75236589Y-38615990D01*
X75506842Y-38727932D01*
X75793740Y-38785000D01*
X76086260Y-38785000D01*
X76335897Y-38735344D01*
X81665000Y-44064447D01*
X81665001Y-50671288D01*
X81596063Y-50740226D01*
X81482795Y-50909744D01*
X81404774Y-51098102D01*
X81365000Y-51298061D01*
X81365000Y-51501939D01*
X81404774Y-51701898D01*
X81482795Y-51890256D01*
X81596063Y-52059774D01*
X81740226Y-52203937D01*
X81909744Y-52317205D01*
X82098102Y-52395226D01*
X82298061Y-52435000D01*
X82501939Y-52435000D01*
X82701898Y-52395226D01*
X82890256Y-52317205D01*
X83059774Y-52203937D01*
X83150000Y-52113711D01*
X83240226Y-52203937D01*
X83409744Y-52317205D01*
X83598102Y-52395226D01*
X83798061Y-52435000D01*
X84001939Y-52435000D01*
X84201898Y-52395226D01*
X84390256Y-52317205D01*
X84559774Y-52203937D01*
X84703937Y-52059774D01*
X84817205Y-51890256D01*
X84895226Y-51701898D01*
X84935000Y-51501939D01*
X84935000Y-51298061D01*
X87265000Y-51298061D01*
X87265000Y-51501939D01*
X87304774Y-51701898D01*
X87382795Y-51890256D01*
X87496063Y-52059774D01*
X87565000Y-52128711D01*
X87565001Y-53271288D01*
X87496063Y-53340226D01*
X87382795Y-53509744D01*
X87304774Y-53698102D01*
X87265000Y-53898061D01*
X87265000Y-54101939D01*
X87304774Y-54301898D01*
X87382795Y-54490256D01*
X87496063Y-54659774D01*
X87640226Y-54803937D01*
X87809744Y-54917205D01*
X87998102Y-54995226D01*
X88198061Y-55035000D01*
X88401939Y-55035000D01*
X88601898Y-54995226D01*
X88790256Y-54917205D01*
X88959774Y-54803937D01*
X89103937Y-54659774D01*
X89217205Y-54490256D01*
X89295226Y-54301898D01*
X89335000Y-54101939D01*
X89335000Y-53898061D01*
X89295226Y-53698102D01*
X89217205Y-53509744D01*
X89103937Y-53340226D01*
X89035000Y-53271289D01*
X89035000Y-52128711D01*
X89103937Y-52059774D01*
X89217205Y-51890256D01*
X89295226Y-51701898D01*
X89335000Y-51501939D01*
X89335000Y-51298061D01*
X89295226Y-51098102D01*
X89217205Y-50909744D01*
X89103937Y-50740226D01*
X88959774Y-50596063D01*
X88790256Y-50482795D01*
X88601898Y-50404774D01*
X88401939Y-50365000D01*
X88198061Y-50365000D01*
X87998102Y-50404774D01*
X87809744Y-50482795D01*
X87640226Y-50596063D01*
X87496063Y-50740226D01*
X87382795Y-50909744D01*
X87304774Y-51098102D01*
X87265000Y-51298061D01*
X84935000Y-51298061D01*
X84895226Y-51098102D01*
X84817205Y-50909744D01*
X84703937Y-50740226D01*
X84635000Y-50671289D01*
X84635000Y-50198061D01*
X91765000Y-50198061D01*
X91765000Y-50401939D01*
X91804774Y-50601898D01*
X91882795Y-50790256D01*
X91996063Y-50959774D01*
X92140226Y-51103937D01*
X92309744Y-51217205D01*
X92498102Y-51295226D01*
X92698061Y-51335000D01*
X92901939Y-51335000D01*
X93101898Y-51295226D01*
X93290256Y-51217205D01*
X93459774Y-51103937D01*
X93528711Y-51035000D01*
X94771289Y-51035000D01*
X94840226Y-51103937D01*
X95009744Y-51217205D01*
X95198102Y-51295226D01*
X95398061Y-51335000D01*
X95601939Y-51335000D01*
X95801898Y-51295226D01*
X95990256Y-51217205D01*
X96159774Y-51103937D01*
X96303937Y-50959774D01*
X96417205Y-50790256D01*
X96495226Y-50601898D01*
X96535000Y-50401939D01*
X96535000Y-50198061D01*
X96495226Y-49998102D01*
X96417205Y-49809744D01*
X96303937Y-49640226D01*
X96159774Y-49496063D01*
X95990256Y-49382795D01*
X95801898Y-49304774D01*
X95601939Y-49265000D01*
X95398061Y-49265000D01*
X95198102Y-49304774D01*
X95009744Y-49382795D01*
X94840226Y-49496063D01*
X94771289Y-49565000D01*
X93528711Y-49565000D01*
X93459774Y-49496063D01*
X93290256Y-49382795D01*
X93101898Y-49304774D01*
X92901939Y-49265000D01*
X92698061Y-49265000D01*
X92498102Y-49304774D01*
X92309744Y-49382795D01*
X92140226Y-49496063D01*
X91996063Y-49640226D01*
X91882795Y-49809744D01*
X91804774Y-49998102D01*
X91765000Y-50198061D01*
X84635000Y-50198061D01*
X84635000Y-42136104D01*
X84638556Y-42099999D01*
X84624365Y-41955914D01*
X84611616Y-41913886D01*
X84582337Y-41817367D01*
X84514087Y-41689680D01*
X84422238Y-41577762D01*
X84394193Y-41554746D01*
X81755000Y-38915554D01*
X81755000Y-38594883D01*
X81966632Y-38453475D01*
X82173475Y-38246632D01*
X82290000Y-38072240D01*
X82406525Y-38246632D01*
X82613368Y-38453475D01*
X82856589Y-38615990D01*
X83126842Y-38727932D01*
X83413740Y-38785000D01*
X83706260Y-38785000D01*
X83993158Y-38727932D01*
X84263411Y-38615990D01*
X84506632Y-38453475D01*
X84713475Y-38246632D01*
X84830000Y-38072240D01*
X84946525Y-38246632D01*
X85153368Y-38453475D01*
X85396589Y-38615990D01*
X85666842Y-38727932D01*
X85953740Y-38785000D01*
X86246260Y-38785000D01*
X86533158Y-38727932D01*
X86803411Y-38615990D01*
X87046632Y-38453475D01*
X87253475Y-38246632D01*
X87415990Y-38003411D01*
X87527932Y-37733158D01*
X87585000Y-37446260D01*
X87585000Y-37153740D01*
X87527932Y-36866842D01*
X87415990Y-36596589D01*
X87253475Y-36353368D01*
X87046632Y-36146525D01*
X86803411Y-35984010D01*
X86533158Y-35872068D01*
X86246260Y-35815000D01*
X85953740Y-35815000D01*
X85666842Y-35872068D01*
X85396589Y-35984010D01*
X85153368Y-36146525D01*
X84946525Y-36353368D01*
X84830000Y-36527760D01*
X84713475Y-36353368D01*
X84506632Y-36146525D01*
X84263411Y-35984010D01*
X83993158Y-35872068D01*
X83706260Y-35815000D01*
X83413740Y-35815000D01*
X83126842Y-35872068D01*
X82856589Y-35984010D01*
X82613368Y-36146525D01*
X82406525Y-36353368D01*
X82290000Y-36527760D01*
X82173475Y-36353368D01*
X81966632Y-36146525D01*
X81723411Y-35984010D01*
X81453158Y-35872068D01*
X81166260Y-35815000D01*
X80873740Y-35815000D01*
X80586842Y-35872068D01*
X80316589Y-35984010D01*
X80073368Y-36146525D01*
X79866525Y-36353368D01*
X79744805Y-36535534D01*
X79675178Y-36418645D01*
X79480269Y-36202412D01*
X79246920Y-36028359D01*
X78984099Y-35903175D01*
X78836890Y-35858524D01*
X78607000Y-35979845D01*
X78607000Y-37173000D01*
X78627000Y-37173000D01*
X78627000Y-37427000D01*
X78607000Y-37427000D01*
X78607000Y-38620155D01*
X78836890Y-38741476D01*
X78984099Y-38696825D01*
X79246920Y-38571641D01*
X79480269Y-38397588D01*
X79675178Y-38181355D01*
X79744805Y-38064466D01*
X79866525Y-38246632D01*
X80073368Y-38453475D01*
X80285000Y-38594883D01*
X80285000Y-39183895D01*
X80281444Y-39220000D01*
X80285000Y-39256104D01*
X80295635Y-39364084D01*
X80337663Y-39502632D01*
X80405913Y-39630319D01*
X80497762Y-39742237D01*
X80525808Y-39765254D01*
X83165001Y-42404448D01*
X83165000Y-50671289D01*
X83150000Y-50686289D01*
X83135000Y-50671289D01*
X83135000Y-43796105D01*
X83138556Y-43760000D01*
X83124365Y-43615915D01*
X83082337Y-43477366D01*
X83014087Y-43349680D01*
X82945253Y-43265806D01*
X82945250Y-43265803D01*
X82922237Y-43237762D01*
X82894198Y-43214751D01*
X78318047Y-38638601D01*
X78353000Y-38620155D01*
X78353000Y-37427000D01*
X78333000Y-37427000D01*
X78333000Y-37173000D01*
X78353000Y-37173000D01*
X78353000Y-35979845D01*
X78123110Y-35858524D01*
X77975901Y-35903175D01*
X77713080Y-36028359D01*
X77479731Y-36202412D01*
X77284822Y-36418645D01*
X77215195Y-36535534D01*
X77093475Y-36353368D01*
X76886632Y-36146525D01*
X76643411Y-35984010D01*
X76373158Y-35872068D01*
X76086260Y-35815000D01*
X75793740Y-35815000D01*
X75506842Y-35872068D01*
X75236589Y-35984010D01*
X74993368Y-36146525D01*
X74861513Y-36278380D01*
X74839502Y-36205820D01*
X74780537Y-36095506D01*
X74701185Y-35998815D01*
X74604494Y-35919463D01*
X74494180Y-35860498D01*
X74374482Y-35824188D01*
X74250000Y-35811928D01*
X72550000Y-35811928D01*
X72425518Y-35824188D01*
X72305820Y-35860498D01*
X72195506Y-35919463D01*
X72098815Y-35998815D01*
X72019463Y-36095506D01*
X71960498Y-36205820D01*
X71924188Y-36325518D01*
X71911928Y-36450000D01*
X71911928Y-36499646D01*
X71828913Y-36524828D01*
X71683854Y-36602364D01*
X71556709Y-36706709D01*
X71530558Y-36738574D01*
X71238574Y-37030559D01*
X71206710Y-37056709D01*
X71141382Y-37136312D01*
X71102364Y-37183855D01*
X71024828Y-37328914D01*
X70977082Y-37486312D01*
X70960960Y-37650000D01*
X70965001Y-37691029D01*
X70965000Y-47386715D01*
X70882795Y-47509744D01*
X70804774Y-47698102D01*
X70765000Y-47898061D01*
X68760701Y-47898061D01*
X68789502Y-47844180D01*
X68825812Y-47724482D01*
X68838072Y-47600000D01*
X68838072Y-45600000D01*
X68825812Y-45475518D01*
X68789502Y-45355820D01*
X68730537Y-45245506D01*
X68651185Y-45148815D01*
X68554494Y-45069463D01*
X68444180Y-45010498D01*
X68324482Y-44974188D01*
X68200000Y-44961928D01*
X66200000Y-44961928D01*
X66075518Y-44974188D01*
X65955820Y-45010498D01*
X65845506Y-45069463D01*
X65748815Y-45148815D01*
X65669463Y-45245506D01*
X65610498Y-45355820D01*
X65574188Y-45475518D01*
X65561928Y-45600000D01*
X60420395Y-45600000D01*
X60555808Y-45464587D01*
X60460044Y-45200186D01*
X60170429Y-45059296D01*
X59858892Y-44977616D01*
X59537405Y-44958282D01*
X59218325Y-45002039D01*
X58913912Y-45107205D01*
X58739956Y-45200186D01*
X58644192Y-45464587D01*
X44127000Y-45464587D01*
X44127000Y-40777000D01*
X45015000Y-40777000D01*
X45015000Y-41052000D01*
X45065908Y-41314883D01*
X45167124Y-41562783D01*
X45314758Y-41786173D01*
X45503137Y-41976469D01*
X45725021Y-42126357D01*
X45971883Y-42230078D01*
X46037742Y-42242519D01*
X46248000Y-42119518D01*
X46248000Y-40777000D01*
X46502000Y-40777000D01*
X46502000Y-42119518D01*
X46712258Y-42242519D01*
X46778117Y-42230078D01*
X47024979Y-42126357D01*
X47246863Y-41976469D01*
X47435242Y-41786173D01*
X47582876Y-41562783D01*
X47684092Y-41314883D01*
X47735000Y-41052000D01*
X47735000Y-40777000D01*
X52465000Y-40777000D01*
X52465000Y-41052000D01*
X52515908Y-41314883D01*
X52617124Y-41562783D01*
X52764758Y-41786173D01*
X52953137Y-41976469D01*
X53175021Y-42126357D01*
X53421883Y-42230078D01*
X53487742Y-42242519D01*
X53698000Y-42119518D01*
X53698000Y-40777000D01*
X53952000Y-40777000D01*
X53952000Y-42119518D01*
X54162258Y-42242519D01*
X54228117Y-42230078D01*
X54474979Y-42126357D01*
X54696863Y-41976469D01*
X54885242Y-41786173D01*
X55032876Y-41562783D01*
X55134092Y-41314883D01*
X55185000Y-41052000D01*
X55185000Y-40777000D01*
X53952000Y-40777000D01*
X53698000Y-40777000D01*
X52465000Y-40777000D01*
X47735000Y-40777000D01*
X46502000Y-40777000D01*
X46248000Y-40777000D01*
X45015000Y-40777000D01*
X44127000Y-40777000D01*
X44127000Y-40248000D01*
X45015000Y-40248000D01*
X45015000Y-40523000D01*
X46248000Y-40523000D01*
X46248000Y-39180482D01*
X46502000Y-39180482D01*
X46502000Y-40523000D01*
X47123734Y-40523000D01*
X47298102Y-40595226D01*
X47498061Y-40635000D01*
X47701939Y-40635000D01*
X47901898Y-40595226D01*
X48090256Y-40517205D01*
X48259774Y-40403937D01*
X48403937Y-40259774D01*
X48517205Y-40090256D01*
X48595226Y-39901898D01*
X48635000Y-39701939D01*
X48635000Y-39498061D01*
X51565000Y-39498061D01*
X51565000Y-39701939D01*
X51604774Y-39901898D01*
X51682795Y-40090256D01*
X51796063Y-40259774D01*
X51940226Y-40403937D01*
X52109744Y-40517205D01*
X52298102Y-40595226D01*
X52498061Y-40635000D01*
X52701939Y-40635000D01*
X52901898Y-40595226D01*
X53076266Y-40523000D01*
X53698000Y-40523000D01*
X53698000Y-39180482D01*
X53952000Y-39180482D01*
X53952000Y-40523000D01*
X55185000Y-40523000D01*
X55185000Y-40248000D01*
X55134092Y-39985117D01*
X55032876Y-39737217D01*
X54885242Y-39513827D01*
X54696863Y-39323531D01*
X54474979Y-39173643D01*
X54228117Y-39069922D01*
X54162258Y-39057481D01*
X53952000Y-39180482D01*
X53698000Y-39180482D01*
X53487742Y-39057481D01*
X53482896Y-39058396D01*
X53403937Y-38940226D01*
X53259774Y-38796063D01*
X53090256Y-38682795D01*
X52901898Y-38604774D01*
X52701939Y-38565000D01*
X52498061Y-38565000D01*
X52298102Y-38604774D01*
X52109744Y-38682795D01*
X51940226Y-38796063D01*
X51796063Y-38940226D01*
X51682795Y-39109744D01*
X51604774Y-39298102D01*
X51565000Y-39498061D01*
X48635000Y-39498061D01*
X48595226Y-39298102D01*
X48517205Y-39109744D01*
X48403937Y-38940226D01*
X48259774Y-38796063D01*
X48090256Y-38682795D01*
X47901898Y-38604774D01*
X47701939Y-38565000D01*
X47498061Y-38565000D01*
X47298102Y-38604774D01*
X47109744Y-38682795D01*
X46940226Y-38796063D01*
X46796063Y-38940226D01*
X46717104Y-39058396D01*
X46712258Y-39057481D01*
X46502000Y-39180482D01*
X46248000Y-39180482D01*
X46037742Y-39057481D01*
X45971883Y-39069922D01*
X45725021Y-39173643D01*
X45503137Y-39323531D01*
X45314758Y-39513827D01*
X45167124Y-39737217D01*
X45065908Y-39985117D01*
X45015000Y-40248000D01*
X44127000Y-40248000D01*
X44127000Y-36977000D01*
X45015000Y-36977000D01*
X45015000Y-37302000D01*
X45063026Y-37535619D01*
X45155706Y-37755380D01*
X45289479Y-37952837D01*
X45459203Y-38120402D01*
X45658356Y-38251636D01*
X45879285Y-38341496D01*
X45911323Y-38343635D01*
X46098000Y-38218550D01*
X46098000Y-36977000D01*
X46352000Y-36977000D01*
X46352000Y-38218550D01*
X46538677Y-38343635D01*
X46570715Y-38341496D01*
X46791644Y-38251636D01*
X46990797Y-38120402D01*
X47160521Y-37952837D01*
X47294294Y-37755380D01*
X47386974Y-37535619D01*
X47435000Y-37302000D01*
X47435000Y-36977000D01*
X52765000Y-36977000D01*
X52765000Y-37302000D01*
X52813026Y-37535619D01*
X52905706Y-37755380D01*
X53039479Y-37952837D01*
X53209203Y-38120402D01*
X53408356Y-38251636D01*
X53629285Y-38341496D01*
X53661323Y-38343635D01*
X53848000Y-38218550D01*
X53848000Y-36977000D01*
X54102000Y-36977000D01*
X54102000Y-38218550D01*
X54288677Y-38343635D01*
X54320715Y-38341496D01*
X54541644Y-38251636D01*
X54740797Y-38120402D01*
X54910521Y-37952837D01*
X55044294Y-37755380D01*
X55136974Y-37535619D01*
X55185000Y-37302000D01*
X55185000Y-36977000D01*
X54102000Y-36977000D01*
X53848000Y-36977000D01*
X52765000Y-36977000D01*
X47435000Y-36977000D01*
X46352000Y-36977000D01*
X46098000Y-36977000D01*
X45015000Y-36977000D01*
X44127000Y-36977000D01*
X44127000Y-36398000D01*
X45015000Y-36398000D01*
X45015000Y-36723000D01*
X46098000Y-36723000D01*
X46098000Y-35481450D01*
X46352000Y-35481450D01*
X46352000Y-36723000D01*
X47435000Y-36723000D01*
X47435000Y-36398000D01*
X52765000Y-36398000D01*
X52765000Y-36723000D01*
X53848000Y-36723000D01*
X53848000Y-35481450D01*
X54102000Y-35481450D01*
X54102000Y-36723000D01*
X55185000Y-36723000D01*
X55185000Y-36398000D01*
X55136974Y-36164381D01*
X55044294Y-35944620D01*
X54910521Y-35747163D01*
X54740797Y-35579598D01*
X54541644Y-35448364D01*
X54320715Y-35358504D01*
X54288677Y-35356365D01*
X54102000Y-35481450D01*
X53848000Y-35481450D01*
X53661323Y-35356365D01*
X53629285Y-35358504D01*
X53408356Y-35448364D01*
X53209203Y-35579598D01*
X53039479Y-35747163D01*
X52905706Y-35944620D01*
X52813026Y-36164381D01*
X52765000Y-36398000D01*
X47435000Y-36398000D01*
X47386974Y-36164381D01*
X47294294Y-35944620D01*
X47160521Y-35747163D01*
X46990797Y-35579598D01*
X46791644Y-35448364D01*
X46570715Y-35358504D01*
X46538677Y-35356365D01*
X46352000Y-35481450D01*
X46098000Y-35481450D01*
X45911323Y-35356365D01*
X45879285Y-35358504D01*
X45658356Y-35448364D01*
X45459203Y-35579598D01*
X45289479Y-35747163D01*
X45155706Y-35944620D01*
X45063026Y-36164381D01*
X45015000Y-36398000D01*
X44127000Y-36398000D01*
X44127000Y-35127000D01*
X99873000Y-35127000D01*
X99873000Y-84873000D01*
M02*
