M48
; DRILL file {KiCad 5.1.5-52549c5~84~ubuntu18.04.1} date tor 13 feb 2020 09:10:49
; FORMAT={-:-/ absolute / metric / decimal}
; #@! TF.CreationDate,2020-02-13T09:10:49+01:00
; #@! TF.GenerationSoftware,Kicad,Pcbnew,5.1.5-52549c5~84~ubuntu18.04.1
; #@! TF.FileFunction,Plated,1,2,PTH
FMAT,2
METRIC
T1C0.400
T2C0.550
T3C0.762
T4C0.850
T5C1.000
%
G90
G05
T1
X71.8Y-48.0
X75.0Y-62.1
X75.1Y-58.6
X76.4Y-51.6
X79.7Y-52.5
X81.5Y-58.2
X82.4Y-51.4
X83.9Y-51.4
X86.0Y-54.2
X86.0Y-72.5
X87.6Y-71.7
X87.9Y-74.3
X88.3Y-51.4
X88.3Y-54.0
X88.3Y-59.8
X88.3Y-64.1
X89.4Y-72.2
X89.8Y-35.8
X92.5Y-57.8
X92.52Y-73.02
X92.8Y-50.3
X93.3Y-64.7
X95.5Y-50.3
X96.9Y-39.2
T3
X78.5Y-80.5
X81.0Y-75.5
X83.5Y-80.5
T5
X73.4Y-37.3
X75.94Y-37.3
X78.48Y-37.3
X81.02Y-37.3
X83.56Y-37.3
X86.1Y-37.3
X59.6Y-46.6
X67.2Y-46.6
X90.96Y-77.9
X93.5Y-77.9
X49.0Y-83.0
X51.54Y-83.0
X54.08Y-83.0
X56.62Y-83.0
X59.16Y-83.0
X61.7Y-83.0
X64.24Y-83.0
X98.1Y-67.94
X98.1Y-70.48
X98.1Y-73.02
X98.1Y-75.56
X98.1Y-78.1
T2
G00X46.225Y-37.175
M15
G01X46.225Y-36.525
M16
G05
G00X53.975Y-37.175
M15
G01X53.975Y-36.525
M16
G05
T4
G00X46.375Y-40.925
M15
G01X46.375Y-40.375
M16
G05
G00X53.825Y-40.925
M15
G01X53.825Y-40.375
M16
G05
T0
M30
